<mxfile host="app.diagrams.net" modified="2021-12-28T15:29:46.555Z" agent="5.0 (Windows NT 10.0; Win64; x64) AppleWebKit/537.36 (KHTML, like Gecko) Chrome/75.0.3770.80 Safari/537.36" etag="xLu6DMb375kT1kLT5pTr" version="16.1.0" type="github">
  <diagram id="DB-4mckSWWq1JJ_fEXef" name="Page-1">
    <mxGraphModel dx="1550" dy="-2671" grid="1" gridSize="10" guides="1" tooltips="1" connect="1" arrows="1" fold="1" page="1" pageScale="1" pageWidth="827" pageHeight="1169" math="0" shadow="0">
      <root>
        <mxCell id="0" />
        <mxCell id="1" parent="0" />
        <mxCell id="Q0ot5jj4FvukrQf4Q_Wv-1" value="" style="rounded=1;whiteSpace=wrap;html=1;fontSize=8;fontColor=#000000;strokeColor=#000000;strokeWidth=1;fontFamily=Verdana;dashed=1;" vertex="1" parent="1">
          <mxGeometry x="565.94" y="3738.27" width="546" height="200" as="geometry" />
        </mxCell>
        <mxCell id="Q0ot5jj4FvukrQf4Q_Wv-2" style="edgeStyle=none;rounded=0;orthogonalLoop=1;jettySize=auto;html=1;exitX=1;exitY=0.5;exitDx=0;exitDy=0;fontFamily=Verdana;fontSize=11;fontColor=#000000;endArrow=classic;endFill=1;strokeWidth=1;shape=flexArrow;" edge="1" parent="1" source="Q0ot5jj4FvukrQf4Q_Wv-3" target="Q0ot5jj4FvukrQf4Q_Wv-67">
          <mxGeometry relative="1" as="geometry">
            <mxPoint x="919.94" y="3854.27" as="targetPoint" />
          </mxGeometry>
        </mxCell>
        <mxCell id="Q0ot5jj4FvukrQf4Q_Wv-3" value="" style="rounded=1;whiteSpace=wrap;html=1;fontFamily=Verdana;fontSize=11;fontColor=#000000;strokeColor=#004C99;strokeWidth=1;" vertex="1" parent="1">
          <mxGeometry x="599.94" y="3751.75" width="301" height="174" as="geometry" />
        </mxCell>
        <mxCell id="Q0ot5jj4FvukrQf4Q_Wv-4" style="edgeStyle=orthogonalEdgeStyle;rounded=0;orthogonalLoop=1;jettySize=auto;html=1;exitX=0.5;exitY=1;exitDx=0;exitDy=0;entryX=0.5;entryY=0;entryDx=0;entryDy=0;endArrow=classicThin;endFill=1;fillColor=#d5e8d4;strokeColor=#82b366;" edge="1" parent="1" source="Q0ot5jj4FvukrQf4Q_Wv-6" target="Q0ot5jj4FvukrQf4Q_Wv-11">
          <mxGeometry relative="1" as="geometry" />
        </mxCell>
        <mxCell id="Q0ot5jj4FvukrQf4Q_Wv-5" style="rounded=0;orthogonalLoop=1;jettySize=auto;html=1;entryX=0;entryY=0.5;entryDx=0;entryDy=0;endArrow=classicThin;endFill=1;fillColor=#dae8fc;strokeColor=#6c8ebf;" edge="1" parent="1" source="Q0ot5jj4FvukrQf4Q_Wv-6" target="Q0ot5jj4FvukrQf4Q_Wv-8">
          <mxGeometry relative="1" as="geometry" />
        </mxCell>
        <mxCell id="Q0ot5jj4FvukrQf4Q_Wv-6" value="" style="ellipse;whiteSpace=wrap;html=1;aspect=fixed;fillColor=#f9f7ed;strokeColor=#36393d;" vertex="1" parent="1">
          <mxGeometry x="132.89999999999998" y="3852.77" width="10" height="10" as="geometry" />
        </mxCell>
        <mxCell id="Q0ot5jj4FvukrQf4Q_Wv-7" style="edgeStyle=orthogonalEdgeStyle;rounded=0;orthogonalLoop=1;jettySize=auto;html=1;exitX=0.5;exitY=1;exitDx=0;exitDy=0;entryX=0.5;entryY=0;entryDx=0;entryDy=0;endArrow=classicThin;endFill=1;fillColor=#fff2cc;strokeColor=#d6b656;" edge="1" parent="1" source="Q0ot5jj4FvukrQf4Q_Wv-8" target="Q0ot5jj4FvukrQf4Q_Wv-19">
          <mxGeometry relative="1" as="geometry" />
        </mxCell>
        <mxCell id="Q0ot5jj4FvukrQf4Q_Wv-8" value="" style="ellipse;whiteSpace=wrap;html=1;aspect=fixed;fillColor=#f9f7ed;strokeColor=#36393d;" vertex="1" parent="1">
          <mxGeometry x="192" y="3865.77" width="10" height="10" as="geometry" />
        </mxCell>
        <mxCell id="Q0ot5jj4FvukrQf4Q_Wv-9" style="edgeStyle=orthogonalEdgeStyle;rounded=0;orthogonalLoop=1;jettySize=auto;html=1;exitX=0.5;exitY=1;exitDx=0;exitDy=0;entryX=0.5;entryY=0;entryDx=0;entryDy=0;endArrow=classicThin;endFill=1;fillColor=#fff2cc;strokeColor=#d6b656;" edge="1" parent="1" source="Q0ot5jj4FvukrQf4Q_Wv-11" target="Q0ot5jj4FvukrQf4Q_Wv-14">
          <mxGeometry relative="1" as="geometry" />
        </mxCell>
        <mxCell id="Q0ot5jj4FvukrQf4Q_Wv-10" style="rounded=0;orthogonalLoop=1;jettySize=auto;html=1;exitX=1;exitY=0.5;exitDx=0;exitDy=0;endArrow=classicThin;endFill=1;entryX=0;entryY=0.5;entryDx=0;entryDy=0;fillColor=#dae8fc;strokeColor=#6c8ebf;" edge="1" parent="1" source="Q0ot5jj4FvukrQf4Q_Wv-11" target="Q0ot5jj4FvukrQf4Q_Wv-8">
          <mxGeometry relative="1" as="geometry">
            <mxPoint x="191" y="3870.77" as="targetPoint" />
          </mxGeometry>
        </mxCell>
        <mxCell id="Q0ot5jj4FvukrQf4Q_Wv-11" value="" style="ellipse;whiteSpace=wrap;html=1;aspect=fixed;fillColor=#f9f7ed;strokeColor=#36393d;" vertex="1" parent="1">
          <mxGeometry x="132.89999999999998" y="3875.77" width="10" height="10" as="geometry" />
        </mxCell>
        <mxCell id="Q0ot5jj4FvukrQf4Q_Wv-12" style="edgeStyle=orthogonalEdgeStyle;rounded=0;orthogonalLoop=1;jettySize=auto;html=1;exitX=1;exitY=0.5;exitDx=0;exitDy=0;entryX=0;entryY=0.5;entryDx=0;entryDy=0;endArrow=classicThin;endFill=1;fillColor=#dae8fc;strokeColor=#6c8ebf;" edge="1" parent="1" source="Q0ot5jj4FvukrQf4Q_Wv-14" target="Q0ot5jj4FvukrQf4Q_Wv-19">
          <mxGeometry relative="1" as="geometry" />
        </mxCell>
        <mxCell id="Q0ot5jj4FvukrQf4Q_Wv-13" style="edgeStyle=orthogonalEdgeStyle;rounded=0;orthogonalLoop=1;jettySize=auto;html=1;exitX=0.5;exitY=1;exitDx=0;exitDy=0;entryX=0.5;entryY=0;entryDx=0;entryDy=0;fillColor=#fff2cc;strokeColor=#d6b656;endArrow=classicThin;endFill=1;" edge="1" parent="1" source="Q0ot5jj4FvukrQf4Q_Wv-14" target="Q0ot5jj4FvukrQf4Q_Wv-22">
          <mxGeometry relative="1" as="geometry" />
        </mxCell>
        <mxCell id="Q0ot5jj4FvukrQf4Q_Wv-14" value="" style="ellipse;whiteSpace=wrap;html=1;aspect=fixed;fillColor=#f9f7ed;strokeColor=#36393d;" vertex="1" parent="1">
          <mxGeometry x="132.89999999999998" y="3900.77" width="10" height="10" as="geometry" />
        </mxCell>
        <mxCell id="Q0ot5jj4FvukrQf4Q_Wv-15" style="edgeStyle=orthogonalEdgeStyle;rounded=0;orthogonalLoop=1;jettySize=auto;html=1;exitX=1;exitY=0.5;exitDx=0;exitDy=0;entryX=0;entryY=0.5;entryDx=0;entryDy=0;endArrow=classicThin;endFill=1;fillColor=#dae8fc;strokeColor=#6c8ebf;" edge="1" parent="1" source="Q0ot5jj4FvukrQf4Q_Wv-17" target="Q0ot5jj4FvukrQf4Q_Wv-14">
          <mxGeometry relative="1" as="geometry" />
        </mxCell>
        <mxCell id="Q0ot5jj4FvukrQf4Q_Wv-16" style="edgeStyle=orthogonalEdgeStyle;rounded=0;orthogonalLoop=1;jettySize=auto;html=1;exitX=0.5;exitY=1;exitDx=0;exitDy=0;entryX=0.5;entryY=0;entryDx=0;entryDy=0;fillColor=#fff2cc;strokeColor=#d6b656;endArrow=classicThin;endFill=1;" edge="1" parent="1" source="Q0ot5jj4FvukrQf4Q_Wv-17" target="Q0ot5jj4FvukrQf4Q_Wv-25">
          <mxGeometry relative="1" as="geometry" />
        </mxCell>
        <mxCell id="Q0ot5jj4FvukrQf4Q_Wv-17" value="" style="ellipse;whiteSpace=wrap;html=1;aspect=fixed;fillColor=#f9f7ed;strokeColor=#36393d;" vertex="1" parent="1">
          <mxGeometry x="80" y="3900.77" width="10" height="10" as="geometry" />
        </mxCell>
        <mxCell id="Q0ot5jj4FvukrQf4Q_Wv-18" style="edgeStyle=orthogonalEdgeStyle;rounded=0;orthogonalLoop=1;jettySize=auto;html=1;exitX=0.5;exitY=1;exitDx=0;exitDy=0;entryX=0.5;entryY=0;entryDx=0;entryDy=0;endArrow=classicThin;endFill=1;fillColor=#fff2cc;strokeColor=#d6b656;" edge="1" parent="1" source="Q0ot5jj4FvukrQf4Q_Wv-19" target="Q0ot5jj4FvukrQf4Q_Wv-27">
          <mxGeometry relative="1" as="geometry" />
        </mxCell>
        <mxCell id="Q0ot5jj4FvukrQf4Q_Wv-19" value="" style="ellipse;whiteSpace=wrap;html=1;aspect=fixed;fillColor=#f9f7ed;strokeColor=#36393d;" vertex="1" parent="1">
          <mxGeometry x="192" y="3900.77" width="10" height="10" as="geometry" />
        </mxCell>
        <mxCell id="Q0ot5jj4FvukrQf4Q_Wv-20" style="edgeStyle=orthogonalEdgeStyle;rounded=0;orthogonalLoop=1;jettySize=auto;html=1;exitX=1;exitY=0.5;exitDx=0;exitDy=0;entryX=0;entryY=0.5;entryDx=0;entryDy=0;endArrow=classicThin;endFill=1;fillColor=#dae8fc;strokeColor=#6c8ebf;" edge="1" parent="1" source="Q0ot5jj4FvukrQf4Q_Wv-22" target="Q0ot5jj4FvukrQf4Q_Wv-27">
          <mxGeometry relative="1" as="geometry">
            <Array as="points">
              <mxPoint x="143" y="3931.77" />
            </Array>
          </mxGeometry>
        </mxCell>
        <mxCell id="Q0ot5jj4FvukrQf4Q_Wv-21" style="edgeStyle=orthogonalEdgeStyle;rounded=0;orthogonalLoop=1;jettySize=auto;html=1;exitX=0.5;exitY=1;exitDx=0;exitDy=0;entryX=0.5;entryY=0;entryDx=0;entryDy=0;fillColor=#fff2cc;strokeColor=#d6b656;endArrow=classicThin;endFill=1;" edge="1" parent="1" source="Q0ot5jj4FvukrQf4Q_Wv-22" target="Q0ot5jj4FvukrQf4Q_Wv-29">
          <mxGeometry relative="1" as="geometry" />
        </mxCell>
        <mxCell id="Q0ot5jj4FvukrQf4Q_Wv-22" value="" style="ellipse;whiteSpace=wrap;html=1;aspect=fixed;fillColor=#f9f7ed;strokeColor=#36393d;" vertex="1" parent="1">
          <mxGeometry x="132.89999999999998" y="3926.77" width="10" height="10" as="geometry" />
        </mxCell>
        <mxCell id="Q0ot5jj4FvukrQf4Q_Wv-23" style="edgeStyle=orthogonalEdgeStyle;rounded=0;orthogonalLoop=1;jettySize=auto;html=1;exitX=1;exitY=0.5;exitDx=0;exitDy=0;entryX=0;entryY=0.5;entryDx=0;entryDy=0;endArrow=classicThin;endFill=1;fillColor=#dae8fc;strokeColor=#6c8ebf;" edge="1" parent="1" source="Q0ot5jj4FvukrQf4Q_Wv-25" target="Q0ot5jj4FvukrQf4Q_Wv-22">
          <mxGeometry relative="1" as="geometry" />
        </mxCell>
        <mxCell id="Q0ot5jj4FvukrQf4Q_Wv-24" style="edgeStyle=orthogonalEdgeStyle;rounded=0;orthogonalLoop=1;jettySize=auto;html=1;exitX=0.5;exitY=1;exitDx=0;exitDy=0;entryX=0.5;entryY=0;entryDx=0;entryDy=0;fillColor=#fff2cc;strokeColor=#d6b656;endArrow=classicThin;endFill=1;" edge="1" parent="1" source="Q0ot5jj4FvukrQf4Q_Wv-25" target="Q0ot5jj4FvukrQf4Q_Wv-31">
          <mxGeometry relative="1" as="geometry" />
        </mxCell>
        <mxCell id="Q0ot5jj4FvukrQf4Q_Wv-25" value="" style="ellipse;whiteSpace=wrap;html=1;aspect=fixed;fillColor=#f9f7ed;strokeColor=#36393d;" vertex="1" parent="1">
          <mxGeometry x="80" y="3926.77" width="10" height="10" as="geometry" />
        </mxCell>
        <mxCell id="Q0ot5jj4FvukrQf4Q_Wv-26" style="edgeStyle=orthogonalEdgeStyle;rounded=0;orthogonalLoop=1;jettySize=auto;html=1;exitX=0.5;exitY=1;exitDx=0;exitDy=0;entryX=0.5;entryY=0;entryDx=0;entryDy=0;endArrow=classicThin;endFill=1;fillColor=#fff2cc;strokeColor=#d6b656;" edge="1" parent="1" source="Q0ot5jj4FvukrQf4Q_Wv-27" target="Q0ot5jj4FvukrQf4Q_Wv-32">
          <mxGeometry relative="1" as="geometry" />
        </mxCell>
        <mxCell id="Q0ot5jj4FvukrQf4Q_Wv-27" value="" style="ellipse;whiteSpace=wrap;html=1;aspect=fixed;fillColor=#f9f7ed;strokeColor=#36393d;" vertex="1" parent="1">
          <mxGeometry x="192" y="3926.77" width="10" height="10" as="geometry" />
        </mxCell>
        <mxCell id="Q0ot5jj4FvukrQf4Q_Wv-28" style="edgeStyle=orthogonalEdgeStyle;rounded=0;orthogonalLoop=1;jettySize=auto;html=1;exitX=1;exitY=0.5;exitDx=0;exitDy=0;entryX=0;entryY=0.5;entryDx=0;entryDy=0;endArrow=classicThin;endFill=1;fillColor=#dae8fc;strokeColor=#6c8ebf;" edge="1" parent="1" source="Q0ot5jj4FvukrQf4Q_Wv-29" target="Q0ot5jj4FvukrQf4Q_Wv-32">
          <mxGeometry relative="1" as="geometry" />
        </mxCell>
        <mxCell id="Q0ot5jj4FvukrQf4Q_Wv-29" value="" style="ellipse;whiteSpace=wrap;html=1;aspect=fixed;fillColor=#f9f7ed;strokeColor=#36393d;" vertex="1" parent="1">
          <mxGeometry x="132.89999999999998" y="3955.77" width="10" height="10" as="geometry" />
        </mxCell>
        <mxCell id="Q0ot5jj4FvukrQf4Q_Wv-30" style="edgeStyle=orthogonalEdgeStyle;rounded=0;orthogonalLoop=1;jettySize=auto;html=1;exitX=1;exitY=0.5;exitDx=0;exitDy=0;entryX=0;entryY=0.5;entryDx=0;entryDy=0;endArrow=classicThin;endFill=1;fillColor=#dae8fc;strokeColor=#6c8ebf;" edge="1" parent="1" source="Q0ot5jj4FvukrQf4Q_Wv-31" target="Q0ot5jj4FvukrQf4Q_Wv-29">
          <mxGeometry relative="1" as="geometry" />
        </mxCell>
        <mxCell id="Q0ot5jj4FvukrQf4Q_Wv-31" value="" style="ellipse;whiteSpace=wrap;html=1;aspect=fixed;fillColor=#f9f7ed;strokeColor=#36393d;" vertex="1" parent="1">
          <mxGeometry x="80" y="3955.77" width="10" height="10" as="geometry" />
        </mxCell>
        <mxCell id="Q0ot5jj4FvukrQf4Q_Wv-32" value="" style="ellipse;whiteSpace=wrap;html=1;aspect=fixed;fillColor=#f9f7ed;strokeColor=#36393d;" vertex="1" parent="1">
          <mxGeometry x="192" y="3955.77" width="10" height="10" as="geometry" />
        </mxCell>
        <mxCell id="Q0ot5jj4FvukrQf4Q_Wv-33" value="" style="endArrow=none;dashed=1;html=1;rounded=0;" edge="1" parent="1">
          <mxGeometry width="50" height="50" relative="1" as="geometry">
            <mxPoint x="252" y="3969" as="sourcePoint" />
            <mxPoint x="252" y="3738" as="targetPoint" />
          </mxGeometry>
        </mxCell>
        <mxCell id="Q0ot5jj4FvukrQf4Q_Wv-34" value="Input" style="text;html=1;strokeColor=none;fillColor=none;align=center;verticalAlign=middle;whiteSpace=wrap;rounded=0;fontStyle=1" vertex="1" parent="1">
          <mxGeometry x="120.69999999999999" y="3729" width="60" height="30" as="geometry" />
        </mxCell>
        <mxCell id="Q0ot5jj4FvukrQf4Q_Wv-35" value="img" style="text;html=1;strokeColor=none;fillColor=none;align=center;verticalAlign=middle;whiteSpace=wrap;rounded=0;fontStyle=2" vertex="1" parent="1">
          <mxGeometry x="6" y="3797" width="60" height="30" as="geometry" />
        </mxCell>
        <mxCell id="Q0ot5jj4FvukrQf4Q_Wv-36" value="" style="endArrow=classic;html=1;rounded=0;" edge="1" parent="1">
          <mxGeometry width="50" height="50" relative="1" as="geometry">
            <mxPoint x="218.99999999999955" y="3876.999999999999" as="sourcePoint" />
            <mxPoint x="283" y="3876.999999999999" as="targetPoint" />
          </mxGeometry>
        </mxCell>
        <mxCell id="Q0ot5jj4FvukrQf4Q_Wv-37" style="edgeStyle=orthogonalEdgeStyle;rounded=0;orthogonalLoop=1;jettySize=auto;html=1;exitX=1;exitY=0.5;exitDx=0;exitDy=0;" edge="1" parent="1" source="Q0ot5jj4FvukrQf4Q_Wv-38">
          <mxGeometry relative="1" as="geometry">
            <mxPoint x="276.70592543658086" y="3803.0588235294117" as="targetPoint" />
          </mxGeometry>
        </mxCell>
        <mxCell id="Q0ot5jj4FvukrQf4Q_Wv-38" value="" style="shape=image;verticalLabelPosition=bottom;labelBackgroundColor=#ffffff;verticalAlign=top;aspect=fixed;imageAspect=0;image=data:image/png,iVBORw0KGgoAAAANSUhEUgAAAs0AAAE2CAYAAACa8q/GAAAgAElEQVR4Aey9CbRdRZm3X4Gg/Ukm/LAJYJK2GcQYwiA2kDBKI4ShMY3GIEFggWGQZjBZQeEDURrUrEQgIkMkC2iCxChGZAhIIwSSiC0yBEwjQ2uSDlP7bxISFQOY/3oqeQ916taezj335p57fpV1s/fZu6p21bNreOutt2r3Wb9+/XonJwIiIAIiIAIiIAIiIAIikElgs8w7uiECIiACIiACIiACIiACIuAJ9Dn//PPX/+UvfxEOERABERABERABERABEWhrAldccUVm/vu8973vldCciUc3REAEREAEREAEREAE2oXAo48+6vbee+9kdmWekcSiiyIgAiIgAiIgAiIgAiLwLgEJze+y0JkIiIAIiIAIiIAIiIAIJAlsps0zklx0UQREQAREQAREQAREQARqBKRprqHQiQiIgAiIgAiIgAiIgAikCUhoTnPRVREQAREQAREQAREQARGoEeiz+LFn1q9bt652QSciIAIiIAIiIAIiIAIi0I4EDtx3j8xs9x00aKvMm7ohAiIgAiIgAiIgAiIgAiLgnMwzVApEQAREQAREQAREQAREoICAhOYCQLotAiIgAiIgAiIgAiIgAhKaVQZEQAREQAREQAREQAREoICAhOYCQLotAiIgAiIgAiIgAiIgAhKaVQZEQAREQAREQAREQAREoICAhOYCQLotAiIgAiIgAiIgAiIgAhKaVQZEQAREQAREQAREQAREoICAhOYCQLotAiIgAiIgAiIgAiIgAhKaVQZEQAREQAREQAREQAREoICAhOYCQLotAiIgAiIgAiIgAiIgAhKaVQZEQAREQAREQAREQAREoICAhOYCQLotAiIgAiIgAiIgAiIgAhKaVQZEQAREQAREQAREQAREoICAhOYCQLotAiIgAiIgAiIgAiIgAn2FQAREQAREYAOBxx/7D3fXnfPcokcWuBXLl/mLQ4YOcyN23c0dM/Yz7oCDPpFENfHk493CRx5K3iu6uPSFlW7WzGvc9KmXZXqdPWee23Ovf/D3i56F3wnjx2bGlXVj0pQL3SkTzyz1DDzBBDaHHHq4O+KoY7Ki1XUREAER6DUE+ix9YeX6XpMbZUQEREAEGiCwYsUyd+nFF3jBF+Fxv/0Pch/+yHAf02//c6n7wZxb3Jxb/81fv+jrl7shQ4bVPQVBdtWq191Jp5zmBg/etnbvm5dd4p55+ikvYH75wktq11955WV306zr/T2EZnOh8IxAOuO7N9TSYX448qwZV0z1aeI3Auz0GdfWpYs8feZTY9wbq1f7oOFzwrjwN+nsM9ygQVu5mTfeWrvFMy796gVu/t0/9dcuufRbbtxxE/w5YW6fO8fNvHaG/z3++M+7i7/2jVpYnYiACIhAqxL4yA7bZSZd5hmZaHRDBESgHQggFCNcoimed+f9XttqAjP55xyBcNqV13g/+CVM7BA40biiEbY/BFEcR7vGEX/4RzAOnWl6uTbmyGOSArPFd9TR72qTDxtzVJ3AjB8E+5Ej9wijT57jD4E7dqT5+BNOrl3ecaeda+eEOXfS+Y4BBo4BBQK/nAiIgAj0ZgISmnvz21XeREAEcgmgMT1xwqe9NhYBMBSW44AIuhPPONv7JQyaWHMfHDrUC8b2u8wRoXTc+A2a25T//v37py53yTWE4OEjRlaO+9hxx9XCfO/6q2vnOhEBERCB3khAQnNvfKvKkwiIQCkCmGRgvjBg4MCaPW9ewJNOmehvEwbzCHONmiaEmmWLa1Md0RxXdQj+mLLgYJLSwFeNU/5FQAREoKcSkNDcU9+M0iUCItClBBDwbPFe2YVsoZCISQKa6lZ3mFWwALJRF2rc39dvy0ajUTgREAER6PEEJDT3+FekBIqACHQFAROYiXuXXT5a+hF77zu65vcXCx+pnbfqycqVKxpOOoMGFjrisM/GzENOBERABHorAQnNvfXNKl8iIAK5BH75i0W1++Eit9rFjJP+/QfU7jz77G9q56148vBDP6/twFE1/X53jYsvqAW78OJ/rZ3rRAREQAR6IwHt09wb36ryJAIi0GUEQgH7v5cv77LnsG9z3t7NVR88fMftqwZJ+ke7/PRTT7qrvv0tv5c19uDYdGftYZ2MRBdFQAREoAUJSGhuwZemJIuACPR+AuHHRlK5xQ65ykdMUvs033PXHe7rX/1KKvoO1+JnISyzd/MnxxxZeeeQDpHrggiIgAi0AAGZZ7TAS1ISRUAEeg6BtWvX1hLTyDZttcA94IQFkGUXQfKlQQRvBGWcfTSFxZFyIiACItAOBCQ0t8NbVh5FQAQ6EAgX9D3x+GMd7mddeP65Z2u3dv7wLrXzVj3ZfvshlZLOVwHHHPlPPswlF52fu/MGX0rELCT115kdOyolWJ5FQAREoEkEJDQ3CaSiEQERaC0Ctr8wqV76m6dLJz70O2q/A0qH66ke2SuarxRWcRd97fLa1wzPPO2kXrH1XpX8y68IiEB7EpDQ3J7vXbkWgbYnwNf/THBetHBB3Rf+suCwYwR+cXwdsLeZJlw5fYPpRVb+7Tr5nvHdG/xPzDQmnX1Gkh+fCsekI/VXVVC3Z+soAiIgApuKgITmTUVezxUBEdjkBFhsx4I2BL/b595WmB784Jc9ie3rgIWBWsQDH3t5441VpVPLoMPsm9mrOfxCYulI5FEEREAEWoiAhOYWellKqgiIQHMJIPhNnX61F5zZ3o3dJLIc9/CDkI2WtYqWOfxqXlb88fU1a9bEl7rsN+m76ILJbq+P75P5jHABpHkK7Zv5QmLZnTgsvI4iIAIi0EoEtOVcK70tpVUERKDpBNhf+ObZP3Jnf/FUN/ncM91zv33WjTniaIdAjUMD+4M5t/iPgGDOMfWKq0sJzCx0s68Ooonld5FJAp+0Njfn+ze7Aw48OBkGIfeuO+eZV3ff/Lv81m/hF/l43pIlT9T8sL9yeN9ukD8EZtIY2mjzjFtvudG8uTvm/dCN3H2PDnnHvpmwK5Yv84zYu3rCiack/dYi08kmJUA5y9sDnJ1S4i0GR+y6m8PcJm+wmLUXOPXG6kKc8aytFSm/cRoIe9Ell7tLL3n3ozpxfFm/s55DOWcGae6c2b4ME568HjbmKF+nfvfii47Fv9j+m8vKp93POsIBhvDn40ohE5gXtQ9hvAziaa9iRz7z3m3s337b81m8G6aL+9OuvCZ3l52s8kRa9thzr+R7tOfmHbPeWV6Yrr7XZ+kLK9d39UMUvwiIgAi0AgE6ogfuv9fbLduWaphijN7/QHfU0WNLdWpZnb3l3zon+80xq9MxP2GYVKdm/jjiNyVshH5S5+yIMf2qa/2tomfEez4jeI89+tAO0cb+OnjQhU1GwIRFE7Ao5zfcfFttYMX9xQsf9rMHVhfCMpKVcAZnp554nFu9epUfjNrgk69PTpl0Vm2rQgTTSy+fVhucpuILB3T4nz7j2lr6eM5nPjWmFl9WWcMfNvcI+wisobO0co0vWtoHekjr7Jtn1YTHWHhDaIbFMWM/4/r161eL0urd+OM/79sLu/HC88+5b0+73I0cuUddGsJ6ZgK1hSk6jht7RO0T9jEbwpKH0089wUeTFzftFYt5v3DaWbWBAdxnXvcdN//un9aSMe/O+3PfFR6tHSP/fPAIZ+0ha0BQApiDCbvv4DDzCj8a9fCCB93Ma2e4mLuF7erjR3bYLvMR0jRnotENERCBdiNQZd/iLDZoi7I68KwwaLFCTVaWP67HHX/Kb9Xnx3GUeUYYBsGos88M49N51xNAiKTMmdA85shjagIpT+c+9WGHHXZyJ074tBdOEaKGf3TX3LLKbAaDTJwJzJwjkF5z/U21Ad2IkbvV3fcBov8Ij8Z3+fLf+3Ifarl5DkJorBWNovB5Qti+NPjku/nhGjMk9z24uC7vpJU/zI0wOwodgwmEUBtghvfsnG0cQ60x57vtvmeNtflj20tLP0eE+NRskPm3I4IoszvmYBSHswGA+ck6kjYE3JdfWlnzAnfyN3DQoFr+KQP3PrAod6aBDx1Rnk4+9fRaXJh1FQm/CMwxr+22296tWfNGLZ6eciKb5p7yJpQOERABERABEdhEBPr37598MgIUwim2/DiEojzbf/wgNKb2/0YwQqONW/TIhl1o/I+c/zA9QgsaCsw53pO3ECjjDxGhTUVQRQCOBU6LBGHS0mvX/uuF592njh1nP0sf4RjuDW8B0RKbu/GG6+w093jdd6/qkK7cAAU3Q7Os0Cuza/bemW1AM86gIcsZRzviD9MWhOmqjvUSPdFJaO6Jb0VpEgEREAEREIEeROBLky+oCVBoYBE6G3HnfGnDlDwa3iLhm2egUT123HGNPKouzLmTNjzXLv7xjxu+7Indf54geMoX6u2GEfzLfkXTnmXH1GwSgwHMGXBotdE25znuI+wbxzy/Ze+RhlTaCM+AydLHu6i6Sw7xhkJ02TThLytNVeJotl8Jzc0mqvhEQAREQAREoJcRYAod8wocWkcWzuYJm1nZR+A07e1V387fF5wFuAhsndEyY2eLOUPsttxygy1ykQY1tLWN42jW79Cc4fa5c3KjRRsNk8GDt831V/Ym2uMih8YdjTwOwX7ubbOLgvTa+xKae+2rVcZEQAREQAREoHkE0LKykwIOTfGU885qKPJx4zdMvRNHSqAlUgRyBLTPjt+wmK2hBznnVq5ckQyKuYQJgmhQDz9ktF88F3smz12t8UQTa5+mZ9ecrMEIWmaYYDbRLLds2e9KRcWuQWZKwgK+rPdWKrIW9iShuYVfnpIuAiIgAiIgAt1JAE2xTddjJlD2K5JhGjG3MFtZ7HNTjm3gEGoRbht17CCBkJnlWKBm6UDjzG4TaF43hUB4/Akn+2SSjqwPLf1s/t2eCYJ8Zx2COVp4Bi5lHNp+djsxXuy4UWRKUibeVvMjobnV3pjSKwIiIAIiIAKbkEA4Xc/WYEW2yXFSvR3v5070lxG8U/bR7JtcZcEd28DFf7blWvx8+41Azo4QpuXlOulh6ziE5+4UChGETfNN3mOHkPu966/2e6DH94p+k6eYzai9RnTYzaMoHniFJjps5ZelFS+Kq1XvS2hu1TendIuACIiACIjAJiLAdL3ZJvORjZTgm5e0Y8eNr93Gdjl0JoRXWXDHlofxH6YkphkN4w/PEeDZXo39zS0/3EfQPOzgUV4bG/rvynMbJKQWSbJn9sCBg2p7SVdJB8J4zGbxY8/4reCqxINfhHv2VcZh1nLpV6t/aKbqM3uSfwnNPeltKC0iIAIiIAIi0AIEEDb5nLwJpezjW0XriB2vmXlgQhFqdX9y+1xnds+dQYHQXVbwRhi87+eLvc12KDyzxV4jJiiNpJu02rPjRZL87oodM+x5VdLLdnD27ti7GzOPdnESmtvlTSufIiACIiACItBEAkzXT51+tY/RdqGoEn24yM/2KEZjjZa3GdvMkZbUftF5aURw/cGP767TwmKCUlWTnveMvHsmGKNtxiYbh+adLyyWHQDkxR/fGzbsQ/GlUr8x0bGFgQwsLK2lArewJwnNLfzylHQREAEREAER2JQE+PJcOF3PHs5lHUK32fEiGKKpbsY2c+Hz2fkitXCOxX5ZW6ehRSec5Yv4EOS7w/GhEdPe8ylvHJp3PvDSFa7q1z/DNBDWNNV8Ir27BhZhGrr7XEJzdxPX80RABERABESgFxEIp+sxteArfmXd6V88x3tFU33TrJlN2WYu69mxmcUvH12U5dVfJ18mFOZ6bOJNBHYTkBHUMX3gAyzN0rznJTXmk+eXe6GJDu/vogsmFwVp+fsSmlv+FSoDIiACIiACIrBpCYTT9SwQK+vQAptgihlEZ7eZy3ouWtA33lhVdxt73NCWuu7mxh8svsNtu932qdtdci0UkDF9wCwDAbUrHVr3nT+8S+VHhCY6Vd575Qf1kAASmnvIi1AyREAEREAERKA7CZRduMcHMF555eXCpIXT9YWeAw9mx8sl20EiuN3pU/KJFnSvj+/TIa68bdMQtBEEEeoxmyjr1qxZU8prlj8EZFtoR0ThFwNLRVzRE/n89rTL3a677V4Xknde5uMnoYlOXQQlf6xdu+GT5iW9b1JvfTfp0/VwERABESgggO0h+6bmOWwAR47cww0fMdKxlRUr82PHvquN2CWyVROuKB3mr8xzzY6zM+lh39XQweDm2T/K/RhEFoOLLrncXXpJ9tZRfAQi/ipaVlzNyFuYL86xd71p1vVegOE3Qszo/Q/0X4vbZttt/ZfpOmObGT+vXX6HH9Fgb+CUlhf2LEp74P57veCYp/G06Xp20qji0KTabhFlF7tRHzFbMIfGOFXvEQgRmBF+U4Iv1z/7z0f6nSkQGokDIZst3rDPpl6xS0hevklDuIPE/LvvyGyHwvTijwV+5CW2u0ZQxtQF4TnOF+m76855FpU3h/nkmCPr/IX22vjnL5UHFvBhjzx06N/Vhcc/dY53n0pf7eEbTzBlefbZ3+R+TMbCEPett9xoP90d837oRu6+RzJ9NU895KTP0hdWru8haVEyREAERCCTQCi0smp7+oxra408Df9lX/9/voEvEh6x22MaGJcSBi0BdDp8Lpb9W61Do2NmlX/4lTEWC9FhpTok4qKD4EtexIXDPx2Muc6kh3xffdW0OmGSlf9ZaeGZpIe9VZmaZh/bUEgJGeM3vm9pDo8IC0wh84GIi752ed2zO5M3ewbCOcLRlyZfUOOMIMSCMXsPCHsSmo1Y8dHeWZZPBoBxWTC/ZVhTLp9/7tkOAy2LI3U0oTMenMV+s9IV+4t/Uz7Zj9kc8Tzx+GPeVnjJk0+4hx683y16ZEHtC3m0MYeNOcrfz6tPZVjaM+0YD3jtetjWcA2hnU9mW/vDtazBqsVBm0Z9rOrCdinrGXH6Us8YN/YIN3fePalb/lpW3NwsU7YyI27ijY/ssF1mbBKaM9HohgiIQE8jYA1uqnFFGDz8kNGOBSkIznzpK9XZhZ1untBM3lOdFtctHZzf9+DimvCex4uOMvW8zqaHfJMesydMsYnThfYQzR770saOTo+4EBryOj8Lx/P5uliqQ+1s3kwgyRLeyQcf1iiTZ0uvjiIgAiKQRyBPaJZNcx453RMBEWgZAgjI4zd+mhfBGe1uZ91BBx+ajCK0u3z6qSeTfsKLaN4Q5MMFPuH9suep9JBvNGLEj8Pko2jbr8GDt3VZ+7PaQMOORWkr668onlTe+GwwLtSGh/FwPbT9DO/pXAREQASaTUBCc7OJKj4REIFNRuCAAw+uPbtoO6max5wTFriEU6PmFWHNVvybLabdSx2x2UOg76yAmZUenkn89rEBzBbQwraSS+WNwQ8OjXWWCz+QkeVH10VABESgGQQkNDeDouIQARHoEQTCVdgDB23YKqrRhGHykOdsxT8LZfIEVOygsR9mgWJnXFF6+vfv7+16TeOM2QK2v63gsvJmeTnztJMy88KWV3IiIAIi0B0EJDR3B2U9QwREoFsIsJjHXGp7KbtXdCzau5Xw4Ze7+GJXlrt97hy/SC5eAZ/lP3W9THoIhyabHTRM2GQXA2yOe7LLy5t95AGN89ijD63boSDMkxYBhjR0LgIi0FUEJDR3FVnFKwIi0K0EsBu23RQwU8iygy1KFELcldO+WeTNC6gm1GFHnDIhQGCd8/2b3fEnnFwYX5aHsumx8Ghe+dAEDmEzS4tr/jflsShv2ICbyQnpZFeAwz4xKlezvynzo2eLgAj0bgISmnv3+1XuRKDXE0BYZeHb6aee4PNaZScFhDB2tQj/Djt4lDenKAMuXNgX7jtqYdnrlS+KpeyizU947Gx6LC4GDOzUgWMnjKKFgRauK4+N5A3NOTt4WF5IH+YwmJ4gPKcGKl2ZB8UtAiLQ3gQkNLf3+1fuRaAlCaDZNUGXD5+gYWYfVrY9Y6q+7II7hDH2pA3/2EKOuMo4nmO7N6Q+ycsiQbN9LhNfZ9MTPoP9bi0f8Ak/dhD6667zzuSNvPBeGBCZQ3jm3U8654web4JiadZRBESgtQlIaG7t96fUi0BbEkB4QtBd/NgztV0s0Kj+/Y47dZoHtsfnTv5y6XjCT9zy4RNzaEH52lfqK2Tmp8yxanrCOPnYiJk38HGVnqaZrZI3/DIgYmAUCs8MVnqyCUr4PnQuAiLQ2gQkNLf2+1PqRaCtCaDp5RO3ODSPU847qyk8ENDKOvyGGl1b2Ia5RjO2mSMdVdITphs+fDnRFgayC4WlL/TXjPMPbLNNQ9FUzRumLgjPfPDE8sWAaVNr0hvKvAKJgAi0FAEJzS31upRYERCBmAAL3/gELA6zDT7d3AxXZUeGcKEfH1VBMG3GNnNhPqqkJwyHUMqOGjgWBk46+wwXbs0X+g3Ply37Xfgz89y2tasq/IYRZuUN04ssh9225Qs///6z+VledV0EREAEmkJAQnNTMCoSERCBTUlg3HETatremdfOaOruCgjARVpMtJ9mMsBX7DDTQPvcGUEyi2eZ9MRhGVigmcWhlb36qmmxl9rvvfcd7c/R3Jdxr776Ss1Epoz/PD9x3hYtXJDn3ZEvsynP9aibIiACItAEAhKamwBRUYiACGx6Atjv2lf62C3CNKCdTRnbz+273/6F0dintdHmsvAu1D4XBq7goWx64ijRzE4842x/GcE5y+208y61W3kfbTFPs2+e5Ubvf6D97NQxzhssi9IwYMCGj9h8cOjQTj1bgUVABESgiICE5iJCui8CItDjCKQ+2BHaNyNs8WGPzgrOCGwImGU0xgilJrRzLLvNXBW4WelZuXKF46/InTvp/JpGPssvn7M2rTm7f6D9TTneAYOTJUuecOFiyJTfMtey8pY3ACIN8+/e8LlwfU67DGX5EQER6AwBCc2doaewIiAC3UaAnR+wWcYhyKZ2ggjtm01wnjXzmprwjJB1153zamnOEjTxh0kG+wGPOfKYmv+iE9tezo5F/puRHgYGCJyLHlmQKeCG6Qh31Aivh+dTr7ja77qBicZnPjXG24nDmz8+IoPd+OGHjPbPxa44NahoRt5IU+o9cp10sGsGacT0hHcvJwIiIAJdSaDP0hdWru/KByhuERABEegMAQQ19uPNcuz/yz6+oWMBGQvxmuHm3Xl/aYEMQfGz/3yk+8GP7y7cKxqBzwYBVdIZpoe9qlOO7fjyHNpjTCGmX3VtnjcvFD9w/70O22KEV3Noov/xk2PcJ8ccmcxnM/LGs4iHRYJeWF/woFu8cIEfMHEPbT5mIWi5U0K7pVVHERABEahC4CM7bJfpXUJzJhrdEAEREAEREAEREAERaCcCeUKzzDPaqSQoryIgAiIgAiIgAiIgAg0RkNDcEDYFEgEREAEREAEREAERaCcCEprb6W0rryIgAiIgAiIgAiIgAg0RkNDcEDYFEgEREAEREAEREAERaCcCEprb6W0rryIgAiIgAiIgAiIgAg0RkNDcEDYFEgEREAEREAEREAERaCcCEprb6W0rryIgAiIgAiIgAiIgAg0RkNDcEDYFEgEREAEREAEREAERaCcCEprb6W0rryIgAiIgAiIgAiIgAg0RkNDcEDYFEgEREAEREAEREAERaCcCEprb6W0rryIgAiIgAiIgAiIgAg0RkNDcEDYFEgEREAEREAEREAERaCcCEprb6W0rryIgAiIgAiIgAiIgAg0RkNDcEDYFEgEREAEREAEREAERaCcCfX7/+9+vtwyfc+557vHHH7efOoqACPQSAptttpnbfLM+ydy89fY7yeu6KAIi0HwCm/Xp4zbfPK2vevudv7r162tdcvMfrhhFQASSBB55eEHtep8+7/aVv//9790BBxxQu9d32LBhtR/9+23pVixfVvutExEQAREQAREQAREQARHorQSGDh3qQlk4zOfvfve78KdLD3frvOiHCIiACIiACIiACIiACLQ3AQnN7f3+lXsREAEREAEREAEREIESBCQ0l4AkLyIgAiIgAiIgAiIgAu1NQEJze79/5V4EREAEREAEREAERKAEgb6hn+0/OMR9dMTI8JLORUAEegGBvptv5vr23TyZk7+se8tpwX4SjS6KQNMJsHPGFhl1cd26t91fVRmbzlwRikAegW23HZx5+2//9m/r7vVZH+xv89Jrr7vVa/5c50E/REAEWp/AB97f3229Vf9kRl5c/ppb99bbyXu6KAIi0FwCWw3c0g3eemAy0mUr/+D+9Oa65D1dFAER6BoCDGJ3HLZNqchlnlEKkzyJgAiIgAiIgAiIgAi0MwEJze389pV3ERABERABERABERCBUgQkNJfCJE8iIAIiIAIiIAIiIALtTEBCczu/feVdBERABERABERABESgFAEJzaUwyZMIiIAIiIAIiIAIiEA7E5DQ3M5vX3kXAREQAREQAREQAREoRUBCcylM8iQCIiACIiACIiACItDOBCQ0t/PbV95FQAREQAREQAREQARKEZDQXAqTPImACIiACIiACIiACLQzAQnN7fz2lXcREAEREAEREAEREIFSBCQ0l8IkTyIgAiIgAiIgAiIgAu1MQEJzO7995V0EREAEREAEREAERKAUAQnNpTDJkwiIgAiIgAiIgAiIQDsTkNDczm9feRcBERABERABERABEShFQEJzKUzyJAIiIAIiIAIiIAIi0M4EJDS389tX3kVABERABERABERABEoRkNBcCpM8iYAIiIAIiIAIiIAItDMBCc3t/PaVdxEQAREQAREQAREQgVIE+pby1WKeVq163f3XC8+7Jx5/zC39zdM+9dOvurZSLq6c/i2384d3cUccdUwtHPF+9p+PdPf9fHHtWneeFOXrt/+51L344vPuud8+65Y+s8RNOPEUd8BBnyhMIuHm33OnO3fS+bl+Lf7HfvWoe2bJU+7LF17i9tzrH3LD5N1csWKZ+92LL7rnn3vW/fIXi9ze+452p0w8My9IS957+KGfu379+nWKVUtmvEUTPfe22T7l446b0DoppR8AACAASURBVKI5ULLLEKD9uX3uHHfsuPFuyJBhZYLIzyYg8Phj/+HuunOeu/hr39gET9cju5MActcBBx7co/vKDkLzuLFHuGeefqoyp6UvrKwcpqsCTDnvLLfwkYdq0U884+zaedkThE5eXugQxIcN+1B4qVvP8/JFwzJh/Ni69Ey94uq636kf99x1hxeyiwTmOP4BAwd2umAfdvCouiQh5PdGx8Dl61/9Sqd5tTKbWTOvcffNv6vWtow58p/c8SecnMuEsvmT2+fW6vKQocPc6P0PdCefenqukEO4q779Lbdi+TJHmHHjJ5QajDEovfSrF7hjxn6mcLCJ35/Nv9v98tFFbtHCBe6N1avd7DnzcvPD+6MePbzgQbd44QLPYr/9D3Izb7y1w6vF33XfvcrnnbrG4P3s86a4QYO26uC36AJpnXHFVLfokQWeicVXxJF4Kbdzbv23Do/ISncHjxsvIKDeeMN1jncDq7JpwP9Ns66vlZsRu+7mTjrltDplRtYzD/vEKJ/f+P6kKRf68oCgfNIpEx3t6qeOHVcqzjiu3vIbzihDrIwYo1T+7F3+9/LlybIbhjG/Fi/3KDtleSNE9e/fPykw06bMnTO79o5pUyae/i/uwx8ZHiYh95z0+Xr8i0W1diYly1g+rC408ixLiMVVtS5YeGsbyiiZ7FmN8rdn5h2tjchr/ywdRfyQQ4iPNrJIJslLU1feqzPPeP31//WNEw3TdTfc4hY/9oyjAE278hqfBho6ftsfkLhGAepJjk6INJIPXCz8lkkrQnesRUVzTUHdVC4vX6SVPPPecDRMRR0sGjUayjKF0+K3sjB6vwM7jYH0UsbMldGKm99WO+6yy0e9wNRq6e5sehHYGIh/7/qr/cwE7/y+Bxf7jo5BHh1HytFwTj73TPePnxxTa4dmfPcGP8PxmU+Nccx6pBzh+Lvw4n/19eEbU6/0zyYNeY50Tjz5+FICMzMHhx8y2l1y0flu4KBBbur0q30a4/YifB7xTzrnDD+wnX/3He7T4z7n5t15f1LogAlsaGvg9cOfzPf55pl0PlUcnAjHzNANN9/m47vm+ps89zyOPINnWScXP/P0L54TX8r8TRp4FnEhMOM48jsvDVYGQiUO55QL7uU5GDJoih391bHjjqtdpo1EucAgK6ss1jz3whPeDXUDpgjB53zpfF8/UzN+CGvUEZQdWeUiRGTvnbJH3bX2njpd5h3aO06lhXTQpqDEsn5+/t0/dSdO+HRm2xCmjXOEbvJCPMNHjPSDXtIYO8vH6lWrfD2nz6Lejz36UEdbUMVZXFXrAs+gfDIQpG0IlYJZz7dnNco/K97wOmkqKguWjrL8mFFYsfz3hXU8TEd3ntcJzQ8veMgLwHPn3eM1LSZ0PXD/vT5NsaBEJ8G1Qw49vClptkrSjMjopGhgaSTzOrPUs3jJVhHD+5h67LTzLuGlbj8vytfjv/6VTxMNU56DNVqyqlNeCNm41DunUa3a8Sx58gkfX08beOWxa+Tevvvt72695cZGgrZ0mJtmzfT18ObZP6rVQzR8DADRAtN5Um5Cx28aYrRdmEhYO4QGiXAIXNOnXhYG8ed0goT70uQLappi6j5lnLYArVWWoxMeMXK3Wrgsf9Sb0089wQ0cOMgLvcTNYM/SmApHe4LgSqfOrBfmXeQrpREj7zChPpiwAK/pM671+Z509hmpR2Reu+iCyT6tnvdGEwSY8D7giJBBm5JyaIZJL8qR+K9Km3r2F0/1/QSDBBOceLe4rDTQjvDHIN2UN6TB2mXeM+87yyEEEzZON/mO3xW/GVylymJW/L3hOnwR/JYv/71nRRlhRiPLVGXt2rW+/qGQKeOsjhKvlXVYU/YpV7zDuO5bvNRVtKMphQ7v/YNDh7p7H1jk04O8wnumr6c8zbzuOxZN8kh5Z6BA+sgL8fCcVJnGL3WE+n7R1y73ZYc8UO9pv6ZMOqvSQLaRukAmGMDusMNO7gc/vtvnM5mx6GJn+EdRJX/SrhXJbI3ygzXlM6+OJxPVDRfrhOZnly71BSN+LtOPuJSgxIhr1912j4NU/g2gZjoTxmJBv8wzXn31FV8hYr9oLrbZZnB8uVt/F+WLaV/cbrvvmZkua5AomFWdvafUO//KlHMrlwUT8vfeZ9Np8KsyaMQ/HRGCW5aA0kicPT0MjerMa2d4Qcc6TUszHc8pX9hgv065CR32i7g99twrvOzPCYfgFGta6FSsk/jkmCPrwnlBYOgwnxbSFDsaZt4N5gp5jg6Cjp7n03nFeUqF5Xl0unTmCHEpISAMZywwEQkd5Wf88Z/36TSb6/B+6hx/5GvMkcd0EBRJO4I56cJ0I3bwpK5jvoAwEf/F/rN+o4nDpIY1JcbLv/uJZ7pLLt0wiCENixc+XBcFZjkIuLw7/ONIgxf+h26wP2ZqPuVINxpIwsbptjTE4fAH3zNPO6kt6iiMGCQgaBrnmEn822YCy8y2Un6ooyNH7lF7f2F8e37s4/4ns7exQ5Cm3UDrneUQWq1c4If3x2AZt+aNN7KC+XfLAJl6wfumPIXxxAGpG5TPVB0ifdy7cto342DJ343WBSKj/lN2SStMi1xn+BfFzX36MQbkxjwrTKP8yCfvmDY9a2CV9cyuvl4nNPcfMKBDAaLRp2DgUoLSgAGDMkemZRPPM+iQ9vr4PmWDFPp76MH7vZ+UoF8UmIVpwz+6awdvVLSsRreD5y66kJcvKgppZASclU4aSxokNCt5jUUq+VYWEBpibYSNOOPrqXjCa0xV49DE9nZHRx4LB705zybYZpUze+cMRilb5pjGw6U6VK6vXr2qg7aFBV24LLMkBDfcD+ZsMF/yPzZqcJieTZVp88MRwRqBGSHj0sunlao7pmWh/aSDRojLc3SqZlJgAkro39rHWd/L1rCG/v/9Z/P9T2xCU87aRtqE2MEzFFjj+2V/05Zii51yaBxpq3Avv/TutDjcEMxSbRhlyYQpYxXHjQ00NrNV3UEHH+r7utvn3lY1aEv5t9kMEo1gkuLc2Qz9ae0ffRRLljyRHISsXbvG3+/ff0CHR33zskv8tVH7HdDhHhdsBia+ueNOO/tLyDFZDvt1+kjqe1a5tLCUQ+o8LmXiafIQM0j0vUWukbpQFGfW/c7wz4ozvI4wzMwcdTjLdZafvX/WdvQkVyc0n3lWxwVz1vFldSpFmpOizNJgmybGIBWFKXOfqR2cFewyYcwPOznEWi4amrLTUhZPVxzz8vX0U0/6R5qAED8fwcSmfhmZV3VPPfm4DzIqsGemscBWk8aF0XgVR1g6PjrOqsJ2lef0JL9m3tKT0tRVaaEe5bnwnVs7g38T5hBmQ2Gae9RDyswXTjurLmobfGGbmHLbbz/EX44FRIRDhNrDxhyVCuavUU5Ni81zywoZpmVB0C7qoHmQDYhpa1Nu8OBtN6QnGmSk/HItZJryY/GR/1Cb4zu779/s6zTT2MxMlREKUs9AwMkaNOE/tbAa/1mCEWEs3annkQ+EIto5NIpo28lPGWcDFcpd2TBl4u1pfmw2g/6saCDXaNqpI7TrlC3qQeyYSaBexLNCDBx5f1mD3zie8DeLx3AsBkw56r7VCXZ+yiuXhA8VHH+/404dogzbr18sfKTD/fhCI3UhjqPs70b5l4kfjthJF7VpneXH+6Ec8M7C9qlMGrvST53QnHqQdXyhoJTyF14DKoLU8B239380vFSG0NEZYtRO40bFwo3aa4T3H/qzc6BZnPt8bHjNPpFnxdOVxF1FGCNuSytHXhLG9uE1M763a816iXRGaGnJE3GTRxps4o9tMIvyZbbnppEydnZkOgV37uQv26XkkeejWeP9kCaOPNs0VzbqJn0spGCkjUODjf+ydkjW0GQJ+cRJWni/lCFjzznpKXL4oXyQTsLYO4M5HSrxcQwd5dTyHZfZ0B/xWpqMj3HjXpZjsU27ObhUcQyeERxpFxhQG0/eJ9PnaG1DoYr4TeuYpVW1tQjEGQqAc75/s09aPEgO04ttL45OPlxEFvqJz3mGaakQtIs6aMLTEeGy/IYdN1tLlnVr1mzQ6pX1j6bV2mQEGOo19Zx6VPVdln1mIwqJ1DqIUCtFO85iTezJ4z4iK11W7sIOP8tvK16nLlldqbKYs5G82owA9YB21soO/R0a6JR9+R3zfugfVcYEJEwTbQN1GROorEEtdu44yloZpRFbt5rLqpM2wH322d+Y104fG6kLqYc2wj8VT3gNznAsM9vWDH6mBDGTvTAtm+o8V2imkNvIzGyQ8hJqwgiVAm2RLfpA4GbxTNhwUbBZEGMLQlgYgP949SppID5GxxYnq8mx3UXAROi2aRlLm2lEy2o+qUD2bBad0DnabzuSPmzw7HeZSmfpyTrCg9XjaMFYjGCrctn2CiE9FgCK8mW25ymNPY2ljeDDEXKcNioFe1Gz6NFW22PKwQIGygJsLO/MMsDDnC3YCQUau5c6shARx7RoyiG00uHhj0rKs3gH5MM0f6lwXKMskmbKB50+YUg3+YO5lWuOJkzzPiin1qnMvnlWh+gpj3QAlEm2viJN8CE9TP1xzJrdsGd2iLSXXrCOD/ahoFqUXTooFr6Zpop3SF3nfbJTBVPKoWMrSHPbbre9ndYd2Sfb3P+8+qo/pSyYcPiBbbax23VH3rcJv2jlEKZs8M6gi4FTanBl5iJEhkDuB5gbB6EMkCk/xB06OOFY5JRyYccdmjOk/HLNOl/Twmf5i68Tjl14aJtDwZR6FAo/cbhGfiM88bwsQScV5wvPP+cvs2Vh7BAEEZxIuwk0vGOEZ5gXOTMXMQVEkf9Wu4/pCs7yCRNT2DD4L6vwKJNv6ov177R9tOXUHcyv6O9S79z6sKx6HD+XOkzdYkHj0KF/l9n2UketXWeRPG29KT2ox6SLuELHtrM4YxXes3Ork81QhjRSFywdqWMj/FPxhNdQvCGMp95d6I/zZvDbbmN7boqT+Bmb4neu0GyLzkiYTV1lJdKEERtB2rQPhQrhioL37WkdF56xd6uPP9oTmWsmoKCBYeGNxYnQx3QqGs5QiLO0mUa0jKBvYexIB5wytKcAxMK5hWnkSGMFD0bbNm0Dq6OOHlvT3FqnZ/Hn5QvBj86BjsIqsoXjaKPsvL2QKZg0PrZwx4RrhE2bRo0XVprAQFpTzw3TEJ+bhnrk7h0XNpAWBFi/GCBYRFT2HZB2BmW22IjOn/KE5pLFCwj45tDg8bwfzf2+327JGnq7b0crj3EZhw8jYjoGyrlxs3AcYwEpvNdbz8Op19RimTxBGobUeRN8KCusYP/QDjvk4sqbuo8D2iCU66l3xvWwDcQ0Cu0JwhpCJWUKQZdyGjfqtiCXONg1hQ8lMbiy8hhr38K0mSlJeK2Rc7PrRVgIFRYW1yuvvGyndUc6RNp72iUW8LFFoAnP5JfBYTMczGizqmo8semmvbHBe5gWrtFPkHbbVcHKEMyLhEJby2LCWxh3q5/TBtnAjHUBaO9QWLAFIUohygmD/jKDi7IseA8MYnC8a+oxi75TfUU4iC1Tj3mX9FcM5nDkjRmRuC5yzxacc047j8NEg7RRPkgXfUMsOOPP+j4fqIv+a7QuFCWnCv+iuBicYMdscliRf7vfGX7W31N2Uu/GntGdx1yh2WzsYuEtTiCVES0QGUMTlBqFAI77ptUjDjpNCnpK8OU+Gle2w8lb4RoLcaTFNHpFgn6cD36jxbApgfA+glI4PRreq3pOB0YDTmOVYkV8MAnvFeXL7LlStpk2yibOLCYUSDR6TH3Hmrwwf2ZvatesjBRtcWf+7ZgnbFNGSAsddVxBbds2EwgsvqzjSxsXGNFQ09mTNxYvrFmzYYU1DearL7/sP6DgV+YPGeZsOts0pRY3WjbKa+q92axA1uxGKHxZfL39iCBqHSadEtoc3i1/NMCnnvjufrlmPhEy4b3gQoEtb1/fMGyZcysDeX5ZvGOOvWZRACCYUY8QKC1tlNdwEGDCCffxRzkmHGWPgTIOPyl7T3teZ488k/qMQ9OKkAF76h6CUSgc5bVtvEfygGCFo321+usvNPgfA3niTAm/WVEiXCDwXfT1jgqYVBjipl5bH4ZQSFta5OirepsLZ2RQHNAWUo5hRLkOB3QpwbNRHgw0qQf0P7gsrf8f/7i20iMQCJnpYytDK+dEENdFroVaT8oD9ZB8U0d8u7/R/ho5ZlO4RupC2XSW5Z8XH/UdRUCRHXNeHJ29V7V8dPZ5WeFzhWZbdFYkEGEDxyiVipEllKUaqtrCtWBhmSUUwZKOFiE8NSqtCTbRVmVmi2admcVX9ohtElqh0NEZouVKpSP0V+Yc4ZRGI6uzYC9MXDwYKMqXTcFa5xCmxUbZsQBqfng3NBZoSVOVIhTYY9MDKyN5W9zZc8JjnrBtC1UuCrbEIw0IXZQJ2GXlJXwG58YFAQkh2MKZPTWmQ3SkmAPY+7UwIUsEDoQcGudUJ2+2/1mzG/YOUgOyOM296Te80cqaNgezIwY+cApt2ePZBuoJmh/MchDYTPhGmMnSCOVxs3oV+sEEqYoLB7EWLlwfwJfFYmeay/A68Vgnb6Yf4f2s81QbmuXXriMYMXNC3aacYxNO3fvs+A17TeOPd2Nl38KljghWViesPKf8lblGfaJNJc6yjvwj6NMnZM0MpOIib3zAxIS2sgPYnqLZSuWps9dMgxfGgyBJOcGxUK8ZjvfFhyqow5hkUNZwlPtw0MY1M7up+lzqE+XcPuxF+NA8KowP5V1c1vlt9r/IMQwsy7pG6mQcdyN1IY4j63cV/llxIP9c9vX/V8qOOSuOrOtV+DVaPrKe3ej1TKEZUBQgXJFAxGpjXNaqVcCY5iW0HTS7sXiPXvxjukADnSWEm2Bj21b5BDjnv3DHeRyn3U8dqSS2yIzKzEjVfnNkygcW4bUqFSt8Jh0XjTf7n6acCZOxRtd2XUjly94V8aY6dhtlZy0QtEEPDUfcoJBGPlCBo8ELOys6FbhkPTeVP7uWJWyj4SBOhAoEXdOKYQ/H/ptsYl+2ow25ICChmTBn9tSwwWTF8mV5ovMwlpRHK+OpvXx5js1uxMKfPc+m6+MBmd3vzUfqMFPlaIX4owOFk2mzeNdhuYMngjECt70DztEoUdYQnEONUKglzWpYQ41x6L+z3Ck3JgjYwKlMnKEdv7UlFk+WMB9qClOa+aznUu4xVYL9o79e6gUMtDbWvmObX9aZeZe1KWXDhf7IL2Z5aPiqOJspyuoT8uKifI3/3IneS1gW8sK04z2bKbP2rDMMmE2iP7WBJe+AdiAcMFob0JnnWFjKhcVdtXyG64Bsq0tTcDDLnOVMrjG/Wf6yrjdaF7LiC683iz/KANoKTGFCGcjO7Zm2eQKDAJwx6Up+9uzuPGYKzaaJC4WHVMJ46XRief5MSxoLXWY3Fgu+vCTizJqCN8GKZ5qwY2mzShjHafdTRzSH1qFz387tiKaGP/vNMaVtTMUdXkMgozFCAAiFBPODsGCap1ijm5cve1fEm3JWaOM4zS8fCUAYSYUnzWYzFu+gYjahqXAWd+qYEkzNnw2k4MD0PaupsfFkSptOtgp340JZCgd0CMForHEsugo7YcuTdR74ofwSB4O4uLxx33ZX4H7We7XGNWycfQLa9L9wh4Z4IAJPeGPfHzoEaDNtoBE3EwGY0xbgikwu8GfvKKUFDp9X9tziK+sff+HCRAuHvSAu7+MM5rfIttv8ZR1tlwl4VKm/VleyFitmPc+uU/eZSWIGoQo3NGY8s0pa7Zl2tF1/yi4yswGbhW+Ho5mZdTav9GX0G6k2E62wzQTbwkSel9J+V01H3GaUDZ8qi6bgoC0qcua3yF94v9G6EMaRdd4I/6y4Gr1uTJrFrxnlo9G8hOEyhWbTxIVTqGFAO7dRmWlJ7Hp4tEVooUYjFLZjQcQWvKWEPAqDTevEaaMQ8oJSwnSYnqxzwqfygeanimYnK34bvWdpfO0TuXH6i/Jl7yorXpggFMecSSdxI4CkFj8iXLJa1phYp2P5s/eU9VzzFx9NMI3fH/5sIMVUG9oxtJJoysIOjDJQxhkXtA9h+HB6NhbYbJFIaGZR0/Lv2/GrhQhuNqDJMmOyaXs6ilTjXCYvvckPZc409950YOPnnS2PeSvReY+mTQo1hjbIydL22nXzx7NSH1awNNiRTt9cUbkLbeBNKFi5coUFzzzaQNC0z9ZOxAHCtjZVl2P/Wb8pr/YMFidWcbQJuKp1njCEZYYA2/CwPhY93zRXCFudcWaik+pX4nhpL3ubo5xZvrIWgVqew3Jv16ocbYearDCmfTZlAv623PLdHW6ywpW9blpO829t87Jlv7NLmUfbfjJUcCCvxC68FvqN/aV+N1oXUnGlrjXCPxUP18x2PFQahucWjllgrtuMbsgkZGX+w2uhX7sfH5tZPuK4q/xOCs28UNPEWUOeFal1PFlaGxo8hDIEr1BLYAvXwk7MnmGaUYvbrtPZXnrxBbV44rRZR2BxmjBj4YuO7H1q2p7QLxW7s5od4rNp13796r/QBW/sdU2Ta+m3NBTly94VBY+CmOrcU0Ix8WcZ15MmFr6ddc5kvxiTxtY6d8Jx39JVpsBbXjiasM37Ix7TGHLPRqWhQBSGxdadMlDGmQAelxMzgUH4CoUPuPGuyatp1HhOlhBHeSSdluYsMyb73G9qi6wy+ehNfnjfDMRgBn9rYKvk0XaXCAeyx44b76OwtiOOz66bP+6H74t3mXIIdwxicTZzEfsjT7hwtxAzr8pqg0yAswEA4Slz9qxUeqz9CJUPcVqKfhOvKR2wEw/rdFFY7jPrErflZcLBCPOKqgIz/Bh4dFZgJo3Ue9ZDhHU+TrutlYnXlMT+WvW39cE2oxfnw/KfNcsb+2/0t70DU8gQD3XNhPosM6ui59lgYMwRR9d5tZlnZJFU3bI6TP2zOoGCw+pnKj12DT9VlCGN1oW6DHXyR4p/J6PsELwZ/KydpFxUGWh3SEwTLySFZjOn4Dmh8JB6rnU81qCHfhDgzIaXhVahMxtPNHoUIoSh2LGynHv8IXyjpUAzZfaw2EUicHEfZ9vXEScVIxZO4/jj3+x9ah1yeI+KZoUsvN7o+dVXTasJtnQK7ItMJ/vGGxs+H2zpt8qdly8TOGl8KKRoo1JpLZpORQC2kR9xkiZ24mAaGQGHTiQUyE1ba88lHylhPWbEuzJhm/dHWQsHJKaho9xQJuzdwgIhHlt3ykCRI62kOxaACWeCTDyVZ0IRHQvPNX/2WVaEX/LIPcojwp9pJbIqteey0UbbGuOitPfW+/YOGZjQ0WQJQtZh204pMQ/aGniH9uOUeQQi3rm9NwvHb67HAlMoEL/66ivmvcPRtLFsdWbl0TyRJ/ITx00ZQlvHc1NtG2ZH5CGe6bjw4n/1Uac+983gOBZYSQ/1AvtCbBjzHPUaW3HShMBsAlQYxsq2tSvhPfLKrCGmFbGDMfv92od+wvuEQ2Cm3qY6Pntm/N6oY8zyZJUT6jjKBnM8hzAcY0fcbF2atZbE/JstbGrtiPlp5SMLvSl3lKWYE++BtUJxGWskv7R1CKC09fFziM+uxbs9WZm0XY/iZ5NG6lOqfHLPdqGIyxntg/UbM6/7Thyts9lAq3/mgfoJr9Sn67mWqsPUQ+oj9ZI0hY58N1IXwjjKnDfCn7SWbUvKpAE/jfAL4zblWU8axHYQmmmITBNB4q1whxkJzymcdIBUQuscgE/jhWE4HQerZmNBjo4GR8fHQjMTvrlmFQe7Vr4SyB8CC1qK9/Xb0muuKaxsSQVUG+VZnNtsM9hhAlAk8If54JwpXBOC7B48OjtVZXGZ9ol0sriQigVrFuCRZxsMIKjSaVrFz8uXFSo05DQkqbRyLTUYIF1WuTg3Q372nUXbjRbQpoSZSWB2wN6jPRftOGWEbW3sHnGxcTx/caNhi5loUHl/DGzCcKHtMbuM2FciWYSAizfFz3qOzWRYWfKBN5ZnhIZQo2D3TAPObwZspkE/ZuxnvBcGT7w30mQLmYxP/ByLk0acspralcT89PajtSm8Q7aQxPQmSxCCBSytTaF+2GCMI7+ZQcC22eq98UMgosPHD8/EISzxmzqQWkA6bvwE78/Ks8UVHqkjCJm8fzoVSw/PQAjlmSlhjB0buEc5DttG0kN7CYOw7PNM2izyTttnYXgOpluU2Vj5QH2yQSg2pLHgSf2jXSDd1Gs+AMGCyqzyivDAgBW/CKSE5fkIAgwSszTF7LZAvYJRuEiTtgFGpDFrIRH1CXMdq29wgBHpgIMtOIqPvr366K61V4UwRBieQ3pJN+knLtLHmoi4zNQCbzwxluGsQeynlX+Tf+oObRLvBUY4yjRlhO38UoMiyzP+TInD7E2efEBZsefwHsxxzrMp5/FMkykybPBiYeyIkoX6RPlkgEZ5Jw8cUfTQb6XqOeF5VtiuWN9EPSNO7sUyA/WTekq5phwRBgbUDVildnKxNUCUpXBLyUbrguWdI3m1WTPkFWuLQj92XpV/UVti8VY5NsIvjN/M6qwPDu9tqvO+9uA5c+a44457d99Uu27CCh1dXKDMD4UKoYyRF4WPisLIABsXOpyUozNBGGQvZuybws7DBAwaTOJi1TOdEhWeQsI1titCMA4rHZ0KBZnCGl5PPT91jcIYr6xnCia2j0qFLXONjgptNh0EHQxa1TDv5Gn1wFVeODUGxJuXL1vUggkBgwUTtMP0FKWfykWHyPvgvWCSYe/apsCZIg3TZNfRTPDVnrChonEwQZ+KGJYB7JJ4fzi0e/YcSy/pp9x887JLanHAiQFH3NHnPcdmMmLTjPn33OkfFZvAcNE0ygMGDKqVN66TRjSJNIaknc8i8zllyqNV6pSNJ40xjS1CSlFnbfnvTUcaeAQbHEIr+8AijJRhQZsCU4QdBio46gF28HwRNGwv/M2Nn59GMGKRIYvNYE95Jq647FgY3iP1EUEgka6qtgAAIABJREFUr80gPB9cQPtt6SFu9rtlq66UI5+WnrBtJC7KRKquEo/lnUVStKfkG+Heylz4LNor7psLvxSI4gIhkjJLe5ylXbawHHk/bLuJEIJgzx/vDu1/WMfDMJxjM0q7i18TPGmrEY5o64ocTKxcIPDS9pdxoXBrA27STF3ls8rkG7OosA3KitcESOq6pSXLbytfp9xRh1hwyxaEpkSgTZx5SvbAAqHa3i35J5zJB9iyxi58DluWnX7qhrUolJGsOsl7sjKEgBq/BwZWCLeUT+o3O11RD1EaMSNU9J7DusVgDUf/kiffhHWfMNQnrmW1Q8THwJ4Bqpn2NVoXQqYMGkPHu6AtghftTOyq8s9rS+K4q/yuyi+MmzzyfmM5IfTT3ed91q9fv94e+tJrr7vVa/5sP3XsJQToDFgtn6pYXZVFG73nCQfNeHZ3PScrrdaQ8YXBsIGnkeRDHFmdQ1Z8XXX9A+/v77beqt6W3p714vLX3Lq33rafbXc04ZIv36WE8VYBQj5wecJ/d+SFOpESorrj2Z15BppEhDFms8K63Jk4U2G3GrilG7x1eqHhspV/cH96c10qWNtcs8F2mUFeT4ayKfrdZvHoCW0JdZFBUZ7ytVn53aLv5m7HYduUiq6DeUapUPLUUgQYfdtUVHclfPC22/kRcJY2rVnp6K7npNJrmilGwmEnC2um03uKwJxKu669SwAhE21N6lPf7/rq+Wdoy0PN66ZIMVPvaAJbzTHIRbud9TGtVstPK6eX/gr7Y0zburvfaiY3TARtfUYz4+2OuHpCW2L26UWzB93BI3yGhOaQRi8+//S4z3n7vu7IItpfpuNs4UVXPbO7npOVfrNntl1PzB92bOxwwLSUXGsQwP6Y6V60G63o0JJS5jalphxzqdk3z6oz42oVluzIg2azJ00Dtwq7rkgnA1lMsUKb4K54TlfFSTvCwv5W7AN6QluCppv3n2cS1lXvriheCc1FhHrJfTRQnf30bRkUaF9ZUHfDzbdl2myWiafIT3c9Jy8dtpWc7V+NVgS7Pz5R3IqNZV5ee/s9ZgowX2IrrlYSnBFUsQFmAdWmLHMMYLE/ZPARzrr09HJDnYUfGsFNya+nc9oU6WOmjrVSCHGt5Cy9pL+VXE9qS9j6sKfyk01zK5XqTqaV0VtqMVEno2274EzlsojGFiuxiIRdYNCKsFiyJwoNsmkuX0xNaJYQVZ5ZK/q0esy2WN2poZdNc7XSgoKEWb1NbatfLdXy3QgBBhwoALrbJKOKTbOE5kberMK0LYF4BbmByFrBbPc39VFC86Z+A3q+CGwgIKFZJUEEehaBKkJzbcu5npUFpUYEeiaB7tyBpGcSUKpEQAREQAREoD0JyKa5Pd+7ci0CIiACIiACIiACIlCBgITmCrDkVQREQAREQAREQAREoD0JSGhuz/euXIuACIiACIiACIiACFQgIKG5Aix5FQEREAEREAEREAERaE8CEprb870r1yIgAiIgAiIgAiIgAhUISGiuAEteRUAEREAEREAEREAE2pOAhOb2fO/KtQiIgAiIgAiIgAiIQAUCEporwJJXERABERABERABERCB9iQgobk937tyLQIiIAIiIAIiIAIiUIGAhOYKsORVBERABERABERABESgPQlIaG7P965ci4AIiIAIiIAIiIAIVCAgobkCLHkVAREQAREQAREQARFoTwISmtvzvSvXIiACIiACIiACIiACFQj0Wb9+/Xrz/+c317m33n7HfuooAiLQSwi89z193Xvfs0UyN2v/9Kb7619rzUDSjy6KgAg0h8B7tujr/ua96br4xz//xb3zzl+b8yDFIgIiUIrAZn36uH5b/k0pv3VCc6kQ8iQCIiACIiACIiACIiACbUZA5hlt9sKVXREQAREQAREQAREQgeoEJDRXZ6YQIiACIiACIiACIiACbUZAQnObvXBlVwREQAREQAREQAREoDoBCc3VmSmECIiACIiACIiACIhAmxGQ0NxmL1zZFQEREAEREAEREAERqE6gbxjkpdded6vX/Dm8pHMREIFeQOAD7+/vtt6qfzInLy5/za176+3kPV0UARFoLoGtBm7pBm89MBnpspV/cH96c13yni6KgAh0DYEt+m7udhy2TanIpWkuhUmeREAEREAEREAEREAE2pmAhOZ2fvvKuwiIgAiIgAiIgAiIQCkCEppLYZInERABERABERABERCBdiYgobmd377yLgIiIAIiIAIiIAIiUIqAhOZSmORJBERABERABERABESgnQlIaG7nt6+8i4AIiIAIiIAIiIAIlCIgobkUJnkSAREQAREQAREQARFoZwISmtv57SvvIiACIiACIiACIiACpQhIaC6FSZ5EQAREQAREQAREQATamYCE5nZ++8q7CIiACIiACIiACIhAKQISmkthkicREAEREAEREAEREIF2JiChuZ3fvvIuAiIgAiIgAiIgAiJQikDfUr5azNOqVa+7/3rheffE44+5pb952qd++lXXVsrFldO/5Xb+8C7uiKOOqYUj3s/+85Huvp8vrl3TiQiIgAiIgAiIgAiIQO8n0EFoHjf2CPfM009VzvnSF1ZWDtNVAaacd5Zb+MhDtegnnnF27bzsydJnlrgDDjy4zjuC+LBhH6q71owfK1Ysc08/9aR77FePumeWPOWGDB3mioT8hx/6ubv6qmm1dzXmyH9yE0//F/fhjwzPTNLjj/2Hu/WWG938u3/q/RDm+BNOdnvu9Q+ZYbjRSPpyI9RNEWhzAgzAZ1wx1d1z1x3ujdWr3YCBA/0A/ezzprhBg7YqTYc6/fCCB93ihQt8W7Df/ge5mTfemgx/2CdGuRXLl3W4N2nKhe6UiWd2uK4LItBqBKhXt8+9zX3v+qvdo79empt8+rUbb7iuQx08+dTT3ZAhwzLDzpp5jZs7Z3atLpXpezMjc86FaaYtGLHrbu6scya7Aw76RGYwaz8WPbLAp8Paj6K0Z0aoG6UJ1JlnvP76//qGl5d23Q23uMWPPeMQhqddeY2PkBfDb/ubPWeeb+wpND3J0WmQRvKBi4XfMmlF6I6FSTTXe+87ukzwSn4+86kx7qpvf8vNufXfPP+998l/xte/+hV3+qknuBEjd/PviPeEO3HCp72Am3o4nfOE8WNrAjN+EJ65Rseb56qmLy8u3ROBdidAh3f4IaMdHd7IkXv4QTKdJfV/4snH+060iBFxTDrnjI11+g736XGfc/PuvD9TYKb+pwRm2vRjxx1X9DjdF4EeTQABmH5x1F4j3PSpl/mBaF6Cf/ufSx39GnWOuoezOsh17qcc9ROBHOWZyRf0o/S9WWFS8dg16jFx3jf/Lnfz7B95uYW6TP/ObHfK8RzaDxRsN9x8mw9zzfU3eeE/L+2puHStOoE6ofnhBQ85BOC58+7xoxzTeDxw/70+5tH7HVj3BIRKrh1y6OF11xv9QaFvlqMwojGnU4iF36JnUCitQoR+MfXYaeddwktNOWdE/IMf312La9/99q+dxycwoqLzni7+2je8Vor3dNHXLveVnpFz7MgPQjkDIQYTCNmXXPpuhfzKlHPjIHW/q6SvLqB+iIAIdCDATNiXJl/gzbwY4GPuZfWRNutn899tCzoEds53znSadNbMohF+3HETcmeZqP8oP1B0hH901NbOp56layLQCgT+59VXHbM0zJqUcWd/8VQvuzDQtD7RwiI8IwQjQ4QODfMHhw519z6wyA9OkZNMcUiYmdd9J/Re6py2gDp/6eXTavWXujz++M+7mdfOcMwox+6iCya7gQMH+TSYRhwZh7qclfY4Dv1unECd0Pzs0qVe+IqjW7Rwgb+UEo4HDhrkdt1t9zhI5d9oQprpljz5hI8uFvTLPOPVV1/x2p/YL5qabbYZHF9uyu81a97w8WCaYRUhjpgKhMDMQAAhOXR0fEzNcj928++50wvlNt2DXyqmNRIpDVQcR5n0xWH0WwREoJ4AGrFPHTvO17/wDvXRZuysroX37ZwBMB06nSNC8LmTzrdbmUfaVjRjrM+gcw3/8sy5MiPUDRHoYQQo0/Rre+y5V2HK6EdH73+gN4G08k9YTJRs8Er9Wrzw4Q5xmaLKbvBcBsC4NW9s6MPtXtGResmMNgo6S4eFwcwCN2XSWXbJH+feNtsL2WOOPKbDYJc4aENIO6Zfcl1DoE5o7j9gQIcXQSPNS8ClhOMBAwZlCnllk8wz0KDu9fF9ygYp9PfQg/d7PylBvyjw888964Z/dNcO3hgRxoW7g6cGL/xi4SM+JJUhy2HDjKPzo5JnOXiGjo415b9MA2PxlEmf+dVRBEQgTYABcbi4OPRlbU7//gPCy7VzNF8mMKOJyoqnFmDjyU2zrveCenxdv0WgHQnQv6OVTjkGryiucC+/VL9OK8vuf8eddvb+kZ+qOOol7rAxR3UIRjtBOpC9QoXiv/9svvfbv3//DmG4YPJOGCbpURcbJlAnNJ95VscFc7agjtFQSgNaRtORlzpernUEo/Y7IM9rpXvYC+JSgn5RRL/8xaIOI1bsftHkdpX75aOLfNR7fuzjyUegoUJoxx108KFJP/au/vjHtcn7WRfRXBe5ovQVhdd9ERCBfALYNdJRfnLMkUmPaI/oRKmvWZ1+HJB2i3Zj8rlnettJNFXxtHMcRr9FoDcTQPhNKZEsz1UX+7MQF8dC/LIu7M+zTD4tHWYeS9zWx2c9Z/Dgbf0t2omitUpZceh6PoEOu2fE3hEgcaMie+bYX/gbQZgXbbs0IHDHq0HRhmJXFJoGYMSPw8YodhQA2/mBTmP85070U5M8a+2aNXXTncRNvHmmDmH8xM2CuNBlFc7hO27vvWHLxNRMs5yxGrn7HskosdkylzIRCbXLf7/jTuY197h27Qbh+gun1U8BpQIVpS8VRtdEQATKEaAdW778994uMdWh08ma6RX1NeUn9aTrvntV7TJtGn/fnna5n1JGqyYnAiKQJlBGSUa/O+f7N3tTqSqz0L978cXaQ/v161c7D0+Gjxjp66spy8J7a9asCX/qvBsJ1Gma4+eikTDhMUsDGoahYWclKKYWTBOYgT0CN6tB0XKYo4CxgMXsalnQgv9YYCYNxMdiNYvzhz+Z77dYYvU4GhSbHrG4n3rycX+aZ+pgfjki/NqzWSSHUG6/7Uj6sHey380UmM3Yn0papjNMVU7LM2kvEwf5nn3zLD+wKFo9XzV9IVudi4AIZBOgblk7hrnFNttu0BTFIW6fO6d2CbMqVtazhRyD+H0+Nty3kSkN8ulfPMd36LSztrgZLdQlF53vw9Qi1YkIiIAnsGTJE35WOdXPGiKEZerg2KMPdUOH/l3lGW1MRMx9YJtt7LTuaCYYoWLRBPn5dzd3DVjdg/Ujl0Cu0GyL6YjBFpFlxUYhYrsTChyrOM3eDgEOEw60vmg4YseUJC61LRydAEI4W6uwu4TFiZkIdkBoPxESYwHW7H7KCPpxetiLmW2gYse+zbFwHvtp9Pfjv/6VD/qPnxxTKopU5zjrexu2BTRGRRGhXWdANOO7NxQK2VXTV/Rs3RcBEXC+bUOZYLM4aJLZFSOcNTJO7MNsjhk3Prz0jalX1hYuEZa2Mm4baBtpE5iSttX+JjwThh0B5ERABDYQYMaHQSWDzSxHnUFYZncLHJrgww4eVWd7nBU2dT1l9pryxzUWEeMQpEMlpPl/5ZWX7VTHLiKQKzTbYjob3WSlgYYaUwsK29TpVycXy2GfE9vZmF1PSvDlWZd+9QI/Zcm2TFna03h3DNJi2vEiQT+Vnxeef84xLRI7BgNlzR7isEW/bdS42+57Znrl2XDChYMZfiMA22g0y945jBhGZ552UukppTLpC+PXuQiIQDEB20+erSCtjaWNpC2NnU3RsjqeDx8hCCMQY2KBkgKHn6JV84ThufY89rSNBe342fotAu1CgK0ZmVWOFXFh/hmAMuPMdnUsyDXHrDcyTVc66r09k9kiBHj6f2asmJHnz1xXySsWf7sec4VmW0xXpAHlCzwIbTToWYJqqmHmK3i4WPDlGqMoNDAI4SmB2Wx64g+B2DYxtn1T1Rf77LO/8VqcMBwVgX0RU+kI/TVyTtywQxOfNx3Es832mG1oqCg4jt+87BJ/ThxZ/C1tvAc0UmydU0YrXTZ9Fr+OIiAC1QhQZxFk6axxtAdmEhXHZDtshNdpN6wjNbvn8H58Tlsy9YqrMwfhsX/9FoF2IIAASj9fdnMD6h39KINec6EZlV1r9GgyThyeZ2JuRX/PoBcFGArOz44/wacf/8wmdYW8EqelHX9nCs0mLAElTwPKfb6Qg8taPYqgZpqS0H7HVoXGgi/+MeVAG5IlBJr2M/4QCJ+ixsVx+osZ/yF4YhvIH50OI0b7zZGpFzqy8JoJrRlRlr5sW7mxb2SRY4RLZaFis3ARm0YW+hhbpmuLHNr7k045rZTATFxV0lf0bN0XARHIJmBmbPgIbR6zQ7x7J5xhKtM20aGymLqRZ737VJ2JQO8gQJ3BVJTBa1WHjGKDVsw4y7hwx4yUORZxWFxmThXGiyzAmjA03nx8DEGaXbOQU3D08XJdQyBz9wwTloo0oBQ2phTz/Jn2l5cf2u/YR1NiwZcvYhGn2e/EWcfuyLSzYXz44x4ujjOOI/zNVAyFD4dgbOfmx+z+KKjNdraVW9jp5T2DNFg6GNhgR44rmlLCjy3QLKNhtjRUTZ+F01EERKA6gXHjJ3jtUdWQWSvw8+JhHQl2mdtut2FHoDy/uicCvZUAQisbDZRZ35PF4Kijx9Z2t8nyE17/0A471H4WbRE7YuRuNb95J7ZTDrJYlT4+L07d60ggU9NswlKRBvSJxx/zsaZGQ/Y47IRw4egnFLZjwdcW8qX2WEZQNLudOG0UfhPg4zgtLXlHwqfy0VWfzyYttggoa6u5rPSijZ909hk+v2jki6aUYMbHY6pWpkbTl5VuXRcBESgmEGqi8G3mZitXrigMnGePGQa2LSdT7WzoT+ci0FsJ0I+yhgCBOc88smz+U+uhUmGRT0zWMBkq9mdrs8oo1FAWmv8yM87xs/S7PIGk0ExBMmGp6IXZ16tStnYkAy0tWmEKSCiw2YbgqW3hWHSHs7gtOwi1l158QS2eOG1WaCxO0zpb+KLjiy8+71KjOswfwpFhUTxl75vdIkJvFfsj3g9mFqSLaSHsE/McW+PAKuSPf+zGGYRkuUbTlxWfrouACOQTQChmwW9sllb0pS8TgG2aOP8pG+5iB8kMVSMKhjLxy48I9GQC9KNTzjurKQKz7Vox5oijS2fZlIgo5WKHrINDaxy3BSm/pkicduU1uYsY47D6XZ1AUmg2cwqiK3phZu+cevFokzFUpxOYPuPautTZFkpsC0fhTW2fwkpw7vGH8M2IEJteW6CIdhbBjvs4276OOCl0/fqlPzVZl5DgB5/N3H77IcGVDafeFGTIhk9rdrjZiQu2O8ne+44uHQv5YiEfgxpYYMuUJXDDBb9U5Pg9MqBgNiGvw2wkfaUzIo8i0IYEGKTSllmnGCLgGmsqWPwcOwa8DK6ZSUu1lXfM+6FvZ08+9fRaUOLLehb1n608TzplYs2/TkSgXQhQNxCY6UNTGmaTOUzxxm/qnSmSQk7cs103UnGhtGIvdYvLwlKnUSbSl8fKqx/M2bC48MKL/9W8J4+kx76ojMAcK8aSgXSxUwQ62DQj6NqohZgpXKmCYE/lHtoNGnsW37EFEoWIHTUQmGno0YTGgp0tXkPwvWnWTC/YWZy8eOKzP64z4mIK5X39tvSaawTxV19+2S+YMYHQ4uSLeXzso+oXr/j6Ybw/IzzIQ7MdFZD84VglC7OYkT2TCsUXhBBiCUN62O4m770QHwIzTEwDb/HZkUqW5aqkLysOXRcBEagncOMN1/k6bG3jhBNPcdgjM0U7d85svw2ktWf1IZ1vR6nTbDWFs7YW5QIdL/U5HATPvO47/jrPQqOMDTMaadqR/16+3C96ympz4mfrtwj0dAL0eXfdOa+WTITUlBCJTGOCZlbfSCTIGPc+sOGLyCgSrd4hi5zzpfMdn6xGw4zAzOx2lomk7ef8k9vndkjPpZdP82nB1BLFIrPryE708wj0qbaAfLLtLB8nI/0I3sSTJw/UoOik0wT6rF+/fj2xzJkzxx133HGZEbKtSuoFWgA0GjT6aGUpbGwjd/wJJ2dOFYwbe4QX6LDVO3fyl+saewoFHQEFh7hY5Y1GhAYeAZLFb+wgccoXzqwTjNlNYvXqVX5rNlssZ+krc2Q0SCUJOxKEx5deWplZIcrEG/qBE51YyqU+zY3Qzk4ZCMrYS6E1LlM5YMG7yHLWIIR5xW/V9GXFr+s9i8AH3t/fbb1VeublxeWvuXVvvd2zEtxLU0OHbcKsZdHq9rHjxte1g3Y/PNI20qmGbS2CAdtNxe1C/Kwy7XL4LJ13DYGtBm7pBm+9Yc/9+AnLVv7B/enNdfFl/S4gULbfMvmBGZsihzKQmVycySQI4hYWYRVzThYB5q0jQAmJLJOlCSZNDKYtbmSiLNnJ8ml1GbOt1MCgKG+6X09gi76bux2Hpb/MWO/TuZrQzI2XXnvdrV7z59iPfouACLQ4AQnNLf4ClfxeQ0BCc695lcpILyFQRWhO2jT3Eg7KhgiIgAiIgAiIgAiIgAg0hYCE5qZgVCQiIAIiIAIiIAIiIAK9mYCE5t78dpU3ERABERABERABERCBphCQ0NwUjIpEBERABERABERABESgNxOQ0Nyb367yJgIiIAIiIAIiIAIi0BQCEpqbglGRiIAIiIAIiIAIiIAI9GYCEpp789tV3kRABERABERABERABJpCQEJzUzAqEhEQAREQAREQAREQgd5MQEJzb367ypsIiIAIiIAIiIAIiEBTCEhobgpGRSICIiACIiACIiACItCbCUho7s1vV3kTAREQAREQAREQARFoCgEJzU3BqEhEQAREQAREQAREQAR6M4E+69evX28Z/Ov69S74aZd1FAERaHECm/Xp4/r06ZPMxV//ut7xT04ERKDrCVAPqY8pp7qYoqJrItD1BDbfrJwOuU5o7vpk6QkiIAIiIAIiIAIiIAIi0HoEyonWrZcvpVgEREAEREAEREAEREAEmkZAQnPTUCoiERABERABERABERCB3kpAQnNvfbPKlwiIgAiIgAiIgAiIQNMISGhuGkpFJAIiIAIiIAIiIAIi0FsJ9A0z9pd1b7u333knvKRzERCBXkDgPX37ui222DyZkz+/uc6xc46cCIhA1xPYou/m7j1b1HW9tYe++Ze33Dt//Wvtt05EQAS6ngA72rzvb95T6kF1Nff/W7XGrV7z51IB5UkERKB1CHzg/f3d1lv1Tyb4pddWuXVvvZ28p4siIALNJbDVwC3d4K0HJiN99Q+r3Z/eXJe8p4siIAJdQ4CB7I7DtikVucwzSmGSJxEQAREQAREQAREQgXYmIKG5nd++8i4CIiACIiACIiACIlCKgITmUpjkSQREQAREQAREQAREoJ0JSGhu57evvIuACIiACIiACIiACJQiIKG5FCZ5EgEREAEREAEREAERaGcCEprb+e0r7yIgAiIgAiIgAiIgAqUISGguhUmeREAEREAEREAEREAE2pmAhOZ2fvvKuwiIgAiIgAiIgAiIQCkCEppLYZInERABERABERABERCBdiYgobmd377yLgIiIAIiIAIiIAIiUIpA3We0S4VoAU+rVr3u/uuF590Tjz/mlv7maZ/i6VddWynlV07/ltv5w7u4I446phaOeD/7z0e6+36+uHZNJyIgAiIgAiIgAiIgAr2fQAehedzYI9wzTz9VOedLX1hZOUxXBZhy3llu4SMP1aKfeMbZtfOyJ0ufWeIOOPDgOu8I4sOGfajuWjN+rFixzD391JPusV896p5Z8pQbMnSYKxLyH37o5+7qq6bV3tWYI//JTTz9X9yHPzK8dJIYBCxe+LB74P57fTzkbeaNt3YI30j6OkSiCyLQpgTuuesON/ncM92kKRe6UyaemaTw2/9c6mZe9x23aOEC98bq1b4NGDd+gjt23HFu0KCtkmG4+Phj/+Gu++5Vvr0bMHCgH+Sffd6U3DCZkW28Qbtw+9zb3Peuv9o9+uulRd51XwR6JIGvf/Urbs6t/+Zmz5nn9tzrH+rSSL2ZMH5s3bXUj1SdpT7/5Pa5NRmD/nr0/ge6k0893Q0ZMiwVTe41+vLZN8+qxTdi193cSaecVqewiyMg/bfecqObf/dP/S3SUKa9iOPR7+oE6swzXn/9f73wxEu77oZb3OLHnnEIw9OuvMbHTKPMb/ujMHINga0nOQQ/0kg+cLHwWyatCN1xRUNzvfe+o8sEr+TnM58a46769rd8BWfAsvc++c+gMTj91BPciJG7+XfEe8KdOOHTDgG3yNEpzpp5jTv8kNG+8h9y6OHuBz++OykwE1fV9BU9X/dFoF0IIAxTX/McnfDYow91AwcNcvc+sMi3Xad84Uw3feplbuLJxzvqa8oRjo6fNon27oc/me8H3dTrMu1AHCdhSOuovUb4ZyO8y4lAKxKgbiAwZzkEzjJuv/0PqvNG/WAA/I+fHFOTj2Z89wZf7+gnqe9VnPXlxEcdpi+nX+cZWe2G1XsTmHneiuXLCtuLKumS32wCdULzwwse8gLw3Hn3uAMO+kRNW4EmEjd6vwPrYkKo5BpCVzNcViFpJG46GgRQhPpY+C2Kj4JvAnfoF1OPnXbeJbzUlHO0OQit5vbdb3877XCEEY0BA5WLv/YN/47QRF30tcu9hurGG67rECa8wAgVExO0SFOnX+0FZUxQ8rRZVdIXPkvnItDOBGiDLrpgsq+XWRxMUA3rM37HHTfBXXLpt3wbxsxZ7KjHdKyEM+01Wq7pM671z5t09hlxkMLf//Pqqw4tNdo1ORFoVQJFA1XqHDM6zECj+Ev9ISyjvQ1nbqlz9L3UD+qn9ZlvSWl8AAAgAElEQVT4QVHHIJOBblmHhpn4qOfEhyNO+nXqNfdQboWOtNus1X0PLvaCNkf845B5Uu1FGIfOO0egTmh+dulSL3zFUVLAcCnhGO3IrrvtHgep/JvRUzPdkief8NHFgn6ZZ7z66iu+wsR+Gc1ts83g+HJTfq9Z84aPh4qaNcVjlYyBAEJy6KhsVHQqWpazEerq1avczbN/5AdGWX7j62XSF4fRbxFoZwIzrpjq25FYWxUyuXLaN31ne8zYz4SX/TkdKXWdWa+4ffzKlHO9nzgcbcf44z/vO8+5t83uEGfeBZQLtCN77LlXnjfdE4EeS8AGql+afEFmGm+fO8f3f+dOOt8r1Cj38d+SJU+4MUe+u56JyO66c56PM1U/qDco2kKz0MwEbLwxZdKGwfAnxxzZwSumljiEcARlc6SdmX8GyiYn+MHyVdfWBGfSEIaxsDo2h0Cd0Nx/wIDa6MmiZ9Rm03Qp4XjAgEG1l2dhqh5tZLjXx/epGjTT/0MP3u/vpQT9zEAbbzz/3LNu+Ed37eCNUVw48uzgoRMXfrHwER86rqhhlNgw44o0w/CMHZ0uI1Q6YQTmqvkok774mfotAu1KgPrG+oR4cBvzsCnWfv36xbf8b1uIbLN9XGTwzAAex4xg7KwdnfW9ei1V7E+/RaC3EWCginmDaW5T+UNYzuv/qF/IPGOOOLou+OpVq/xvzDRTDmUU/WsZh9ba5CoE7tiRPhRoOOt7zY+1CfbbjudO/rKdOmaN5LqGQJ3QfOZZHRfM2ciJUZSNbMKkUAA74+hcsMWlAI3a74DORFUXdtEjG7TjKUG/zmPixy9/saiDtoVCnqcxSkRT6dIvH13k/e/5sY8nwzFyRGjHHXTwoUk/9q7++Me1dfdpBBCYcZhk5DUYdQGDH0XpC7zqVATamgCDVtYoXHr5tA5KiBAMbUqR2377Id6LCdf8MIVAyoSM+4MHb+vDIFinBtD+pv4TgV5GwAaqmBh1xlG/YtMM4jMFHKaNcb2iLlPfvnBaR1OqVFqyBO/Qr2068O8/m1+7nCdvpeSzWkCdNI1AndCcihUBEjcqsmdO+bVrFN5J55zhhu+4vf9jRw4Et9BR6A77xCgvzNmIiwUohEk5CqXFuc/Hhju2hMPxrHgakrgpwHmmDuEziNvSyhHhkwU24TV+c92ulenwwmcUnVunOHL3PZJew5FjykQkrMR/v+NOtTiYrrJpIHjcMe+HPg8wxD6a+2VcUfrKxCE/ItDbCdj08DlfytdmxRzWrq0f6Mb3w99osHEpDRXXw/r/4ovPh0F1LgK9kgD9X5mBapnMI1OkZnxR6jFQRV5B0Yc/HM8+87STvFmUrS8o8xzzU7YPNv9FR7TdVddxFcWp++8SyBWaeZmmvczSgL4blfN2NKz2RhhjVGarQRG42e0hFG7RdrLfsS06wSgf//yFjjQQHzZ8FierxBcvXOCFaDSoO+60cxjEPfXk4/53quDXedz4gwJmz2b1KoXOftuR9GGwb7+bWShtQIEmO6sjDNOd0hRbnkl7GAfTVVRyrtORs5UdeWSKB/vnvNX59syq6bNwOopAuxG4adZMPz2cNYUa8gjbENMeh/ezzm3G6YNDhya9hPX/5Zfq29NkAF0UgRYnwILbqgPVVJbp6+gvjx03vsNt6hULbVE+4ccvyDvnDHf2F0/1M7gs4CvrQrtotn1thjPFWVltdzOe2Y5x5ArNtpgOMCnbuRAYL4wtVzCgx2bWOg0KGlMKFLRvT6tfvEb4++bf5aNJbQuHwIxQh2aF3SUsTqYhDhtzlN+jMDWqsumMMoJ+mAfO2Yt55MiO2l72bY6F8zhso78f//WvfFC2nSnjUiNTs180RsSDP1sYSEWye7wTKjjvhA74Z/Pf3bkj9fyq6UvFoWsi0NsJ0OEymK8yPcyiPRz11Dq9kNPKlSvCn3XnZrpRd1E/RKDNCDDrjB2z9W+dyT4zsVmmqMSL7IEsYqZRzMAOHDjIfWiHHSo9lgEz/S8ODXmqT1+27HeV4vzBnFu8coy93eW6jkCu0GzajyJbXl44oy1GX1k2s9jncD80azA73ZTgS5Yv/eoFbvny3/vtXELtSYgj3h2DtJh2vEjQD+Ox8xeef84NHzHSftaODAbCac/ajSaczL97wzTPbrvvmRkbz4YTLhzM8BumtjAotHcOheHUCl3TxNsgI+vhZdKXFVbXRaAdCNCWXfb1/1doxxyzQMC2DtimfKnPZuJmg17zE4fXbxFoZwKNDFSzeCE7IAR/etznsrz466++/LI/htu8NbJHM/s706fTd6McJC/UfWbkMWm1Pj0lj8QJpP2hrUD+ypKV4jD63RiBXKHZFtMVaUD5ehQvmEKUJaimRlJ8BQ8XC75co+BQgLMKwZo1a3zY+EMgNtVhBdp7qvDfs8/+xn8+OwxCgWQ02RWFkbhhx6gzZXZh6eDZNu2CjbINPjh+87JLvDfiCPmbMAyL1CKB/v37W/SZx7Lpy4xAN0SgDQiwL3Ij08PUa/Z4NY0zU76Yoj3322f9Fz4NXZU1Jam21uLRUQR6CwH6pkYGqln5N9kh7zsJzAYxuGWRL6aO9uE3FIJcT80WZT2P/p5ZefpnZnwxYbW+nC8CmiszY37pxRf4fafD/t/C69hcAh0+o23Rm7DE7zwNKPdZTYqzvQX9j+A/GnGzw/vANtvU7tg2SrHgi39MOdBwZxUC037GBZxPUePiOGsPTZwgeIaf1GTEZrtNhN5ZBGgu9WlOu1flaNvJ8BnOImeLDObOme3Ti5CMBt/YfmPqlXVRoB3H2arfupvOOT7WUuSqpK8oLt0Xgd5IgPaDOkibkWo3LM/sucof7Vr4uXoEZ8ylYpvI8MMGoY0lWmeel1V/MTEz1xUfY7K4dRSBTUmAmVQUTnxNM89Z3576JHYYDnmEupVSMOEPmQjBGDMQU3BxvsMOO/nrCM7MuLNWq6wjHoRv/kKH5hkXK8JCP3ZOO8H6hrydNcyvjp0nkCk0m7BUpAGlw6Cw5PmzEVxcIO2jKbHgS2Ugzk8dOy6ZQ6YuTTsbF3Bb0RrHmYxo40VbCMhPBGMW+4XOOi8TWsN7nT23rdxCs4q8OEmDpYNKzLQQjoWK4cIirsEQR6VOORO286Z/qqYv9RxdEwERqEYAxYEpI9BCh+0c9pvU3TVvbPggUl7MVW0t8+LSPRHorQSob8xss9g/y/G1XfrUo44eW+fFNMYI78glmFlkKfvqAmb8QKYyE1Nmr/Ic8g7rwsJBeJ5/3es8gUyh2YSlIg2o7TeYZ3OHoTsunHIIhe2wQ8CfmRWk9lhGUGQ3DVycNqZGTICP4/QBCv4jfCofaHTiL28VRFX6NhUVl7XVXFZEVHKmhMkvmqu8UaaNisO4wpmE1CJM89to+iy8jiLQ2wmEg+5UXtEa0QkWabrCsOGuN/HCQgbYzIZZxxqG4zxskxtpB+P49FsEeiKBUIGUSp/NDJeZFTbFXp6y7b+XL089xl+jj2VwS73k42iNCs3062aiQb+et7gRGeqmWdfnrvnKTLBuNEwgadNsoy5iLdKA9u8/wD889QU9bqClZfSFMBoWgIcXPOjD2WI0/2Pjf2ZWYHHbPYRabHcsnjht1olYnKZ1tvBFR/Y0RYsTO7Q6XaGxYUSKo3JUsZfm/bBIknRRUadescE8Jk53agBgfhg127NjDbX5aTR9Fl5HERCB6gRot+h8WSSEzWPcNtAhM7OHS9lQmtlGqKSongqFEIH2IVBkmlGGhO1m0xmTKAbL9Ov03Vn9Ommh3l/33askMJd5MU32kxSabdTFs4pGTGbvbA11mD5GQtjw0fizv2Ho2JoJh5E7QmC4h7P5owBxjz+Eb+yF0NbYAkW0swh23MfZ9nXESaHq1694oZs9iyN7mlrBD697U5AhGzqp8Hpnz213kr33HV06KvKF5goNMCywg4w7VYvMVgHzHkLHb+uU8ypmI+kLn6NzERCBagRo57CLNoE5NUtEjBde/K8+YraZCh0zSLQNsZICPwjj4YehwnA6F4F2JYD8QJ2x/jKLg5mL3nrLjUkvyEDU23jWmC3xqHd5SjzSwMfb6Jepu5hbZPXryDzIVfTdKT+0AcTFUa75BDoIzQhUZv7A41KajDAZNi1BoTPB14RcDPDRot77wKI6mzzCM5rCUcD4IIAJ31wzTTIFiK8E8sfiN7ZoeV+/Lb3mmsLJ1i9MhVjBsTj5Yh4f+ygS+H0Cgv+68/PZsCJ/OHYCMcE/SE7tlMJPReG9YDdFfufdeX/NtrnmMToZd9wEXwGZ7rH3SMXl60VoqlJaLIuiSvosjI4iIALVCVC/qZd8IZXOkNX0tJlZAjNPoG2z6WBrd2m7MdmibsdKCsL85Pa53pxr5rUzMhNJO3TXnfNq9/M6+ponnYhACxMwJWGeaQbZQy6hziHr0BebUMqR36zRSvWp1DfMKKl/saNfZqB8+CGja4qwufPuqck0sX/qI7tsMKtuX1C2rxTb8bCDR/n1DjLNiuk153fNpnnOnDnuuOM6boptK1Ovu+GWTCEUbScaWj6wcclF5/vRFtvI5dkSMZpCyMXM4NzJX64Tqs2Gz7Sh4z93ojvplIm+IFFAEZjZAg7B2BbFgYPOYvXqVb5AhdfLokrtxZy1b3PZOGN/VBA6xtBRqfhL8aIjtMEHC/YQlvM60zBezhmxorFn1a/Ze7N1HRug22AjDFM1fWFYnYuACFQjYPbOtF2s0WCRUZa5VBwz7e5eH9/H2zXS7hLHuPETMus2mjI6Wzr+lEvVfdsRJNU2peLQNRFoNQJVTDOsziEAI5zirO7ypeKUoGqDW9NUGx+zuUYWQsZhh5xUePOP4ixvdx7zxzF+VnhP550j0Gf9+vXrLYqXXnvdrV7zZ/upowiIQC8h8IH393dbb5U2V3px+Wtu3Vtv95KcKhsi0LMJbDVwSzd46w0fqopTumzlH9yf3lwXX9ZvERCBLiSwRd/N3Y7D3t0OOe9RHcwz8jzrngiIgAiIgAiIgAiIgAi0IwEJze341pVnERABERABERABERCBSgQkNFfCJc8iIAIiIAIiIAIiIALtSEBCczu+deVZBERABERABERABESgEgEJzZVwybMIiIAIiIAIiIAIiEA7EpDQ3I5vXXkWAREQAREQAREQARGoREBCcyVc8iwCIiACIiACIiACItCOBCQ0t+NbV55FQAREQAREQAREQAQqEZDQXAmXPIuACIiACIiACIiACLQjAQnN7fjWlWcREAEREAEREAEREIFKBCQ0V8IlzyIgAiIgAiIgAiIgAu1IoG+Y6X7v+xvXd/PNw0s6FwER6AUE/s/fvCczF4MGvM+9885fM+/rhgiIQPMI5NXFAf3+j8u737xUKCYREAEjsPlm5fXHfdavX7/eAuooAiIgAiIgAiIgAiIgAiLQkUB58bpjWF0RAREQAREQAREQAREQgbYgIKG5LV6zMikCIiACIiACIiACItAZAhKaO0NPYUVABERABERABERABNqCgITmtnjNyqQIiIAIiIAIiIAIiEBnCEho7gw9hRUBERABERABERABEWgLAnVbzv3P/65xa//0ZltkXJkUgXYisNWALR1by6Xcf7/yv+6tt99J3dI1ERCBJhNgW7n/O6hfMtaXX1vl3lz3VvKeLoqACHQNgb6bb+aGbPt/S0VeJzS/9fbb7s2/qMKWIidPItBCBN5+J1so/su6t926t95uodwoqSLQugTy9mGmHqoPbt13q5S3JoEt+pb/PonMM1rzHSvVIiACIiACIiACIiAC3UhAQnM3wtajREAEREAEREAEREAEWpOAhObWfG9KtQiIgAiIgAiIgAiIQDcSkNDcjbD1KBEQAREQAREQAREQgdYkIKG5Nd+bUi0CIiACIiACIiACItCNBNpWaB439gi3YsWyOtQPP/Rz9/WvfqXumn6IgAiIgAiIgAiIgAiIQENC82//c6mbdM4ZLU3vmaefckOGDKvLw/PPPeu2335I3bVm/IDX3Ntme2aHfWKUPy+Kd9bMaxx+h++4vdvnY8O9ML9q1euZwbgXhiEc7+jxx/4jMww3uI8//PPHM4kn71m5EeqmCIhAjQD1yOo+9Zg6llcnGcgzcJ948vG1OIpOrO4Tf2ec2oLO0FPYViJAWbc+L+9IXxg6q2vWNxO2TD8bxpF1Tpqo9/Ezs/zr+qYhUFloptBcdMFkN2To322aFDfhqRTO/fY/qENMv/zFIrfHnnt1uN6ZCzzr7C+e6r497XI3/+6fuhXLl7nddt8zM0r4ogWfPvUyd8oXznRLX1jpbp79I/fMkqcyO1LCUNnum3+X+8bUK32YxY8944Z/dFc3YfxYd89ddySfx3Xu4w//PIvwxEN8xCsnAiLQGAFmrg4/ZLS75KLz3cBBg9zU6Vf7erbnXv/QIULrMA87eJSbc+u/dbifumAC9qi9Rvj24o3Vq1PeSl2ztoA2yhxtFe2Q2gIjomNvIXDrLTeWykooJ1g/S52gbpijzuT1s+Yv60jdQwgnjoWPPJTlTdd7CIHKQvOMK6Y6tLT9+/fvIVmonowXnn/ODR8xskPAJUuecH+/404drnfmAh3kfT9f7DtM4hkydJj78EfSGiGrlPC95NJvuXHHTfCPxv9Z50z23FMCsL2T6TOuddYhDxq0lTtl4plu/PGfT5qc0OFOPnfDffzhH0d44iENP5t/t7+m/0RABKoRQFt8+qknuIEDB7l5d97vLv7aN9wBB32iVs/i2NauXetm3nhrcjAf+7Xf//Pqq+7s86a4SVMutEsNHa0tIJ77HlzsB88cxxz5Tz4+2oIp553VUNwKJAI9jQDlfdHCBW7iGWe72XPmJf8QluO+mn4Wd90Nt/g6gpJp2pXXuAEDB/rr9KcMfqs40rLDDju5H/z47lo8VcLLb/cTqPsiYNHjEdhMaOvff0CR9x57/6WXVrrtttu+Ln2mVTXhse5mE36sXbvGxzJ6/wMzY7tp1kwvrFJhTWA2z3S4uJ/cPtcdcdQxdtkfTTMVm5twE3MTNFBUZhOouW4CccocxeL595/N75COugfrhwiIQAcCCMzUyRG77uYF4TJtitXvvfcdXVrbZPW5s7Njt8+d4zv/sF2hDZh+1bU+b2jS0IDRwVvb0CHTuiACLUKA8v7/t3f+sV5WdRx/qNs/IaDNFm0BOX+sPxyrzbYyf+RK66YsLyiB4cBRodSCdZtRTEfRGDgqcRioMHWYEiXkILHMGSJmyxQ1GWVQYIi5FgJizWC3vc7183ie8z3n++Pe7/d7v9/vfZ8Nnuc5z3nOc57X955zPudzPudzmL1NKa/4DBRo066amX8R8gGzvQxs/fpMnUHo7Zl0sUu7ZfOmQj+bZ5A48evTxIkfqbruJ7JTdBMIVK1pxi4Xge3Lc/o1DmeceVYTiteYV+z603NZWP69f30x44+2UeGRhx9yWX/yov7KFb6HSnn7qltc9OVTpoa382sqcyrQqaVCSoN+4MBLqUei2vhkYt0QARFw9ogIzGifFi9ZXuhgWxmPLzD75Zz/zQX5JZptBRFodwLze79VVmDGrApFU/fnJuWf+tzOZ7IFCxdF6zPCNzO6hH/s358/o5POJFCV0IxAhx3PDd9bkmH32+4BrYlpaexbnnn6qQwtT6MC00GEiR+OC+ZPPP5Y/upzz7sgP7cTm/aJ2S2i0SLcvHypJc+PG9bf4yq0Pzrm5plnfciloYNnQOQHm02YMnWaH61zERCBMgQYtNJOElAulNNklcmm6bcQIlLB14Sl0iheBDqJwG8ffbjENIOZoFBm8L85NmPr39d55xCoSmjGlmfGzNmFqblQc0mHgbDF1CRG7aEgxn1Wd7PIzUwhDCMCoT1nK1lZfGKCoqUb6JHVqJYvR4J/zTmdHf8sfqDvij3HdyDsItyGwqulP/jyAXeKhiqWBjtsggnI9hxH7J0JTKPaylsYw3TChNOc3aOfnnMaActr5owr8t+Esq744TI3XasOM6SmaxFIE7hzzWp3kzo8Zer0dMI2vMM3lRMa2vCTVGQRiBJAjum+tGgCGU0Yifz0Jd2RWEV1EoGKNs38AY0efbITsvhwMw8IBTtWffth64ObC5qWN14/5gRHFpVgCmEN8M0/WObMEhDg8NxAPAJ279evc6tJLU8a7Yce2REVKC1N6shCN/4RmHp5YNPPcns9ewZhnunURmiHHtv2qHvNZ7ovs9cljykTkd8/2a/hZ3FCGBCAmR5Ca4zgj8kF00SYebAAKRX4XgRmBHoGKeTNKv81d99XGCClnle8CIhAPwEGqdQ/AqYOzBxhkmXeKGjfGNya7XK7cDPlh5nltUu5VU4RGAgBM82odZZ11wvPO5OsS7ovHchr9UwbESiraTY7Zn/6DgELATYMrCRlxbUJddgN+wFhlFXkhJEjT3JHtKLY8ZIfBvYmSKPhxH6IwKI48n7yj7sGJDC7TLz/8MWMi7UwIMw3QmDmPU+8ZZrhu68J32/XoRaeeAYR1vl+6uLPWtL8yDNMDxl7Om8E5pSdoj147Njrzo4b/nw/bnRYjS8NsxHSUQSqI4DNo4Ud27dlf/nz7uyLV1/jVtrjhYL6hTcNM32ytK1+/On6da597jTNeatzV/mGhgAKNQa4tfSB1j8zsAyViUPzFXprIwkkhWYEMbSW2DFbMK1DShvKH5pNa8T8Db77pJEFW6E7blvpskYb2qw/NkaEZs/rf5eZKlhcvY5UKDpMBNNyQrmtgCdtKDibpwvKFNo7s3ECWmKex7WdLUjA/Q2j5ligTDyDBvymH610K4lNcCZeQQREoDYCDMYt3HLrmgxFA0oANMt4oTD3bdRL6l87BMrJABz/0s1qn9uBi8rYmQTod1FOXTH1qpo+ELMs5Aebza7pYSVuOwJJoTlmx4xmslK44MKL8iRh54Crl4U3ft/dNztfLnDZEgaz4R01ur6u7RBKTzv99MLr9ux5MTt7Yv9iusKNOlw8/+xOl0slrS8drGmiEVyNHZopG1wgEPudFzbLP99wb0FLj6bYBgDX936tRABn4HPl5d1OE03HTn4I82bGAR+zi67D5ysLERh2BGKDY98LhT8IbmU4i2/8jvNl224mJa3MVGVrXQK2GP/j551fdSGRY+ij2dtAYXgQiNo080eAhsFs9EIUHxg/PozKr/0FgrgosmkO/rhe2v93p4EhsZ8uf/itE0Z87KBHYIpzsAEhEK25hdD+2uL978UkpB7BXM2d89GPVcwOrS+DFfhTRoToffv+5myO0QQjEFtAw0x5MYnxBWnOqcA8jykNDYEJ7HBld0KuLc7y4/qpPzzp8sTjhkbNRkZHERg8AdpBBrMMSvFA1Or1izaTdt43zRs8BeUgAq1LgL6aOmoyS6WS0p9++/r5bqa22mcq5an7rU+gRNNsdswIjeE/23mqnHsVX4Czz7c/rhu++7apB+nYkYfAttymWUW4RtOKwMduO2bnbHkN5EgHxbew+4/ZSPvfRhz3/LiBvCf2jLmaC80qYmlhgsYX+23KgscS264znCJde8eP3ZRvrLISZ2Ya5pWD9yFAk98Xpl0de312zZeudfH2zmgiRYqACAyIQKxtHFBGDX6IQfuvtm4pDNIb/EplLwJDSgAZpRbTDNIjp8z7Rnmfz0P6UXp5QwgUhOZDh/5dYsfsv/Xo0f5d7fy42LmZGZiJBVuwYucXdhpoMRDEDx9+zWlGcffGyA1TCTSooTY09q5a4pq5fTblMhMURq/ht1cqN4MXzCsIMAqnSBFsYwsaLd/YwMYE6Nj0Mc/FBHDLT0cREIE0AWvzSGEKgFTqRvqDT72z2njarLvW3lay81m1zyudCLQjgVpNM5BpZs2eU3cZpR3ZDbcyF8wzblq6pMQfsw/EPGLYojX/Xuz86NEjzlcwnhxSghp5sTiPEVu9heSwTLt3v5CFZhJ0cGPGnFyzUBvmHbuuxdWc/zxlwowCbfuixcsGtJW1DXCq/a14P6Nngi8A+OXSuQiIQJwA7RveaxjM/u7x7dm46aWuIa1+tapbKgbqq29dIYE5/hMrtoMJ1GKawVqiarxTdTCuYf1puaZ57ty52bhx40s0mj4da/T9uNi5Ld5jARs+nlPCMN4dZkzryXCjlkoTy3+gcfguHjv2/YXHsbtmA5BGhK2/fMBlW4vgChMW6qF9X71mXVJgRrBlCjUWELrX33u3E3598xYrR8qrxl1rb3fZXfvVebFsFScCIlCGAH7mCZhOhW0lAin2zJikDdWMDmYXbDCFb/ww0Caw7oN1FbFZMdqU3nnXVdSih/nqWgRanQB1tRrTDNJRB1C8peQV6lhYv7im3nFPof0JvGPv3r0ZAvOqVauyo0eOJL+IhWc0+oQtmzeVdAr+g2Y2wB9WuYUkbFdJYOTGHxYNd9jZ+PkO9rxZ22fzDXyT2Qa/8srBskWnQ6VCYSOFL1e4sZFLaJLhZ0LnRqAS87wF8kHoHj/+g64DtHiOCNDYiWP2QTpjbR0iPrPrZUfuv1fnIjAcCFj9ot77HnAweWATIcy0Zs3+ShIF9dAGwmwi5dfr1EPUYdpjC+U65l/cv8HNXlHP/cAztDu0j+eec3a+K6rtjsqRhcX0D0Ml8Pvl1bkI1JNANaYZ1DPqNMI1biP9uuGfc8/3IEY5qW/MGlP/UoE2wjaOY6EwbYFCaxIYkWVZn180NJhsNGIBQZYGNRawtY2tAmflNbvSmRuz2LPEpfKmc8FXItOYMa1HKr9y8XRALDjcsOnBQjKEzs/3XFlWQC08UOGCihXzUc1jLO4LA6zQyOP7mi04cXdTbcdERb5/w30Z3i5MQOf3qzR1RAX9ybo7XQNAeZhW/sT5F7qFgNW+O/wOXbc2gfe+Z1R26imjooXcs//V7M3/HY/eU2TtBML6Ze3Z1OkzkpnV2m6QUegVyM+chc3+LBP3EI7p1FkkbG1zqg3287JzBnifJRkAAANESURBVNQpDZul0bEygVPGjMzGnlq6QRhP7jvwr+yN/75ZOROlqBsBZAD6z1A28F/AjsGmNPTjw3P6UvZL8AMKNDxdpeoPQncshLJYLI3i6kPgXV3vzM6Y8L6qMhvR19eXC80vv3ooO3z0P1U9OJhECHu4ViPgRu2fBw9mz+58OvvNr7cWBE46m3J/yIMpg54VgeFEQELzcPq19a2tTEBCcyv/OirbcCRQi9BcWAjYDFg2zYEG2TTanLOQxjQxaD9WrljuRnZobUKNSTPKqXeIgAiIgAiIgAiIgAiIgBHIFwJaRKOP7IbFNEc5t0vY8i5YuKjRRVH+IiACIiACIiACIiACIlAVgaYLzbihI5hLtFQp8anMLnjldg5MPat4ERABERABERABERABEagngaabZ7C4j4VvbkXpkdeyyyb1FMwvMM3Aq8aO7dvc9pT1WghYT2jKSwREQAREQAREQAREYHgRaLrQjHcG3KlhpsHCv7lzZjl3LGBn5SmL//DbbKu7h9fPoa8VAREQAREQAREQARFoRQJNF5qBgPaYRX+28K8VwahMIiACIiACIiACIiACImAEmm7TbC/WUQREQAREQAREQAREQATahcCIrq6u3E8zhX7ba3O7fILKKQIiUInACLYxSgTXABRagURCRYuACAyagOrioBEqAxGoO4FUvezt7c2WLl2av6/r+HHtBJbT0IkIiIAIiIAIiIAIiIAIZFl24sSJAgeZZxRw6EIEREAEREAEREAEREAESglIaC5lohgREAEREAEREAEREAERKBCQ0FzAoQsREAEREAEREAEREAERKCUgobmUiWJEQAREQAREQAREQAREoECgq6enpxAxIrWEsJBKFyIgAu1EoK+MWxzV+aH/JTdu3JgXYvLkyfm5TjqTQKo+qi525u+tr2p9Aqk6WSIj96VStv43qoQiIAIi0BEEfGFJTXJH/KT6CBEQgQ4kIPOMDvxR9UkiIAIiIAIiIAIiIAL1JSChub48lZsIiIAIiIAIiIAIiEAHEpDQ3IE/qj5JBERABERABERABESgvgQkNNeXp3ITAREQAREQAREQARHoQAISmjvwR9UniYAIiIAIiIAIiIAI1JfA/wF2z809KnDNNAAAAABJRU5ErkJggg==;" vertex="1" parent="1">
          <mxGeometry x="56" y="3764" width="182.8" height="79.04" as="geometry" />
        </mxCell>
        <mxCell id="Q0ot5jj4FvukrQf4Q_Wv-39" value="$$G=（V，A）$$&lt;br&gt;" style="text;html=1;strokeColor=none;fillColor=none;align=center;verticalAlign=middle;whiteSpace=wrap;rounded=0;fontSize=9;" vertex="1" parent="1">
          <mxGeometry x="102" y="3980.66" width="72" height="26" as="geometry" />
        </mxCell>
        <mxCell id="Q0ot5jj4FvukrQf4Q_Wv-40" style="edgeStyle=orthogonalEdgeStyle;rounded=0;orthogonalLoop=1;jettySize=auto;html=1;exitX=1;exitY=0.5;exitDx=0;exitDy=0;fontFamily=Verdana;fontSize=11;fontColor=#000000;endArrow=classic;endFill=1;strokeWidth=1;entryX=0;entryY=0.5;entryDx=0;entryDy=0;" edge="1" parent="1" source="Q0ot5jj4FvukrQf4Q_Wv-41" target="Q0ot5jj4FvukrQf4Q_Wv-161">
          <mxGeometry relative="1" as="geometry">
            <mxPoint x="804.9999755859375" y="4040" as="targetPoint" />
          </mxGeometry>
        </mxCell>
        <mxCell id="Q0ot5jj4FvukrQf4Q_Wv-41" value="Classifier" style="rounded=1;whiteSpace=wrap;html=1;fontSize=8;strokeColor=#ae4132;strokeWidth=1;horizontal=0;fillColor=#fad9d5;" vertex="1" parent="1">
          <mxGeometry x="873.97" y="3991.24" width="28.43" height="97.5" as="geometry" />
        </mxCell>
        <mxCell id="Q0ot5jj4FvukrQf4Q_Wv-42" style="edgeStyle=orthogonalEdgeStyle;rounded=0;orthogonalLoop=1;jettySize=auto;html=1;exitX=1;exitY=0.5;exitDx=0;exitDy=0;fontFamily=Verdana;fontSize=11;fontColor=#000000;endArrow=classic;endFill=1;strokeWidth=1;" edge="1" parent="1" source="Q0ot5jj4FvukrQf4Q_Wv-43">
          <mxGeometry relative="1" as="geometry">
            <mxPoint x="374.8400146484373" y="4037.5" as="targetPoint" />
          </mxGeometry>
        </mxCell>
        <mxCell id="Q0ot5jj4FvukrQf4Q_Wv-43" value="Emberding" style="rounded=1;whiteSpace=wrap;html=1;fontSize=8;strokeColor=#ae4132;strokeWidth=1;horizontal=0;fillColor=#fad9d5;" vertex="1" parent="1">
          <mxGeometry x="309.33" y="3988.87" width="27" height="94.25" as="geometry" />
        </mxCell>
        <mxCell id="Q0ot5jj4FvukrQf4Q_Wv-44" style="edgeStyle=none;rounded=0;orthogonalLoop=1;jettySize=auto;html=1;exitX=0;exitY=0.5;exitDx=0;exitDy=0;fontSize=8;fontColor=#000000;endArrow=none;endFill=0;strokeWidth=1;" edge="1" parent="1" source="Q0ot5jj4FvukrQf4Q_Wv-43" target="Q0ot5jj4FvukrQf4Q_Wv-43">
          <mxGeometry relative="1" as="geometry" />
        </mxCell>
        <mxCell id="Q0ot5jj4FvukrQf4Q_Wv-45" style="edgeStyle=none;rounded=0;orthogonalLoop=1;jettySize=auto;html=1;exitX=1;exitY=0.5;exitDx=0;exitDy=0;fontSize=8;fontColor=#000000;endArrow=none;endFill=0;strokeWidth=1;" edge="1" parent="1" source="Q0ot5jj4FvukrQf4Q_Wv-43" target="Q0ot5jj4FvukrQf4Q_Wv-43">
          <mxGeometry relative="1" as="geometry" />
        </mxCell>
        <mxCell id="Q0ot5jj4FvukrQf4Q_Wv-46" style="edgeStyle=orthogonalEdgeStyle;rounded=0;orthogonalLoop=1;jettySize=auto;html=1;exitX=0;exitY=0;exitDx=41;exitDy=59.71;exitPerimeter=0;fontFamily=Verdana;fontSize=11;fontColor=#000000;endArrow=classic;endFill=1;strokeWidth=1;" edge="1" parent="1" source="Q0ot5jj4FvukrQf4Q_Wv-47" target="Q0ot5jj4FvukrQf4Q_Wv-49">
          <mxGeometry relative="1" as="geometry">
            <Array as="points">
              <mxPoint x="652.51" y="3829.75" />
              <mxPoint x="651.51" y="3829.75" />
            </Array>
          </mxGeometry>
        </mxCell>
        <mxCell id="Q0ot5jj4FvukrQf4Q_Wv-47" value="$$GCN$$" style="shape=cube;whiteSpace=wrap;html=1;boundedLbl=1;backgroundOutline=1;darkOpacity=0.05;darkOpacity2=0.1;fontSize=1;strokeColor=#b46504;strokeWidth=1;size=3;fillColor=#fad7ac;" vertex="1" parent="1">
          <mxGeometry x="611.94" y="3757.75" width="79" height="59.71" as="geometry" />
        </mxCell>
        <mxCell id="Q0ot5jj4FvukrQf4Q_Wv-48" style="edgeStyle=orthogonalEdgeStyle;rounded=0;orthogonalLoop=1;jettySize=auto;html=1;exitX=0.5;exitY=1;exitDx=0;exitDy=0;entryX=0.5;entryY=0;entryDx=0;entryDy=0;fontFamily=Verdana;fontSize=11;fontColor=#000000;endArrow=classic;endFill=1;strokeWidth=1;" edge="1" parent="1" source="Q0ot5jj4FvukrQf4Q_Wv-49" target="Q0ot5jj4FvukrQf4Q_Wv-58">
          <mxGeometry relative="1" as="geometry" />
        </mxCell>
        <mxCell id="Q0ot5jj4FvukrQf4Q_Wv-49" value="Batch Norm" style="rounded=1;whiteSpace=wrap;html=1;fontSize=11;strokeColor=#314354;strokeWidth=1;horizontal=1;fillColor=#647687;fontColor=#ffffff;" vertex="1" parent="1">
          <mxGeometry x="611.94" y="3836.75" width="79.77" height="22" as="geometry" />
        </mxCell>
        <mxCell id="Q0ot5jj4FvukrQf4Q_Wv-50" style="edgeStyle=none;rounded=0;orthogonalLoop=1;jettySize=auto;html=1;entryX=0.99;entryY=0.271;entryDx=0;entryDy=0;entryPerimeter=0;fontFamily=Verdana;fontSize=11;fontColor=#000000;endArrow=classic;endFill=1;strokeWidth=1;exitX=0;exitY=0.5;exitDx=0;exitDy=0;" edge="1" parent="1" source="Q0ot5jj4FvukrQf4Q_Wv-63" target="Q0ot5jj4FvukrQf4Q_Wv-47">
          <mxGeometry relative="1" as="geometry">
            <mxPoint x="812.51" y="3786.9775024151" as="sourcePoint" />
          </mxGeometry>
        </mxCell>
        <mxCell id="Q0ot5jj4FvukrQf4Q_Wv-51" value="Addtion" style="rounded=1;whiteSpace=wrap;html=1;fontSize=8;strokeColor=#314354;strokeWidth=1;horizontal=0;fillColor=#647687;fontColor=#ffffff;" vertex="1" parent="1">
          <mxGeometry x="866.94" y="3822.75" width="28" height="82" as="geometry" />
        </mxCell>
        <mxCell id="Q0ot5jj4FvukrQf4Q_Wv-52" value="$$A$$" style="text;html=1;strokeColor=none;fillColor=none;align=center;verticalAlign=middle;whiteSpace=wrap;rounded=0;" vertex="1" parent="1">
          <mxGeometry x="711.51" y="3784.75" width="60" height="30" as="geometry" />
        </mxCell>
        <mxCell id="Q0ot5jj4FvukrQf4Q_Wv-53" style="edgeStyle=none;rounded=0;orthogonalLoop=1;jettySize=auto;html=1;entryX=0.5;entryY=1;entryDx=0;entryDy=0;fontFamily=Verdana;fontSize=11;fontColor=#000000;endArrow=none;endFill=0;strokeWidth=1;" edge="1" parent="1" source="Q0ot5jj4FvukrQf4Q_Wv-52" target="Q0ot5jj4FvukrQf4Q_Wv-52">
          <mxGeometry relative="1" as="geometry" />
        </mxCell>
        <mxCell id="Q0ot5jj4FvukrQf4Q_Wv-54" style="edgeStyle=orthogonalEdgeStyle;rounded=0;orthogonalLoop=1;jettySize=auto;html=1;exitX=0.5;exitY=0;exitDx=0;exitDy=0;entryX=0;entryY=0;entryDx=79;entryDy=31.355;entryPerimeter=0;fontFamily=Verdana;fontSize=11;fontColor=#000000;endArrow=classic;endFill=1;strokeWidth=1;" edge="1" parent="1" source="Q0ot5jj4FvukrQf4Q_Wv-56" target="Q0ot5jj4FvukrQf4Q_Wv-47">
          <mxGeometry relative="1" as="geometry" />
        </mxCell>
        <mxCell id="Q0ot5jj4FvukrQf4Q_Wv-55" style="edgeStyle=orthogonalEdgeStyle;rounded=0;orthogonalLoop=1;jettySize=auto;html=1;exitX=0.5;exitY=1;exitDx=0;exitDy=0;entryX=0;entryY=0;entryDx=32.715;entryDy=0;entryPerimeter=0;fontFamily=Verdana;fontSize=11;fontColor=#000000;endArrow=classic;endFill=1;strokeWidth=1;" edge="1" parent="1" source="Q0ot5jj4FvukrQf4Q_Wv-56" target="Q0ot5jj4FvukrQf4Q_Wv-60">
          <mxGeometry relative="1" as="geometry" />
        </mxCell>
        <mxCell id="Q0ot5jj4FvukrQf4Q_Wv-56" value="Adjacency&lt;br&gt;Learning" style="rounded=1;whiteSpace=wrap;html=1;fontSize=11;strokeColor=#23445d;strokeWidth=1;horizontal=1;fillColor=#bac8d3;" vertex="1" parent="1">
          <mxGeometry x="718.94" y="3812.04" width="70" height="30.78" as="geometry" />
        </mxCell>
        <mxCell id="Q0ot5jj4FvukrQf4Q_Wv-57" style="rounded=0;orthogonalLoop=1;jettySize=auto;html=1;exitX=1;exitY=0.5;exitDx=0;exitDy=0;fontFamily=Verdana;fontSize=11;fontColor=#000000;endArrow=classic;endFill=1;strokeWidth=1;" edge="1" parent="1" source="Q0ot5jj4FvukrQf4Q_Wv-58" target="Q0ot5jj4FvukrQf4Q_Wv-60">
          <mxGeometry relative="1" as="geometry" />
        </mxCell>
        <mxCell id="Q0ot5jj4FvukrQf4Q_Wv-58" value="ReLU" style="rounded=1;whiteSpace=wrap;html=1;fontSize=11;strokeColor=#314354;strokeWidth=1;horizontal=1;fillColor=#647687;fontColor=#ffffff;" vertex="1" parent="1">
          <mxGeometry x="611.94" y="3874.68" width="79.77" height="22" as="geometry" />
        </mxCell>
        <mxCell id="Q0ot5jj4FvukrQf4Q_Wv-59" style="rounded=0;orthogonalLoop=1;jettySize=auto;html=1;exitX=0;exitY=0;exitDx=68.43;exitDy=20.855;exitPerimeter=0;entryX=0;entryY=0.5;entryDx=0;entryDy=0;fontFamily=Verdana;fontSize=11;fontColor=#000000;endArrow=classic;endFill=1;strokeWidth=1;" edge="1" parent="1" source="Q0ot5jj4FvukrQf4Q_Wv-60" target="Q0ot5jj4FvukrQf4Q_Wv-65">
          <mxGeometry relative="1" as="geometry" />
        </mxCell>
        <mxCell id="Q0ot5jj4FvukrQf4Q_Wv-60" value="$$GCN$$" style="shape=cube;whiteSpace=wrap;html=1;boundedLbl=1;backgroundOutline=1;darkOpacity=0.05;darkOpacity2=0.1;fontSize=1;strokeColor=#3A5431;strokeWidth=1;size=3;fillColor=#6d8764;fontColor=#ffffff;" vertex="1" parent="1">
          <mxGeometry x="723.0800000000002" y="3866.04" width="68.43" height="38.71" as="geometry" />
        </mxCell>
        <mxCell id="Q0ot5jj4FvukrQf4Q_Wv-61" value="" style="edgeStyle=none;rounded=0;orthogonalLoop=1;jettySize=auto;html=1;fontFamily=Verdana;fontSize=11;fontColor=#000000;endArrow=classic;endFill=1;strokeWidth=1;" edge="1" parent="1" source="Q0ot5jj4FvukrQf4Q_Wv-63" target="Q0ot5jj4FvukrQf4Q_Wv-56">
          <mxGeometry relative="1" as="geometry" />
        </mxCell>
        <mxCell id="Q0ot5jj4FvukrQf4Q_Wv-62" style="edgeStyle=orthogonalEdgeStyle;rounded=0;orthogonalLoop=1;jettySize=auto;html=1;exitX=1;exitY=1;exitDx=0;exitDy=0;entryX=0.5;entryY=0;entryDx=0;entryDy=0;fontFamily=Verdana;fontSize=11;fontColor=#000000;endArrow=classic;endFill=1;strokeWidth=1;" edge="1" parent="1" source="Q0ot5jj4FvukrQf4Q_Wv-63" target="Q0ot5jj4FvukrQf4Q_Wv-51">
          <mxGeometry relative="1" as="geometry" />
        </mxCell>
        <mxCell id="Q0ot5jj4FvukrQf4Q_Wv-63" value="$$V$$" style="ellipse;whiteSpace=wrap;html=1;aspect=fixed;fontFamily=Verdana;fontSize=11;fontColor=#000000;strokeColor=default;strokeWidth=1;" vertex="1" parent="1">
          <mxGeometry x="815.51" y="3760.54" width="27.21" height="27.21" as="geometry" />
        </mxCell>
        <mxCell id="Q0ot5jj4FvukrQf4Q_Wv-64" style="edgeStyle=orthogonalEdgeStyle;rounded=0;orthogonalLoop=1;jettySize=auto;html=1;exitX=1;exitY=0.5;exitDx=0;exitDy=0;fontFamily=Verdana;fontSize=11;fontColor=#000000;endArrow=classic;endFill=1;strokeWidth=1;" edge="1" parent="1" source="Q0ot5jj4FvukrQf4Q_Wv-65" target="Q0ot5jj4FvukrQf4Q_Wv-51">
          <mxGeometry relative="1" as="geometry" />
        </mxCell>
        <mxCell id="Q0ot5jj4FvukrQf4Q_Wv-65" value="Batch Norm" style="rounded=1;whiteSpace=wrap;html=1;fontSize=8;strokeColor=#314354;strokeWidth=1;horizontal=0;fillColor=#647687;fontColor=#ffffff;" vertex="1" parent="1">
          <mxGeometry x="806.51" y="3822.75" width="28" height="82" as="geometry" />
        </mxCell>
        <mxCell id="Q0ot5jj4FvukrQf4Q_Wv-66" value="" style="group" vertex="1" connectable="0" parent="1">
          <mxGeometry x="1002.94" y="3802.04" width="98" height="99" as="geometry" />
        </mxCell>
        <mxCell id="Q0ot5jj4FvukrQf4Q_Wv-67" value="$$GCN$$" style="shape=cube;whiteSpace=wrap;html=1;boundedLbl=1;backgroundOutline=1;darkOpacity=0.05;darkOpacity2=0.1;fontSize=1;strokeColor=#3A5431;strokeWidth=1;size=3;fillColor=#6d8764;fontColor=#ffffff;" vertex="1" parent="Q0ot5jj4FvukrQf4Q_Wv-66">
          <mxGeometry width="86.98876404494382" height="79.47418660930359" as="geometry" />
        </mxCell>
        <mxCell id="Q0ot5jj4FvukrQf4Q_Wv-68" value="$$Gnn&lt;br&gt;&lt;br&gt;Block$$" style="shape=cube;whiteSpace=wrap;html=1;boundedLbl=1;backgroundOutline=1;darkOpacity=0.05;darkOpacity2=0.1;fontSize=1;strokeColor=#b46504;strokeWidth=1;size=3;fillColor=#fad7ac;" vertex="1" parent="Q0ot5jj4FvukrQf4Q_Wv-66">
          <mxGeometry x="11.01123595505618" y="19.52581339069637" width="86.98876404494382" height="79.47418660930359" as="geometry" />
        </mxCell>
        <mxCell id="Q0ot5jj4FvukrQf4Q_Wv-69" style="rounded=0;orthogonalLoop=1;jettySize=auto;html=1;exitX=0;exitY=0.5;exitDx=0;exitDy=0;entryX=1;entryY=0;entryDx=0;entryDy=0;endArrow=none;endFill=0;strokeWidth=1;fillColor=#6d8764;strokeColor=#3A5431;" edge="1" parent="1" source="Q0ot5jj4FvukrQf4Q_Wv-71" target="Q0ot5jj4FvukrQf4Q_Wv-94">
          <mxGeometry relative="1" as="geometry" />
        </mxCell>
        <mxCell id="Q0ot5jj4FvukrQf4Q_Wv-70" style="edgeStyle=none;rounded=0;orthogonalLoop=1;jettySize=auto;html=1;exitX=1;exitY=0.5;exitDx=0;exitDy=0;entryX=0;entryY=0;entryDx=0;entryDy=0;endArrow=none;endFill=0;strokeWidth=1;fillColor=#6d8764;strokeColor=#3A5431;" edge="1" parent="1" source="Q0ot5jj4FvukrQf4Q_Wv-71" target="Q0ot5jj4FvukrQf4Q_Wv-87">
          <mxGeometry relative="1" as="geometry" />
        </mxCell>
        <mxCell id="Q0ot5jj4FvukrQf4Q_Wv-71" value="" style="ellipse;whiteSpace=wrap;html=1;aspect=fixed;fillColor=#6d8764;strokeColor=#3A5431;fontColor=#ffffff;strokeWidth=1;" vertex="1" parent="1">
          <mxGeometry x="406" y="4006.66" width="10" height="10" as="geometry" />
        </mxCell>
        <mxCell id="Q0ot5jj4FvukrQf4Q_Wv-72" style="edgeStyle=orthogonalEdgeStyle;rounded=0;orthogonalLoop=1;jettySize=auto;html=1;exitX=1;exitY=0.5;exitDx=0;exitDy=0;fontFamily=Verdana;fontSize=11;fontColor=#000000;endArrow=classic;endFill=1;strokeWidth=1;" edge="1" parent="1" source="Q0ot5jj4FvukrQf4Q_Wv-73">
          <mxGeometry relative="1" as="geometry">
            <mxPoint x="468.5999999999999" y="4038.7" as="targetPoint" />
          </mxGeometry>
        </mxCell>
        <mxCell id="Q0ot5jj4FvukrQf4Q_Wv-73" value="" style="ellipse;whiteSpace=wrap;html=1;aspect=fixed;fillColor=#6d8764;strokeColor=#3A5431;fontColor=#ffffff;strokeWidth=1;" vertex="1" parent="1">
          <mxGeometry x="434.00000000000006" y="4033.66" width="10" height="10" as="geometry" />
        </mxCell>
        <mxCell id="Q0ot5jj4FvukrQf4Q_Wv-74" style="edgeStyle=none;rounded=0;orthogonalLoop=1;jettySize=auto;html=1;exitX=1;exitY=0.5;exitDx=0;exitDy=0;entryX=0;entryY=1;entryDx=0;entryDy=0;endArrow=none;endFill=0;strokeWidth=1;fillColor=#6d8764;strokeColor=#3A5431;" edge="1" parent="1" source="Q0ot5jj4FvukrQf4Q_Wv-75" target="Q0ot5jj4FvukrQf4Q_Wv-89">
          <mxGeometry relative="1" as="geometry" />
        </mxCell>
        <mxCell id="Q0ot5jj4FvukrQf4Q_Wv-75" value="" style="ellipse;whiteSpace=wrap;html=1;aspect=fixed;fillColor=#6d8764;strokeColor=#3A5431;fontColor=#ffffff;strokeWidth=1;" vertex="1" parent="1">
          <mxGeometry x="406" y="4059.66" width="10" height="10" as="geometry" />
        </mxCell>
        <mxCell id="Q0ot5jj4FvukrQf4Q_Wv-76" style="edgeStyle=none;rounded=0;orthogonalLoop=1;jettySize=auto;html=1;exitX=0.5;exitY=1;exitDx=0;exitDy=0;entryX=0.177;entryY=0.273;entryDx=0;entryDy=0;entryPerimeter=0;endArrow=none;endFill=0;strokeWidth=1;fillColor=#6d8764;strokeColor=#3A5431;" edge="1" parent="1" source="Q0ot5jj4FvukrQf4Q_Wv-77" target="Q0ot5jj4FvukrQf4Q_Wv-91">
          <mxGeometry relative="1" as="geometry" />
        </mxCell>
        <mxCell id="Q0ot5jj4FvukrQf4Q_Wv-77" value="" style="ellipse;whiteSpace=wrap;html=1;aspect=fixed;fillColor=#6d8764;strokeColor=#3A5431;fontColor=#ffffff;strokeWidth=1;" vertex="1" parent="1">
          <mxGeometry x="376" y="4033.66" width="10" height="10" as="geometry" />
        </mxCell>
        <mxCell id="Q0ot5jj4FvukrQf4Q_Wv-78" style="edgeStyle=none;rounded=0;orthogonalLoop=1;jettySize=auto;html=1;exitX=0.5;exitY=0;exitDx=0;exitDy=0;entryX=0.5;entryY=1;entryDx=0;entryDy=0;endArrow=none;endFill=0;strokeWidth=1;fillColor=#6d8764;strokeColor=#3A5431;" edge="1" parent="1" source="Q0ot5jj4FvukrQf4Q_Wv-85" target="Q0ot5jj4FvukrQf4Q_Wv-71">
          <mxGeometry relative="1" as="geometry" />
        </mxCell>
        <mxCell id="Q0ot5jj4FvukrQf4Q_Wv-79" style="edgeStyle=none;rounded=0;orthogonalLoop=1;jettySize=auto;html=1;exitX=1;exitY=0;exitDx=0;exitDy=0;entryX=0;entryY=1;entryDx=0;entryDy=0;endArrow=none;endFill=0;strokeWidth=1;fillColor=#6d8764;strokeColor=#3A5431;" edge="1" parent="1" source="Q0ot5jj4FvukrQf4Q_Wv-85" target="Q0ot5jj4FvukrQf4Q_Wv-87">
          <mxGeometry relative="1" as="geometry" />
        </mxCell>
        <mxCell id="Q0ot5jj4FvukrQf4Q_Wv-80" style="edgeStyle=none;rounded=0;orthogonalLoop=1;jettySize=auto;html=1;exitX=1;exitY=0.5;exitDx=0;exitDy=0;entryX=0;entryY=0.5;entryDx=0;entryDy=0;endArrow=none;endFill=0;strokeWidth=1;fillColor=#6d8764;strokeColor=#3A5431;" edge="1" parent="1" source="Q0ot5jj4FvukrQf4Q_Wv-85" target="Q0ot5jj4FvukrQf4Q_Wv-73">
          <mxGeometry relative="1" as="geometry" />
        </mxCell>
        <mxCell id="Q0ot5jj4FvukrQf4Q_Wv-81" style="edgeStyle=none;rounded=0;orthogonalLoop=1;jettySize=auto;html=1;exitX=1;exitY=1;exitDx=0;exitDy=0;entryX=0;entryY=0;entryDx=0;entryDy=0;endArrow=none;endFill=0;strokeWidth=1;fillColor=#6d8764;strokeColor=#3A5431;" edge="1" parent="1" source="Q0ot5jj4FvukrQf4Q_Wv-85" target="Q0ot5jj4FvukrQf4Q_Wv-89">
          <mxGeometry relative="1" as="geometry" />
        </mxCell>
        <mxCell id="Q0ot5jj4FvukrQf4Q_Wv-82" style="edgeStyle=none;rounded=0;orthogonalLoop=1;jettySize=auto;html=1;exitX=0.5;exitY=1;exitDx=0;exitDy=0;entryX=0.5;entryY=0;entryDx=0;entryDy=0;endArrow=none;endFill=0;strokeWidth=1;fillColor=#6d8764;strokeColor=#3A5431;" edge="1" parent="1" source="Q0ot5jj4FvukrQf4Q_Wv-85" target="Q0ot5jj4FvukrQf4Q_Wv-75">
          <mxGeometry relative="1" as="geometry" />
        </mxCell>
        <mxCell id="Q0ot5jj4FvukrQf4Q_Wv-83" style="edgeStyle=none;rounded=0;orthogonalLoop=1;jettySize=auto;html=1;exitX=0;exitY=1;exitDx=0;exitDy=0;entryX=1;entryY=0;entryDx=0;entryDy=0;endArrow=none;endFill=0;strokeWidth=1;fillColor=#6d8764;strokeColor=#3A5431;" edge="1" parent="1" source="Q0ot5jj4FvukrQf4Q_Wv-85" target="Q0ot5jj4FvukrQf4Q_Wv-91">
          <mxGeometry relative="1" as="geometry" />
        </mxCell>
        <mxCell id="Q0ot5jj4FvukrQf4Q_Wv-84" style="edgeStyle=none;rounded=0;orthogonalLoop=1;jettySize=auto;html=1;exitX=0;exitY=0.5;exitDx=0;exitDy=0;entryX=1;entryY=0.5;entryDx=0;entryDy=0;endArrow=none;endFill=0;strokeWidth=1;fillColor=#6d8764;strokeColor=#3A5431;" edge="1" parent="1" source="Q0ot5jj4FvukrQf4Q_Wv-85" target="Q0ot5jj4FvukrQf4Q_Wv-77">
          <mxGeometry relative="1" as="geometry" />
        </mxCell>
        <mxCell id="Q0ot5jj4FvukrQf4Q_Wv-85" value="" style="ellipse;whiteSpace=wrap;html=1;aspect=fixed;fillColor=#6d8764;strokeColor=#3A5431;fontColor=#ffffff;strokeWidth=1;" vertex="1" parent="1">
          <mxGeometry x="406" y="4033.66" width="10" height="10" as="geometry" />
        </mxCell>
        <mxCell id="Q0ot5jj4FvukrQf4Q_Wv-86" style="edgeStyle=none;rounded=0;orthogonalLoop=1;jettySize=auto;html=1;exitX=1;exitY=1;exitDx=0;exitDy=0;entryX=0.5;entryY=0;entryDx=0;entryDy=0;endArrow=none;endFill=0;strokeWidth=1;fillColor=#6d8764;strokeColor=#3A5431;" edge="1" parent="1" source="Q0ot5jj4FvukrQf4Q_Wv-87" target="Q0ot5jj4FvukrQf4Q_Wv-73">
          <mxGeometry relative="1" as="geometry" />
        </mxCell>
        <mxCell id="Q0ot5jj4FvukrQf4Q_Wv-87" value="" style="ellipse;whiteSpace=wrap;html=1;aspect=fixed;fillColor=#6d8764;strokeColor=#3A5431;fontColor=#ffffff;strokeWidth=1;" vertex="1" parent="1">
          <mxGeometry x="428.00000000000006" y="4013.66" width="10" height="10" as="geometry" />
        </mxCell>
        <mxCell id="Q0ot5jj4FvukrQf4Q_Wv-88" style="edgeStyle=none;rounded=0;orthogonalLoop=1;jettySize=auto;html=1;exitX=1;exitY=0;exitDx=0;exitDy=0;entryX=0.5;entryY=1;entryDx=0;entryDy=0;endArrow=none;endFill=0;strokeWidth=1;fillColor=#6d8764;strokeColor=#3A5431;" edge="1" parent="1" source="Q0ot5jj4FvukrQf4Q_Wv-89" target="Q0ot5jj4FvukrQf4Q_Wv-73">
          <mxGeometry relative="1" as="geometry" />
        </mxCell>
        <mxCell id="Q0ot5jj4FvukrQf4Q_Wv-89" value="" style="ellipse;whiteSpace=wrap;html=1;aspect=fixed;fillColor=#6d8764;strokeColor=#3A5431;fontColor=#ffffff;strokeWidth=1;" vertex="1" parent="1">
          <mxGeometry x="428.00000000000006" y="4054.66" width="10" height="10" as="geometry" />
        </mxCell>
        <mxCell id="Q0ot5jj4FvukrQf4Q_Wv-90" style="edgeStyle=none;rounded=0;orthogonalLoop=1;jettySize=auto;html=1;exitX=1;exitY=1;exitDx=0;exitDy=0;entryX=0;entryY=0.5;entryDx=0;entryDy=0;endArrow=none;endFill=0;strokeWidth=1;fillColor=#6d8764;strokeColor=#3A5431;" edge="1" parent="1" source="Q0ot5jj4FvukrQf4Q_Wv-91" target="Q0ot5jj4FvukrQf4Q_Wv-75">
          <mxGeometry relative="1" as="geometry" />
        </mxCell>
        <mxCell id="Q0ot5jj4FvukrQf4Q_Wv-91" value="" style="ellipse;whiteSpace=wrap;html=1;aspect=fixed;fillColor=#6d8764;strokeColor=#3A5431;fontColor=#ffffff;strokeWidth=1;" vertex="1" parent="1">
          <mxGeometry x="384" y="4054.66" width="10" height="10" as="geometry" />
        </mxCell>
        <mxCell id="Q0ot5jj4FvukrQf4Q_Wv-92" style="edgeStyle=none;rounded=0;orthogonalLoop=1;jettySize=auto;html=1;exitX=0;exitY=1;exitDx=0;exitDy=0;entryX=0.5;entryY=0;entryDx=0;entryDy=0;endArrow=none;endFill=0;strokeWidth=1;fillColor=#6d8764;strokeColor=#3A5431;" edge="1" parent="1" source="Q0ot5jj4FvukrQf4Q_Wv-94" target="Q0ot5jj4FvukrQf4Q_Wv-77">
          <mxGeometry relative="1" as="geometry" />
        </mxCell>
        <mxCell id="Q0ot5jj4FvukrQf4Q_Wv-93" style="edgeStyle=none;rounded=0;orthogonalLoop=1;jettySize=auto;html=1;exitX=1;exitY=1;exitDx=0;exitDy=0;entryX=0;entryY=0;entryDx=0;entryDy=0;endArrow=none;endFill=0;strokeWidth=1;fillColor=#6d8764;strokeColor=#3A5431;" edge="1" parent="1" source="Q0ot5jj4FvukrQf4Q_Wv-94" target="Q0ot5jj4FvukrQf4Q_Wv-85">
          <mxGeometry relative="1" as="geometry" />
        </mxCell>
        <mxCell id="Q0ot5jj4FvukrQf4Q_Wv-94" value="" style="ellipse;whiteSpace=wrap;html=1;aspect=fixed;fillColor=#6d8764;strokeColor=#3A5431;fontColor=#ffffff;strokeWidth=1;" vertex="1" parent="1">
          <mxGeometry x="384" y="4013.66" width="10" height="10" as="geometry" />
        </mxCell>
        <mxCell id="Q0ot5jj4FvukrQf4Q_Wv-95" value="" style="group" vertex="1" connectable="0" parent="1">
          <mxGeometry x="174" y="4012.7" width="135.32999999999998" height="70.41999999999996" as="geometry" />
        </mxCell>
        <mxCell id="Q0ot5jj4FvukrQf4Q_Wv-96" value="" style="shape=image;verticalLabelPosition=bottom;labelBackgroundColor=#ffffff;verticalAlign=top;aspect=fixed;imageAspect=0;image=data:image/png,iVBORw0KGgoAAAANSUhEUgAAARkAAADgCAYAAAA3+hJyAAAgAElEQVR4Ae2debAU1fXHD7sgi0pAFkU2AUEWQRYR2QRZFGJYwiIWuLAZUyn1L//QhAQrEk1JQakQZTGREhVF2WSJUVkE2RQQMCKLIrIJRpEHQnB+9Tn1a9JvXr95PTPdMz3vnVPVb+ZNd98+/b33fu85526lYrFYTEwMAUPAEAgJgdIhpWvJGgKGgCGgCBjJWEEwBAyBUBEwkgkVXkvcEDAEjGSsDBgChkCoCBjJhAqvJW4IGAJGMlYGDAFDIFQEjGRChdcSNwQMASMZKwOGgCEQKgJGMqHCa4kbAoZA2aAgOHv2rGzbtk0uv/xyadSokZQpUyaopC0dQ8AQCAGBM2fOyJ49e4RB/61atZJSpUqF8BSRQCyZ//znP/Liiy/KunXrpGzZskYwoWSVJWoIBItAhQoV5KeffpK33npL3nzzTTl//nywD/j/1NImGYdgPv/8c7n55pvlmmuuCUVRS9QQMASCRaB06dJqwbRs2VKWLl0qCxcuDIVo0iKZH374QWbNmiVr166VW265RRU2NynYgmCpGQJhIoA107VrV7nuuutkzpw58vbbb8t///vfQB+ZMsn8/PPP8s9//lOWLFkiTZs2lY4dO0rFihUDVc4SMwQMgfARqF69unTv3l3KlSsns2fPlp07dwb60JRJZvv27fLSSy+pMj169JBatWoFqpglZggYAplBgIAvhsKAAQPk2LFjWq8PHz4c2MNT6l0iDrN48WKNTKNY8+bNpXz58oEo9eOPP8r777+vB1HvkydPajB5yJAh6pJVqlQpkOekksi5c+dk06ZN8s4778iNN94o/fr1E8zNbAo6bd26VZYtW6buKvmRLZ1Onz4t69evl1WrVgl6kZeY3gMHDpTevXtL5cqVswlVTj6bOvD1119rzAQLA2vj+PHjcvXVV8vIkSOlRYsWgfQKVa1aVcv08uXLZeXKldK2bVsZNmyYPi9d4JImGV56y5YtWtEuueQSdZNq1qyZrh56//79+2Xq1Kly9OhRGTdunJIKz3v99dflqaeeko8//ljuvfdeCep5fpWmouzYsUN70IjCX3nlldKmTRu/t4dyHTpR6IiJLViwQDB58auzJQcPHpQZM2bI7t27NY9uu+02VQXymzlzppLzgw8+KHXq1MmWijn3XHp7iHeCK2XuoYcekgYNGsihQ4fk+eefl0ceeUQeeOABuf3227UhTvcF6bTp3Lmz5hVGBA1ps2bN0k02+S7s77//Xj788EP58ssvpUmTJnLttdcKZJOunDhxQs000ia+07p1a2VRLKS+ffvqyy9atEgDUwScMyVkKCS3efNmjTkF8a7p6v7NN9/IG2+8IR999JFin+1YGJbta6+9phYM5Nu+fXu1bMm7bt26Sc+ePdUynT9/vnCtiT8EaNimTZsmEDhWc7169dRqueqqq2Tw4MFaHp955hkdOkJjnK5gzTBeBrKhAaPMB9GtnXRM5tNPP9WAL/3rEEEQsRiCyLghmGpUYrrUqlWrdhEzBvi1a9dOTXAsCQAIAtSLD0jwpW7dujJixAgZO3as0DpHoSVGB0xZrD0IGB2zJeQd8TksFvKEQopV5Qj5CPHQ60jPBQWXe0wSI/Ddd98pMVPWCUfQoDMGzREIh8b4yJEjGrrgM10hfQiGwbQMSaE+4qqlK0mRDCMEcVlg1vr166s/CPulK7RuGzZsUOuIl6TSuAGlPx/2pvACOjGITFoz6b5fcb6ffKCBYOQo+Ub+xedd7dq1tTHiGq41a6boEkHoYPXq1WpJ4Aa7iZu7q1Spoq4T5E0cjMY/CPnFL36hjTzP++yzz7QBSbdRSIpkiDxTwYmZUHDwEwlEpStOupAYBdUrQFijRg01FwkE03LyaZJ9BHBzP/nkEyUOLCyvRueKK67QvDt16pTmHYFLk8IRIGhOQ46rTkcHFT/eJYbIiU1yUH/27dsnTO1JV6h7DRs21PqNdbRr1y4N4KeTblIkQ0v073//W/Ly8tSy4AWxMtKVb7/99qJlwkt6xT3oMaGwAjbgc49J9hHArOdAqBBevX/EZnB5L730UjXvgzDts//m4WkAyVC+sfioC1gtbuuQJ2PBgCf1gesOHDhwsQ6loxl5RWNBGIR6Rtwv3e5s3wwBS+7du1dfHj+bLjRePl3BFANQWjlMNCwkL5LhN54L2UByHBcuXEj38XZ/GgiQd1iUdAZcdtllaoV6kQx5Rt5RIShHdG1b3hUOPBhBxOBKHaNeeI2kB2saZTwAiJ44aRBCg+D04EIwWEnpiG+SYQwEJhw+OOZbYWSQrDIUNgimKIBgcgorYMPcFG4rqMmiHez14A9hUMgTCXnm5B3lBxcriF6LRM/M5XNYMoQkinIrCVWAK3WTHkdIKQiB2PAaEPILoimqfiZ6rm+SoWCwlAMvj98N2wURj0mknJ0zBAyBzCOA10DvFW4TDfpXX32lRJaqJv/rEysiBUiGVguB6SAaLxOuiGTstCGQMQToUieusHHjRo0V0eVL4+iIc54eLypWp06d8p3nOlx5ztOSd+jQQS34sNZdcfTK9idxGdxfYj50YUMyeBuOdZOsfklZMjwIQQmOIIK+uEEo7+XLF/YyAMA9RnKFIZSZ38k7Kq1Xb2BhGtA4EWPIhBWMmc9gtjFjxsj48eNl7ty5+YKjnJ8+fbqMHj1aJkyYoLOQcQ8cwf2YN2+e3stIc0ajZyJo7VgShCT8CGSA1UHcKwhx3FvyF1cY78WNS7LP8EUy+M8wOsFWBEsGUgiC0UkDcEgP0ww/1Mv/w4qiqw4dKNhmSSWb1cFfT95RFiAZGiDyxys+Q55xjjx0XO0gGqii3giSII6IbuhAGXbr5z5PXCP+PL8xsh3dqQPEAZ2Gtqhnp3OeBpwyDnmgA/XCK/6I/ngY5AG9Qck01In0g2RIkwPhOUXFhxKl58tdYp4M4Dr98DAcLVEQJINyMDZMzJQCQON58QLxkMn0aHA91oxJ9hGgF4KeRioxBdEroEsgk94P8pXKgBUaVNlJhAADAxl+T5mC3Jje4HaXOD9o0CA9D1HGn2dsFhNO6R6GIPv06aM9aImeGcQ5LBnqA9g6BEm5d1vukA4EBGk6JBM/liZVXcgbAsqQHUK9Rw90SKVx8EUyvBCFyKsApfoi7vvorWI26QcffKDmKAUyfroCbEoEncLCMGt3YXGnZd8ziwD5QH5QKbAEOCAdt1BAyTsqD9dSeTMhtOzM3ufwkqLO05CyjAlHJoVGnEGpHIyEJy5CRXe7mBA29YSDQbGNGzf2HPoRhN48i4Yi1ak8vtwlHoIl4WWyBfESMDFzkyic+Mm0iO5nwaD01eMbAiaElEwcIAgdLQ1vBDDpmcPGKFHcCmIW8XlH4JCKwlQU5qXRUJgkRoC6QCAaYqbs08i6BeJmfhHkw7IMTFROxcpwp1nYd6f+Uw9TEV8kw4vwkrBZGAI4zNxlsh8BJrrKAdER2JrlJWBSZqNef/31BUZAOtfaZ2YRIO+YFNm/f391h5h2QgzBEcoN0w4w61lThsbE3SI719lnfgSwEFmtjgaVaTQM73dbEhA3o3G5Lmw3jvpPvYRsUhFfJJNKwsneQ4/DqFGjtBCyaBUTMXkpXLQ1a9Yo0BRkfGiuzbQANCY/FYjvHO5Mz7Q+PA/rEp0gYb6jU6qtTTr6Ex/DJWGtWMx7Difv6P7l4Byz2Z2RpOk8r6Tci9U3ceJEjWExgx1iQbDoV6xYoXWDNXrAFhcrqhIpzXCFnn76aXn33XflH//4hx5UGkxyuiC7dOlyMeKdKUAJrtESs5Yxy0xgoiJTpkzRngeWf2Dpwky6AOhE6+boxGxZBOxwS9CJxYaC6tLUxIv4QxB10qRJusgSOLG+DAWfY/jw4RpUtWB9ESDGncbiw/ojL9lJ4NFHH9UeJBo3ViWYPHmyup9RJhh9pZgP2bFjR2zgwIGxsmXLsjJOrE2bNrEVK1b4uNMuMQQMgVxD4MyZM7EXXnghVqtWLa3vlStXjv3ud7+LnTx5MqVXiYy7FEfi9q8hYAgUEwSMZIpJRtprGAJRRcAXyTCOhXiJ4+PTXeZ3yHNUX9z0MgQMAW8EiPEQY6POI4zDYflPutNTEV8kk0rCdo8hYAgYAiBgJGPlwBAwBEJFwEgmVHgtcUPAEDCSsTJgCBgCoSJgJBMqvJa4IWAIGMlYGTAEDIFQETCSCRVeS9wQMASMZKwMGAKGQKgIGMmECq8lbggYAkYyVgYMAUMgVASMZEKF1xI3BAwBIxkrA4aAIRAqAkYyocJriRsChoCRjJUBQ8AQCBUBI5lQ4bXEDQFDwEjGyoAhYAiEioCRTKjwWuKGgCFgJGNlwBAwBEJFwEgmVHgtcUPAEDCSsTJgCBgCoSIQqc3d3G/Klrhsw/nOO+9I586ddcOy8uXLuy/J2Pcff/xRVq9eLe+9957u0Ohswzp48GDp1q2bbj6XMWXiHgRObA27bNky3S52wIABUqFChbirMvMvm86tX79eVq1apVsagxs7SQ4cOFA3KbP9y5PPBzZyY8O+pUuXys6dO3WLX/aKZ6/skSNH6ja2pUqVSj7hDN4ROZKhULJj44svvqi75tWtW1c6dOiQQUjyP+rAgQMyffp0OXjwoIwdO1ZJhSvYJXHq1KlawfmdFd0zKeBEoZs1a5YsWLBAt+697rrrMqlCvmeBz4wZM2T37t1y7733aqPABZDfzJkzdatatlStU6dOvvvsn8IRYIvmtWvXKq6Ur4ceekgaNGgghw4dkueff14eeeQReeCBB+T222+P9Da1vtylb7/9Vr744gth83Rkz549cvjw4cLRSfEMjP3qq68qyVSsWDHlLRhSfHyB206ePCkvv/yyWjE33nij3HDDDYI1xcFWsGybSyV64403dEPyAgmE9AP7X/NMLD22qQCrbAqWHdvSYsG0adNG2rdvfxEnLL2ePXsK+5vPnz9f9xLPpq659OwdO3bItGnTtIHr16+f1KtXT7Ba2KIWK5p8f+aZZ2TdunWB7stOA/bll19qnQcv9t5me2b2Wk9FfJFMKgmncg/g3XXXXXL//fdrJa5Vq1YqyQRyD3twb9myRZYvX64VplWrVuLey5nvbdu2lQsXLqjFtW3btkAzOtFLYA0MGzZMxo0bJ3379hWsvWwJOLEvN2SLaQ9O1atXv6gOe3VBPGXKlBE2jd+8ebO6nBcvsC+eCHz33XdKzFirzZs3132P3HteQzgdO3aUI0eOyOLFi/XTM6EI/OiLZEri5m5YbVgK+/fvV/8XAnRncunSpbVFqVGjhrDhPXERx9KLQL5mTIUffvhBXSGsW8iOTcHicWIjQBoMrtm0aZNZMz5yh3JHHBCXCTfYTdzcXqVKFXWdIG/iYJ9++qmPVP1dYpu7+cMp7auOHTsmH3/8sRC8pPKQqfEC+dKi0OpgyZw4cSL+kmL/P+9MDA2XCQuratWqBd75iiuuUJxOnTqlVg+BS5PCESCYT4yL2EulSpWEchbvEkMENWvW1IOyum/fvpTdmcI1CeaML0smmEflVipUHscyufTSSz3jQ8RmLr/8ci0IxKhKYuWBYDkQKgRHvDg4gSPmPYdJ4QhAMsRBIW5ibjRwbuuQO7FgwBPy4To6KLAqoyhGMh65QpyBoC+ZRitMCx3fknAbBYCYA595eXlCFy4xmpIiDk6QMTEqLD4vkqFLHZzAkOAh1mFJwinZ8gBGEDG4QjC4SpBKvIA1wwLOnDmjRP/TTz/FXxKJ/41kPLKBCoBpX1Q0nYynAvFJawIxEZkvKQJOEAaFPJG4cYK4sRKJNZh4I4AlQ49OUZZxuXLltPzRuNHj6Fje3qlm71cjmexhb082BEoEApEbjFciULeXzAgCdKkTPN24caO6cXT5EkNzxDlPjxcub6dOnfKd5zpiI5zHFWFQKD1lUR9h67xfVD7NkvHICYJsFEYCa36FmATxm/gAnd/7c/E6B6dkpgvQ+0SMAVM/bCEYz2C2MWPGyPjx42Xu3Ln5gqOcZzT36NGjZcKECTJnzpx853E/5s2bp/cyipkR3pkIWkN49FpCaH6EckrckLhXFMVIxiNXaKmoDGQeBY0uQq+gGr4w5/iEZMhkrwCdxyOKxU/gRGASkiGGBRZe8RmC4pwjfgOuEDjjjMIW8o6uYHRDB6wSt37u8+Rh/Hl+Y+QruhNDIuZGWmGLuzcOHYj3eQXK0Z/4FnnAOCSvoHvYuvpJ39ylQlCiFaG3ZM2aNVr4vAKVBOjovqUAcL3bFC8k2WL3M2M1mKxHJSZQmQgnguJUBiy+TLgcDAxk+D0VEXJjeoM7jzg/aNAgPQ9Rxp9noCUTTukehiD79OmjZSLsTMSSwTIBW4cg6clzN2CUOQgI0nRIxqsHNGxd/aRvJFMISlSEFi1aXBzsRCtGxruFloSoPgWUod/cU9KESsu7gw2WAAek4xYqCjhRebiWypsJoWUfMmSIHl7PK+o8Ll2PHj308Lo/rN9wQ2ngODZs2KCzsOnpdLuYELYzRonJk40bN1Z8w9IpnXTDt1nT0S6L99I6MCGS1g4/HJPZbbLSsjD0G7++UaNGSkjcU9IEl7J169bSsGFDxQis4nH66quvtKLUr19fWrZs6TkquKThVtT7QtQEoiFmRvPSoLkF4nYmLTKH7tprr82IC+rWwe93I5lCkCJm0K5dO52AiFnK0Hn3iEr8ZOYrUaEwo5kYWJKCvg5s4MS79+/fX8cIgQnYOELlADvM+t69eyum7hbZuc4+8yOAhdi9e3dtvJiAumvXrnwTcCFu5tZxXabcuPwa+v8vkiSDaUjXIwWU7xxYDpkW3J8RI0bobFdiM8zKxkwl7sD0eioPSz4MHTo0Yy6AGwOC0bghmM18zxZOBL1xS7p27armPSa+gxPdvxycA0viDCb+EMDqmzhxorrhzGCHWBAG6q1YsULLIWv0gG2UG7hIxWQIrjEpccmSJbooFGvYIE8++aQG33r16iVNmzbVQJeeyMAfXCGe76yHQpcmghlLtyYZTFAxk4JlRevm4MQscOTpp59WtwTia9asWUa7NHErJ02apIsssaAX68tQ8DmGDx+uQVXIyMQ/Alh8WH/k5cKFC+XRRx/VHiTG97AqwOTJk9X9jDLB6NvGfMjhw4djDz/8cKx69eoxEYkNHTo0tn37dh932iWGgCGQawicP38+tnLlyliXLl20vjdq1Cj27LPPxvLy8lJ6lUi6S/653q40BAyBqCNgJBP1HDL9DIEcR8BIJscz0NQ3BKKOgJFM1HPI9DMEchwBI5kcz0BT3xCIOgJGMlHPIdPPEMhxBIxkcjwDTX1DIOoI+CIZJr1lYnO3qINl+hkCJQEBRmsX283dSkIG2jsaAiUNAV+WTEkDxd7XEDAEgkPAF8mUxB0kg4PYUjIEcgsB5kIxF401ahDWq2nSpEnK69X4Ipncgsi0NQQMgSghYCQTpdwwXQyBYoiAkUwxzFR7JUMgSggYyUQpN0wXQ6AYImAkUwwz1V7JEIgSAkYyUcoN08UQKIYIGMkUw0y1VzIEooSAkUyUcsN0MQSKIQJGMsUwU+2VDIEoIWAkE6XcMF0MgWKIgJFMMcxUeyVDIEoIGMlEKTdMF0OgGCIQqc3d3PieO3dOt+F85513pHPnzrpTY/ny5d2XZOw7m86tXr1a3nvvPd3J0tmGdfDgwdKtWzdhP+hMCxu8rV27Vt59913drZEtdNll81e/+pVupJYtndavXy+rVq0S8g/cWJtk4MCBuklZ5cqVMw1TsXreiRMnZOnSpbrWC/l8/fXX58T7RY5kKJRs//riiy/qrnl169aVDh06ZA3MAwcOyPTp0+XgwYMyduxYJRWUYZfEqVOn6n7Y/M5M1UwJ25U+++yzsnfvXrnvvvvk1ltv1UcvWrRIf9+8ebNub1qrVq1MqaT4zJgxQ3bv3q07a7KLJbJs2TKZOXOmblXLlqp16tTJmE7F5UE0IBD3c889p9sjgy0kkysSKZL5+uuv5YMPPtDN2StWrJjy1PKgwD958qS8/PLLasWw3/UNN9wgjjVFRn/++edaidgze9SoURnZrpZ9r1955RW1qu68807dwN7RCbLZs2ePLF68WKpXry6jR4/OyFa1WHZsS0tFuOOOO6R9+/YXccLSQye2WWXJELb2te1q/ZVQGly2I6bRYP91LEH2PM81iVRMhv1977rrLrn//vvVPcpkSxyfcbgeW7ZskeXLl2uFadWqVb7KQUVp27atXLhwQSvQtm3bhD2KwxR0Yq9wXMjSpUsLOkFwjlSrVk2JkP/feustvTYTOlERsFh4FjpBcI6gU5s2baRMmTLCpvFUGN7DpGgEWNeFMjZu3DgZOXKkWtG5aAlGimSKhj1zV3z//fcaE9q/f79cffXVusG5e2NzKjmkWKNGDWHD+61btwr3hCmkv2nTJl1vmWfXq1dPN7R3nolOFMKaNWuqlUWFduJHzjVBf2LKoxPWCq4tix3F41S7dm2hweAarg1bp6Df0dJLDwEjmULwO3bsmFoCBC+pPFWqVClwJeY/FR0XBkuGwFyYwoLuWDJUbMjESyesCCo6hISFwT1hCu9MDA3iQKeqVasWeBzWFjidOnVKdTp+/HiBa+yH4ouAkUwheUvlcSwTemouueSSAlcSC7n88sulUqVKcvjwYQm78hAjcqwAdCJuFS/xOh09ejT+kkD/h2A5EHDgiBdHJ3Q+cuSIHvHX2P/FFwEjGY+8JWZAhcZioBWmhfaq0BAPMQc+8/LyhG5lYjRhiF+dKlSocFGnM2fOZEQnyJgYFRafF8k4OoHh2bNntWs7LJzCwN7STA8BIxkP/KgAmPZUiERCMJMKxCcWBsREj0AY4ugEcSQS4iHoxCeVP2ydcCeL0smNE8SNlUhviUnJQMAXydjmbiWjMNhbGgIgQEMZ5OZukRonY1lsCASJAF3qhw4dko0bN6ob17FjR42hOc9wztPjhcvbqVOnfOe5jgaW84xPYVAoPWWlSpVykrBPHwj4smR8pFOsLsHVIKCbzNB8YhLEb9zdt0GC4uiUzNB84kVR04neJ3rAypUrFyQ8nmkRjJ82bZqMGTNGxo8fL3PnztU4m3Mx5xnNzaDFCRMmyJw5c/Kdx92cN2+e3ssgQkZ4E7g2SQ4BXyRT0jZ3o6WiMkAyFDS6s71GWhLo5RyfkAyVmvhDGOKlk1fMyNGJWAn6oFeYOtGNDvERwwILr/gMQXHOoRO4QuCM6QlbyDumg6AbOmCVuPVznwe3+PP8htuA7sSQiG+RVnEXGrQgN3czd6mQEoNZTG/JmjVrtPB5BSqZBEj3LUFZrqfyhCnMj2IQHhM1qRBF6cQAuLB1YuAfgxWpxHThJ9IJXx+dsK4y4XJQUZjESqAZcuvZs2c+PDg/aNAgPQ9Rxp9noOWAAQOE+WsQZJ8+fbRMhJnHxTFtI5lCcpWK0KJFCx09S0tGK0ZXtltoCb/55httyZs3b66Vx30+6O/oxHOoqFRodIJ03ELvDTrRlcy1WKFhCiTGc8AG4uOAdNxC649OxD24lsqbCQGDIUOG6OH1vKLO49L16NFDD6/77Td/CIRvs/rTI3JX4QYwIZLWDj8conGP7WDcClMO8OsbNWqkhOQ1AjfIF6O1ZR5QgwYNhEF26BWvE+Y9wU6uadmypecI3CB1wqVs3bq1NGzYUDHy0olZ40x+rV+/fkZ0CvL9LK30ETCSKQRDYgbt2rWTvn37asyFofNYCY4wLob5SlRyzGgmBoYV9HWeiU4QX79+/TRGhE5YU47wnWkHuHHMEoeQMqET796/f3/t+gQTZ1QyeqETehIL6d27t2KaiaCvg4l9Zh+BSJIMAU1aYwoo3zmyMXMX92TEiBFC1yexGWZlE1cg7rBu3TqtPFRmloHIlAuAe/LrX/9aF/JCB7pXHZ02bNigOhJbGDZsmLp6mShiBJdxS7p27SrowOHohH4cnANLYjgmySNAA0dsyBnI6NURkXyqmbkjUjEZgmu0xEuWLNFFob744gtF4cknn1SAe/XqJU2bNvWcGBgWXLhCPP/999+X+fPna5cmzyK+QLcmlYegYiYFV+iJJ57QtXcWLFig68tg5TBH6O6775bu3btrz1ImdcKtnDRpkq7Wx4JerC+DFcUxfPhwDapCRib+EWAcD+44KyCydAerIEIuH374ofzhD3/Qxuamm25SNzRsi9W/1gWvjBTJEHO45ZZb9JgyZUpBbbP0C3qxGBNHVIRYCC4KR1QEnXAdOUzSR4AeOALqWK4cuSqRdJdyFUzT2xAwBAoiYCRTEBP7xRAwBAJEwEgmQDAtKUPAECiIgJFMQUzsF0PAEAgQASOZAMG0pAwBQ6AgAkYyBTGxXwwBQyBABIxkAgTTkjIEDIGCCBjJFMTEfjEEDIEAETCSCRBMS8oQMAQKImAkUxAT+8UQMAQCRMBIJkAwLSlDwBAoiICRTEFM7BdDwBAIEAEjmQDBtKQMAUOgIAJGMgUxsV8MAUMgQAR8kQzrtrK2i7MK2549e3SdiwD1sKQMAUMgIgiw4FiQm7v5IpmIvLupYQgYAjmIgJFMDmaaqWwI5BICvkimpG3ulksZaLoaAkEjwFKeLKfauHFjTZr9vpo0aaJLzqbyLF8kk0rCdo8hYAgYAiBgJGPlwBAwBEJFwEgmVHgtcUPAEDCSsTJgCBgCoSJgJBMqvJa4IWAIGMlYGTAEDIFQETCSCRVeS9wQMAQitYOkkx1sz3n06FFZv3699s23b99eGKuTTUGnY8eO6T7PjCPo0KFDxva/TvTebG6/ceNGOXXqlNx4441Sr149YefBbArTT9j/+rvvvlOd6tevn3WdsolHEM++cOGCDvXfunWrsB86+7Ozs2kuSCQtmZMnT8pzzz0nEydOlDFjxsjs2bN1o/FsAkqFmTlzpkyYMEHuuece+dvf/ibM6cqmnDlzRtgL+7e//a1ueM9e1Pv37823FCMAABEeSURBVM+mSoJOCxcuVJ3YWvXxxx+XvXv3ZlWn4vBw8nXy5MkydOhQefDBB+X111/XfbFz4d0iSTI//PCD7Nu3TyAbNhg/ceKEnD59Oqt4YinE6/Tjjz9mVae8vDydqApeCBYEemZTIBk2iXcm06Kbo1829UKHf/3rX/Laa69pPmKZ5pLQyGFJI2BM3eAzFySS7lLdunWVsY8fPy4VK1aUnj17Zt01qV27tloLZDTuUq9evYTh1tkUzGb0+Oyzz+TIkSPyy1/+UoeDZ1Onyy67TG699VbZvXu3HDx4UHVq0KBBNlWSs2fPyqJFi+TPf/6z7Nq1S4YNGyZ/+tOf5Nprr82qXsk8HF0HDx4sNCxXX3213HzzzVK1atVkksjatZEkmfLly2vhpNJERdDpjjvu0CMqOpUuXVpuuukmPaKkE/Gqv//971FRSVt8SNixrrD2nO+RUbIIRSBv3HSOXJNIkkyugWj6RhuBatWqSY8ePWTnzp3qKt15553SsGHDaCtdjLQzkilGmWmv4o0AFl+7du1kzpw53hfYr6EiEMnAb6hvbIkbAoZARhGIpCVj42T8lwEbJ+Mfq/grKWeHDh3SMT2XXHKJdOrUScegxF8Xhf9tnEzAuWDjZPwBShemjZPxh5XXVXS1T58+XUaPHq3jn3CnotDd7qWrjZPxQiWN38jo+DEpNk6mIKA2TqYgJsn8Qg8T3ez0NlG+GFwZ1bEnNk4mmZz1ca2Nk/EBkoia9jZOxh9WXlexxOSgQYN0sCdD9BmPxdijKEouj5ORmA85fPhw7OGHH45Vr16dYZKxoUOHxrZv3+7jTrvEEDAEcg2B8+fPx1auXBnr0qWL1vdGjRrFnn322VheXl5Kr2K9S1FstkwnQ6AYIeCLZGxzt2KU4/YqRSLA6OApU6boTOeHHnqoxE3wDHpzt0h2YRdZCuwCQyAkBOgq3r59uyxZskSX0CC4zhIazBdiaolJ8ghEkmRsnIz/jLRxMv6x8nMlo4MrVKhwkVCYoFulShXh92xKLo+TiWTg99tvv4099thjsSuvvDJWs2bN2JQpU2L8lk05ceJEbNKkSbFatWrFatSoEZs8eXLs+PHj2VRJA3EvvPBCrEmTJhqgu+eee2J79+7Nuk5z5syJNWvWTHUaNWpUbM+ePVnVKdmHnzt3LrZt27bYvHnzYmvWrImdPn062SQCvx4MyV86XsB29uzZsbNnzwb+HBIMOvAbSUvGPU6mUqVKF9eTqV69etYaE/d6MowOZY0b1pPJ5op9Nk4mnOJQrlw5adWqlR7hPCH5VAsbJ4PVFXWJJMnYOBl/xcbWk/GHU3G4KpfHyUSSZGw9GX/VwtaT8YdTcbgql9eTyW40qzjkvr2DIWAIJETASCYhPHbSEDAE0kXASCZdBO1+Q8AQSIiAkUxCeOykIWAIpIuAkUy6CNr9hoAhkBABI5mE8NhJQ8AQSBcBI5l0EbT7DQFDICECRjIJ4bGThoAhkC4CRjLpImj3GwKGQEIEjGQSwmMnDQFDIF0EjGTSRdDuNwQMgYQIGMkkhMdOGgKGQLoIGMmki6DdbwgYAgkRMJJJCI+dNAQMgXQRMJJJF0G73xAwBBIiYCSTEB47aQgYAukiYCSTLoJ2vyFgCCREwEgmITx20hAwBNJFwBfJsIjxl19+qRuT80C+Hz9+PN1n2/2GgCEQQQTYfuXQoUNaz1GPzR33798vP/30U0ra+iIZHnr+/Hn5+eef9SHnzp0TdpkzMQQMgeKHAPueUb+p84hT//k9FYncQuJsM/L+++/rwUudPHlSypYtK0OGDJFbbrlF2CIl04JOq1evlvfee0+Jlg3VkMGDB0u3bt3k0ksvzbRKF58H4W/dulWWLVumW3gMGDBANye7eEEGv5w+fVrWr18vq1atEvQCNwrrwIEDpXfv3lK5cuUMalM8HkUd+Prrr2Xp0qWyc+dOYbsWvAh2tBw5cqS0aNFCSpUqFemX9UUy7C3UuHFjqVatmu43xPYMtWvXDvzFMMmmTp0qR48elXHjximpAPLrr78uTz31lHz88cdy7733Ss2aNQN/dmEJHjhwQKZPny4HDx6UsWPHKqlw7Ztvvqm6UsH5/corrywsiVB+p/JS6GbNmiULFiwQ9qS67rrrQnmWn0TBZ8aMGbJ7927No9tuu01vg/xmzpwpmzZtkgcffFDq1KnjJzm7RkQtibVr1yqulC/25W7QoIG6Ms8//7w88sgj8sADD8jtt9+uDXFQoNGoX3PNNVrn2RecZzdp0kTYbywV8eUupZJwsvewWdpLL70kH374oW503rp1a2Vttkfp27evdO7cWRYtWiRvv/22sPlbJgQr6uWXX1Yrhv2Qb7jhBt2+FJ2oRF26dFEL4o033siYTrz3N998Izzzo48+0oxnK9VsCpbda6+9phZMmzZtpH379hdxwtLr2bOnWqbz588XxwrMpr658uwdO3bItGnTtIHr16+f1KtXT62Wq666Sq1o8v2ZZ56RdevWsRNsZF8rEiRDrIeWbvny5VppWrZsqVaTgxqbmLVr105NcCwIWvCwQUWnLVu2qE6QCjsKsveNI3xv27at+qsLFy6Ubdu2ha6T82ysgWHDhqm1BwGzGV62BJzYoB6LhTwBJ/dOn1i/EE+ZMmW0gdi8efPF2F62dM6F59LZQtiAst68eXO1JLAwHIFwOnbsKFgaixcv1k/nXNQ+fZEMm4hRSMLy/WjdNmzYoNFszDQqjRtQng97U3gBHRclbGvm+++/V0sBFw7/l+d76VSjRg357LPPVCfuKWlCPtBA7NmzR/ON/IvHCde6Vq1aeg3XmjVTdCmh3BEHJPiKG+wmbu6uUqWKuk7US+Jgn376adGJpngF9Z46mGr990UyBFt5yVR9sqLe7dixY1pJz5w5owXVK0BIZYa9cWFoOfkMU9CJGBDBS0iPTI0XYlXoRKuDJYPLV9KEd/7kk0+UOLCwqlatWgCCK664QnFiP3HyzoY/FIAo3w8EzYlx0Y1M3aOcxbvEEDmxSQ7K6r59++Ts2bP50gnqHzo2qP8EnVMRXySTSsLJ3EM/vGOZQDBeZMbG4hRWwAZ87glTqDyOZQLIXjrhRuHKURAOHz5cIisPBMuBgANHvDg4gSPmPYdJ4QhAMpRvLD7KHQ2c2zrkTiwY8KQ+cB0dFE4dKjzl7JzxRTJUcCLMXq15umrj0wMorRxsiWntVaH5Df8eXfLy8vSg/z4MQScsJTINYqOFjm9JeK6jE5/oRBduWDqF8Z7ppungBBkTo8Li8yIZ8oy8A0NaW6zDkoRTsjiDEUQMrtQ56gWkEi9gTaOMBwDRpzpYLj7d+P95RmE6xF/r9b8vkuEFMYMpLAgvBAAUsnSFwgbBFAUQTM7z0QXmhgTCKqiOTkWZn+gSr1NJGqQIThAGhTyRuHGCuLESnYFeie4rqeewZBjGUZRbiftC+aNxo8fRsbzTxY0yTMPvuP8QHY1tquKLZAj64Bc6sRLIhSPsHp5UX8ruMwQMgdQRoF479RtrCS/GqfuppPq/PrEi7oZkHHcJxuSgJaOVMjEEoogAlYX43caNG9WNo8uXGJojznl6vHB5O3XqlO8819Gicx5Lu0OHDurOp9rL4jw36p+8K1YMHoZDMk7dT0V3X5YMCWMuNW3aVD9xV1ACsy5dwQ0ibS9fvrC08f+5JyyCQycKI4E1v+LoFB+g83t/Ll7n4JRMK4fbnU5PRTI4EYxnMNuYMWNk/PjxMnfu3HzBUc4zmnv06NEyYcIEmTNnTr7zNKTz5s3Texlpzmj0TAStITx6Lf2OqqecEjck7hWE4P4SSIagKdcMS8gIyfACDRs21BeBZOg2KyqO4ueFaRVIG5IhXfxQr3Tx/XkmAVYIgMIaFsmgE+mTeRS0wt4VX5hzfJIZvEdYOvnBMtPXgBOFD5Kh1QMLr/gMecY58hBcyT9c8LCFvKMrGN3QAavErZ/7PHkYf57fWHEA3YkhEQckrbDF3RuHDtQLr/gj+tPYkweMQ0qmoU70DuQTz0TIK8aJOfHYRPcVds63uwS7QjK0QgwUIvMAgP/TFRgbJmZKAaB5BU8hHjIZX5HrqdRhCs+gt2TNmjVa+LwClVhyBMEpAFxPhpQ0YZwGhZBKTAORCCfylcqAFZoJl4MWmEmslCnIjekN7jzi/KBBg/Q8RBl/nrFZTDilVafi9enTR8tE2HlMXaM+gK1DkJR7dwNGmaP+QZoOyXj1gKaiK8F5CJfAMoNQwcn97GTT9E0yFApIhgcy8Oyrr75SRTDr0hXiPcwm/eCDD9QcpeJSGN0CaxNBp7AwzNpdWNzXBfWdioBOzmAnCI6Md4ujEwUUnbinpAn5wLuDDQWTA9JxCxWFvKPycC2VNxNCy87sfQ4vKeo8laxHjx56eN0f1m+4oTRwHIyEZxY2PZ3uwXAQNvWEg8AsE5jBN12hkcCNpHeL8kx+xdfFZJ+RlM1KQWK+DhWPVquwlitZJWBi5iZROJ1BbW7zEBZnRCMvDphU/mTiAMnqw/XoxIRISBU/HJM5XicsOvRt1KiR6sQ9JU1wKZnMSgMERmAVjxMNEhWlfv36wrw0GgqTxAhQFwhEQxyUfRo0t0Dcn3/+uZIPdZKVEYJwQSEzyjSNBfWcupZug54UyVA4mGELALhLe/fuVZPN/fKpfAcc0mWyH6YalpLb94WtmaxIbwCzUa+//voCIyBTeW6ie9AJ4kMnzFKGzqObI/iszKGiQmFGMzGwJAV9HRzAiXfv37+/urlg4vjzXEPlADvMetaUAVN3i+ykY5/5EaBid+/eXSs5UzF27dqVb8gIxM0sfK4L0o2DXJjESoNOg8CRbn4lRTK4TDAbhICPSoFCqSCE2M6oUaO0EDL7lHlDmISYb8RFAJqCjA8dRBzIj86YiyNGjNDZrugA0Tk6Mb2eysOSD0OHDs2YC+DWmzgVbggkzHdaIay+TAvxMVySrl27qnmPie/gRPcvB+fAktbRxB8CVPCJEyeq28ISJxALAgGsWLFC6wZr9IBtEA0cjThWDDEoXDC6/LE+05VSMVJOQijETC3/4x//qAz3+9//Xnr16pU22zkqQF7vvvuuLgvAbzwPk/yOO+7Q9Vuy4ZKgE8T31ltvXXQFMGNZLIgMzrT5j2UF6S5ZskQXz2IWOIL/PHz4cCW+Zs2aBdal6eRNUZ/oxSJLLMcB4VHwOWhpCaqGHawvSr9cPE/1xGtgOREsF+JI/EZA9s4771RLIwiCARss9VdeeUX++te/6szvxx9/XBv9dHFLmmR4IEz6l7/8RV599VVdBe03v/mNMl+6ytj9hoAhkD0EcMmeeOIJdZdYhe/uu+9OaqxYYZon5S45iWDywqIE+zCFCYAmaRA5SdmnIWAIRAAB3G2WTsUlYy1tvBM8iCAkJZIhNkMAj1gEVg3uTVCxmSBeytIwBAyB5BBg0CFhEMZ+YUAEEYtxNEiJZLjZGWNAjwHWDEFRr4FYzoPs0xAwBKKJALEYxqgxBIHpE/RqBRXn4Y1TJhluZpTrfffdp91osCBd2iaGgCGQOwgwBINeYoLKLPpO723QY9DSIhmgZKuExx57TAcNrVy5Ugfo5Q7EpqkhULIR+OKLL7RHkLFnGAxhjMZOqXfJK1sY6cnCx4x+ZaRsEKMPvZ5jvxkChkAwCDDMgGUwGGfF9ImwhmIERjLBvLalYggYAsUNgbTdpeIGiL2PIWAIBIuAkUyweFpqhoAhEIeAkUwcIPavIWAIBIuAkUyweFpqhoAhEIeAkUwcIPavIWAIBIuAkUyweFpqhoAhEIeAkUwcIPavIWAIBIuAkUyweFpqhoAhEIeAkUwcIPavIWAIBIvA/wGjxQD25pLD9QAAAABJRU5ErkJggg==;" vertex="1" parent="Q0ot5jj4FvukrQf4Q_Wv-95">
          <mxGeometry x="47" width="88.33" height="70.42" as="geometry" />
        </mxCell>
        <mxCell id="Q0ot5jj4FvukrQf4Q_Wv-97" value="$$A_{12 \times12}$$" style="text;html=1;strokeColor=none;fillColor=none;align=center;verticalAlign=middle;whiteSpace=wrap;rounded=0;" vertex="1" parent="Q0ot5jj4FvukrQf4Q_Wv-95">
          <mxGeometry y="17.210000000000036" width="60" height="30" as="geometry" />
        </mxCell>
        <mxCell id="Q0ot5jj4FvukrQf4Q_Wv-98" style="edgeStyle=orthogonalEdgeStyle;rounded=0;orthogonalLoop=1;jettySize=auto;html=1;exitX=1;exitY=0.5;exitDx=0;exitDy=0;entryX=0;entryY=0.5;entryDx=0;entryDy=0;fontFamily=Verdana;fontSize=11;fontColor=#000000;endArrow=classic;endFill=1;strokeWidth=1;" edge="1" parent="1" source="Q0ot5jj4FvukrQf4Q_Wv-99" target="Q0ot5jj4FvukrQf4Q_Wv-111">
          <mxGeometry relative="1" as="geometry" />
        </mxCell>
        <mxCell id="Q0ot5jj4FvukrQf4Q_Wv-99" value="GNN&lt;br&gt;Block" style="rounded=1;whiteSpace=wrap;html=1;fontSize=8;strokeColor=#314354;strokeWidth=1;horizontal=1;fillColor=#647687;fontColor=#ffffff;" vertex="1" parent="1">
          <mxGeometry x="468.56999999999994" y="4017.66" width="53" height="42" as="geometry" />
        </mxCell>
        <mxCell id="Q0ot5jj4FvukrQf4Q_Wv-100" style="edgeStyle=orthogonalEdgeStyle;rounded=0;orthogonalLoop=1;jettySize=auto;html=1;exitX=1;exitY=0.5;exitDx=0;exitDy=0;fontFamily=Verdana;fontSize=11;fontColor=#000000;endArrow=classic;endFill=1;strokeWidth=1;" edge="1" parent="1" source="Q0ot5jj4FvukrQf4Q_Wv-101">
          <mxGeometry relative="1" as="geometry">
            <mxPoint x="690.3103448275865" y="4038.113793103448" as="targetPoint" />
          </mxGeometry>
        </mxCell>
        <mxCell id="Q0ot5jj4FvukrQf4Q_Wv-101" value="GNN&lt;br&gt;Block" style="rounded=1;whiteSpace=wrap;html=1;fontSize=8;strokeColor=#314354;strokeWidth=1;horizontal=1;fillColor=#647687;fontColor=#ffffff;" vertex="1" parent="1">
          <mxGeometry x="625.5699999999999" y="4017.37" width="53" height="42" as="geometry" />
        </mxCell>
        <mxCell id="Q0ot5jj4FvukrQf4Q_Wv-102" style="edgeStyle=orthogonalEdgeStyle;rounded=0;orthogonalLoop=1;jettySize=auto;html=1;exitX=0.5;exitY=1;exitDx=0;exitDy=0;entryX=0.5;entryY=1;entryDx=0;entryDy=0;fontFamily=Verdana;fontSize=11;fontColor=#000000;endArrow=classic;endFill=1;strokeWidth=1;" edge="1" parent="1" source="Q0ot5jj4FvukrQf4Q_Wv-96" target="Q0ot5jj4FvukrQf4Q_Wv-75">
          <mxGeometry relative="1" as="geometry" />
        </mxCell>
        <mxCell id="Q0ot5jj4FvukrQf4Q_Wv-103" style="rounded=0;orthogonalLoop=1;jettySize=auto;html=1;exitX=0;exitY=0.5;exitDx=0;exitDy=0;entryX=1;entryY=0;entryDx=0;entryDy=0;endArrow=none;endFill=0;strokeWidth=1;fillColor=#76608a;strokeColor=#432D57;" edge="1" parent="1" source="Q0ot5jj4FvukrQf4Q_Wv-105" target="Q0ot5jj4FvukrQf4Q_Wv-128">
          <mxGeometry relative="1" as="geometry" />
        </mxCell>
        <mxCell id="Q0ot5jj4FvukrQf4Q_Wv-104" style="edgeStyle=none;rounded=0;orthogonalLoop=1;jettySize=auto;html=1;exitX=1;exitY=0.5;exitDx=0;exitDy=0;entryX=0;entryY=0;entryDx=0;entryDy=0;endArrow=none;endFill=0;strokeWidth=1;fillColor=#76608a;strokeColor=#432D57;" edge="1" parent="1" source="Q0ot5jj4FvukrQf4Q_Wv-105" target="Q0ot5jj4FvukrQf4Q_Wv-121">
          <mxGeometry relative="1" as="geometry" />
        </mxCell>
        <mxCell id="Q0ot5jj4FvukrQf4Q_Wv-105" value="" style="ellipse;whiteSpace=wrap;html=1;aspect=fixed;fillColor=#76608a;strokeColor=#432D57;fontColor=#ffffff;strokeWidth=1;" vertex="1" parent="1">
          <mxGeometry x="574" y="4007.16" width="10" height="10" as="geometry" />
        </mxCell>
        <mxCell id="Q0ot5jj4FvukrQf4Q_Wv-106" style="edgeStyle=orthogonalEdgeStyle;rounded=0;orthogonalLoop=1;jettySize=auto;html=1;exitX=1;exitY=0.5;exitDx=0;exitDy=0;entryX=0;entryY=0.5;entryDx=0;entryDy=0;fontFamily=Verdana;fontSize=11;fontColor=#000000;endArrow=classic;endFill=1;strokeWidth=1;" edge="1" parent="1" source="Q0ot5jj4FvukrQf4Q_Wv-107" target="Q0ot5jj4FvukrQf4Q_Wv-101">
          <mxGeometry relative="1" as="geometry" />
        </mxCell>
        <mxCell id="Q0ot5jj4FvukrQf4Q_Wv-107" value="" style="ellipse;whiteSpace=wrap;html=1;aspect=fixed;fillColor=#76608a;strokeColor=#432D57;fontColor=#ffffff;strokeWidth=1;" vertex="1" parent="1">
          <mxGeometry x="602" y="4034.16" width="10" height="10" as="geometry" />
        </mxCell>
        <mxCell id="Q0ot5jj4FvukrQf4Q_Wv-108" style="edgeStyle=none;rounded=0;orthogonalLoop=1;jettySize=auto;html=1;exitX=1;exitY=0.5;exitDx=0;exitDy=0;entryX=0;entryY=1;entryDx=0;entryDy=0;endArrow=none;endFill=0;strokeWidth=1;fillColor=#76608a;strokeColor=#432D57;" edge="1" parent="1" source="Q0ot5jj4FvukrQf4Q_Wv-109" target="Q0ot5jj4FvukrQf4Q_Wv-123">
          <mxGeometry relative="1" as="geometry" />
        </mxCell>
        <mxCell id="Q0ot5jj4FvukrQf4Q_Wv-109" value="" style="ellipse;whiteSpace=wrap;html=1;aspect=fixed;fillColor=#76608a;strokeColor=#432D57;fontColor=#ffffff;strokeWidth=1;" vertex="1" parent="1">
          <mxGeometry x="574" y="4060.16" width="10" height="10" as="geometry" />
        </mxCell>
        <mxCell id="Q0ot5jj4FvukrQf4Q_Wv-110" style="edgeStyle=none;rounded=0;orthogonalLoop=1;jettySize=auto;html=1;exitX=0.5;exitY=1;exitDx=0;exitDy=0;entryX=0.177;entryY=0.273;entryDx=0;entryDy=0;entryPerimeter=0;endArrow=none;endFill=0;strokeWidth=1;fillColor=#76608a;strokeColor=#432D57;" edge="1" parent="1" source="Q0ot5jj4FvukrQf4Q_Wv-111" target="Q0ot5jj4FvukrQf4Q_Wv-125">
          <mxGeometry relative="1" as="geometry" />
        </mxCell>
        <mxCell id="Q0ot5jj4FvukrQf4Q_Wv-111" value="" style="ellipse;whiteSpace=wrap;html=1;aspect=fixed;fillColor=#76608a;strokeColor=#432D57;fontColor=#ffffff;strokeWidth=1;" vertex="1" parent="1">
          <mxGeometry x="544" y="4034.16" width="10" height="10" as="geometry" />
        </mxCell>
        <mxCell id="Q0ot5jj4FvukrQf4Q_Wv-112" style="edgeStyle=none;rounded=0;orthogonalLoop=1;jettySize=auto;html=1;exitX=0.5;exitY=0;exitDx=0;exitDy=0;entryX=0.5;entryY=1;entryDx=0;entryDy=0;endArrow=none;endFill=0;strokeWidth=1;fillColor=#76608a;strokeColor=#432D57;" edge="1" parent="1" source="Q0ot5jj4FvukrQf4Q_Wv-119" target="Q0ot5jj4FvukrQf4Q_Wv-105">
          <mxGeometry relative="1" as="geometry" />
        </mxCell>
        <mxCell id="Q0ot5jj4FvukrQf4Q_Wv-113" style="edgeStyle=none;rounded=0;orthogonalLoop=1;jettySize=auto;html=1;exitX=1;exitY=0;exitDx=0;exitDy=0;entryX=0;entryY=1;entryDx=0;entryDy=0;endArrow=none;endFill=0;strokeWidth=1;fillColor=#76608a;strokeColor=#432D57;" edge="1" parent="1" source="Q0ot5jj4FvukrQf4Q_Wv-119" target="Q0ot5jj4FvukrQf4Q_Wv-121">
          <mxGeometry relative="1" as="geometry" />
        </mxCell>
        <mxCell id="Q0ot5jj4FvukrQf4Q_Wv-114" style="edgeStyle=none;rounded=0;orthogonalLoop=1;jettySize=auto;html=1;exitX=1;exitY=0.5;exitDx=0;exitDy=0;entryX=0;entryY=0.5;entryDx=0;entryDy=0;endArrow=none;endFill=0;strokeWidth=1;fillColor=#76608a;strokeColor=#432D57;" edge="1" parent="1" source="Q0ot5jj4FvukrQf4Q_Wv-119" target="Q0ot5jj4FvukrQf4Q_Wv-107">
          <mxGeometry relative="1" as="geometry" />
        </mxCell>
        <mxCell id="Q0ot5jj4FvukrQf4Q_Wv-115" style="edgeStyle=none;rounded=0;orthogonalLoop=1;jettySize=auto;html=1;exitX=1;exitY=1;exitDx=0;exitDy=0;entryX=0;entryY=0;entryDx=0;entryDy=0;endArrow=none;endFill=0;strokeWidth=1;fillColor=#76608a;strokeColor=#432D57;" edge="1" parent="1" source="Q0ot5jj4FvukrQf4Q_Wv-119" target="Q0ot5jj4FvukrQf4Q_Wv-123">
          <mxGeometry relative="1" as="geometry" />
        </mxCell>
        <mxCell id="Q0ot5jj4FvukrQf4Q_Wv-116" style="edgeStyle=none;rounded=0;orthogonalLoop=1;jettySize=auto;html=1;exitX=0.5;exitY=1;exitDx=0;exitDy=0;entryX=0.5;entryY=0;entryDx=0;entryDy=0;endArrow=none;endFill=0;strokeWidth=1;fillColor=#76608a;strokeColor=#432D57;" edge="1" parent="1" source="Q0ot5jj4FvukrQf4Q_Wv-119" target="Q0ot5jj4FvukrQf4Q_Wv-109">
          <mxGeometry relative="1" as="geometry" />
        </mxCell>
        <mxCell id="Q0ot5jj4FvukrQf4Q_Wv-117" style="edgeStyle=none;rounded=0;orthogonalLoop=1;jettySize=auto;html=1;exitX=0;exitY=1;exitDx=0;exitDy=0;entryX=1;entryY=0;entryDx=0;entryDy=0;endArrow=none;endFill=0;strokeWidth=1;fillColor=#76608a;strokeColor=#432D57;" edge="1" parent="1" source="Q0ot5jj4FvukrQf4Q_Wv-119" target="Q0ot5jj4FvukrQf4Q_Wv-125">
          <mxGeometry relative="1" as="geometry" />
        </mxCell>
        <mxCell id="Q0ot5jj4FvukrQf4Q_Wv-118" style="edgeStyle=none;rounded=0;orthogonalLoop=1;jettySize=auto;html=1;exitX=0;exitY=0.5;exitDx=0;exitDy=0;entryX=1;entryY=0.5;entryDx=0;entryDy=0;endArrow=none;endFill=0;strokeWidth=1;fillColor=#76608a;strokeColor=#432D57;" edge="1" parent="1" source="Q0ot5jj4FvukrQf4Q_Wv-119" target="Q0ot5jj4FvukrQf4Q_Wv-111">
          <mxGeometry relative="1" as="geometry" />
        </mxCell>
        <mxCell id="Q0ot5jj4FvukrQf4Q_Wv-119" value="" style="ellipse;whiteSpace=wrap;html=1;aspect=fixed;fillColor=#76608a;strokeColor=#432D57;fontColor=#ffffff;strokeWidth=1;" vertex="1" parent="1">
          <mxGeometry x="574" y="4034.16" width="10" height="10" as="geometry" />
        </mxCell>
        <mxCell id="Q0ot5jj4FvukrQf4Q_Wv-120" style="edgeStyle=none;rounded=0;orthogonalLoop=1;jettySize=auto;html=1;exitX=1;exitY=1;exitDx=0;exitDy=0;entryX=0.5;entryY=0;entryDx=0;entryDy=0;endArrow=none;endFill=0;strokeWidth=1;fillColor=#76608a;strokeColor=#432D57;" edge="1" parent="1" source="Q0ot5jj4FvukrQf4Q_Wv-121" target="Q0ot5jj4FvukrQf4Q_Wv-107">
          <mxGeometry relative="1" as="geometry" />
        </mxCell>
        <mxCell id="Q0ot5jj4FvukrQf4Q_Wv-121" value="" style="ellipse;whiteSpace=wrap;html=1;aspect=fixed;fillColor=#76608a;strokeColor=#432D57;fontColor=#ffffff;strokeWidth=1;" vertex="1" parent="1">
          <mxGeometry x="596" y="4014.16" width="10" height="10" as="geometry" />
        </mxCell>
        <mxCell id="Q0ot5jj4FvukrQf4Q_Wv-122" style="edgeStyle=none;rounded=0;orthogonalLoop=1;jettySize=auto;html=1;exitX=1;exitY=0;exitDx=0;exitDy=0;entryX=0.5;entryY=1;entryDx=0;entryDy=0;endArrow=none;endFill=0;strokeWidth=1;fillColor=#76608a;strokeColor=#432D57;" edge="1" parent="1" source="Q0ot5jj4FvukrQf4Q_Wv-123" target="Q0ot5jj4FvukrQf4Q_Wv-107">
          <mxGeometry relative="1" as="geometry" />
        </mxCell>
        <mxCell id="Q0ot5jj4FvukrQf4Q_Wv-123" value="" style="ellipse;whiteSpace=wrap;html=1;aspect=fixed;fillColor=#76608a;strokeColor=#432D57;fontColor=#ffffff;strokeWidth=1;" vertex="1" parent="1">
          <mxGeometry x="596" y="4055.16" width="10" height="10" as="geometry" />
        </mxCell>
        <mxCell id="Q0ot5jj4FvukrQf4Q_Wv-124" style="edgeStyle=none;rounded=0;orthogonalLoop=1;jettySize=auto;html=1;exitX=1;exitY=1;exitDx=0;exitDy=0;entryX=0;entryY=0.5;entryDx=0;entryDy=0;endArrow=none;endFill=0;strokeWidth=1;fillColor=#76608a;strokeColor=#432D57;" edge="1" parent="1" source="Q0ot5jj4FvukrQf4Q_Wv-125" target="Q0ot5jj4FvukrQf4Q_Wv-109">
          <mxGeometry relative="1" as="geometry" />
        </mxCell>
        <mxCell id="Q0ot5jj4FvukrQf4Q_Wv-125" value="" style="ellipse;whiteSpace=wrap;html=1;aspect=fixed;fillColor=#76608a;strokeColor=#432D57;fontColor=#ffffff;strokeWidth=1;" vertex="1" parent="1">
          <mxGeometry x="552" y="4055.16" width="10" height="10" as="geometry" />
        </mxCell>
        <mxCell id="Q0ot5jj4FvukrQf4Q_Wv-126" style="edgeStyle=none;rounded=0;orthogonalLoop=1;jettySize=auto;html=1;exitX=0;exitY=1;exitDx=0;exitDy=0;entryX=0.5;entryY=0;entryDx=0;entryDy=0;endArrow=none;endFill=0;strokeWidth=1;fillColor=#76608a;strokeColor=#432D57;" edge="1" parent="1" source="Q0ot5jj4FvukrQf4Q_Wv-128" target="Q0ot5jj4FvukrQf4Q_Wv-111">
          <mxGeometry relative="1" as="geometry" />
        </mxCell>
        <mxCell id="Q0ot5jj4FvukrQf4Q_Wv-127" style="edgeStyle=none;rounded=0;orthogonalLoop=1;jettySize=auto;html=1;exitX=1;exitY=1;exitDx=0;exitDy=0;entryX=0;entryY=0;entryDx=0;entryDy=0;endArrow=none;endFill=0;strokeWidth=1;fillColor=#76608a;strokeColor=#432D57;" edge="1" parent="1" source="Q0ot5jj4FvukrQf4Q_Wv-128" target="Q0ot5jj4FvukrQf4Q_Wv-119">
          <mxGeometry relative="1" as="geometry" />
        </mxCell>
        <mxCell id="Q0ot5jj4FvukrQf4Q_Wv-128" value="" style="ellipse;whiteSpace=wrap;html=1;aspect=fixed;fillColor=#76608a;strokeColor=#432D57;fontColor=#ffffff;strokeWidth=1;" vertex="1" parent="1">
          <mxGeometry x="552" y="4014.16" width="10" height="10" as="geometry" />
        </mxCell>
        <mxCell id="Q0ot5jj4FvukrQf4Q_Wv-129" style="rounded=0;orthogonalLoop=1;jettySize=auto;html=1;exitX=0;exitY=0.5;exitDx=0;exitDy=0;entryX=1;entryY=0;entryDx=0;entryDy=0;endArrow=none;endFill=0;strokeWidth=1;fillColor=#a0522d;strokeColor=#6D1F00;" edge="1" parent="1" source="Q0ot5jj4FvukrQf4Q_Wv-131" target="Q0ot5jj4FvukrQf4Q_Wv-154">
          <mxGeometry relative="1" as="geometry" />
        </mxCell>
        <mxCell id="Q0ot5jj4FvukrQf4Q_Wv-130" style="edgeStyle=none;rounded=0;orthogonalLoop=1;jettySize=auto;html=1;exitX=1;exitY=0.5;exitDx=0;exitDy=0;entryX=0;entryY=0;entryDx=0;entryDy=0;endArrow=none;endFill=0;strokeWidth=1;fillColor=#a0522d;strokeColor=#6D1F00;" edge="1" parent="1" source="Q0ot5jj4FvukrQf4Q_Wv-131" target="Q0ot5jj4FvukrQf4Q_Wv-147">
          <mxGeometry relative="1" as="geometry" />
        </mxCell>
        <mxCell id="Q0ot5jj4FvukrQf4Q_Wv-131" value="" style="ellipse;whiteSpace=wrap;html=1;aspect=fixed;fillColor=#a0522d;strokeColor=#6D1F00;fontColor=#ffffff;strokeWidth=1;" vertex="1" parent="1">
          <mxGeometry x="722.4300000000001" y="4007.66" width="10" height="10" as="geometry" />
        </mxCell>
        <mxCell id="Q0ot5jj4FvukrQf4Q_Wv-132" style="edgeStyle=orthogonalEdgeStyle;rounded=0;orthogonalLoop=1;jettySize=auto;html=1;exitX=1;exitY=0.5;exitDx=0;exitDy=0;" edge="1" parent="1" source="Q0ot5jj4FvukrQf4Q_Wv-133">
          <mxGeometry relative="1" as="geometry">
            <mxPoint x="840.4706456801473" y="4039.5294117647063" as="targetPoint" />
          </mxGeometry>
        </mxCell>
        <mxCell id="Q0ot5jj4FvukrQf4Q_Wv-133" value="" style="ellipse;whiteSpace=wrap;html=1;aspect=fixed;fillColor=#a0522d;strokeColor=#6D1F00;fontColor=#ffffff;strokeWidth=1;" vertex="1" parent="1">
          <mxGeometry x="750.4300000000001" y="4034.66" width="10" height="10" as="geometry" />
        </mxCell>
        <mxCell id="Q0ot5jj4FvukrQf4Q_Wv-134" style="edgeStyle=none;rounded=0;orthogonalLoop=1;jettySize=auto;html=1;exitX=1;exitY=0.5;exitDx=0;exitDy=0;entryX=0;entryY=1;entryDx=0;entryDy=0;endArrow=none;endFill=0;strokeWidth=1;fillColor=#a0522d;strokeColor=#6D1F00;" edge="1" parent="1" source="Q0ot5jj4FvukrQf4Q_Wv-135" target="Q0ot5jj4FvukrQf4Q_Wv-149">
          <mxGeometry relative="1" as="geometry" />
        </mxCell>
        <mxCell id="Q0ot5jj4FvukrQf4Q_Wv-135" value="" style="ellipse;whiteSpace=wrap;html=1;aspect=fixed;fillColor=#a0522d;strokeColor=#6D1F00;fontColor=#ffffff;strokeWidth=1;" vertex="1" parent="1">
          <mxGeometry x="722.4300000000001" y="4060.66" width="10" height="10" as="geometry" />
        </mxCell>
        <mxCell id="Q0ot5jj4FvukrQf4Q_Wv-136" style="edgeStyle=none;rounded=0;orthogonalLoop=1;jettySize=auto;html=1;exitX=0.5;exitY=1;exitDx=0;exitDy=0;entryX=0.177;entryY=0.273;entryDx=0;entryDy=0;entryPerimeter=0;endArrow=none;endFill=0;strokeWidth=1;fillColor=#a0522d;strokeColor=#6D1F00;" edge="1" parent="1" source="Q0ot5jj4FvukrQf4Q_Wv-137" target="Q0ot5jj4FvukrQf4Q_Wv-151">
          <mxGeometry relative="1" as="geometry" />
        </mxCell>
        <mxCell id="Q0ot5jj4FvukrQf4Q_Wv-137" value="" style="ellipse;whiteSpace=wrap;html=1;aspect=fixed;fillColor=#a0522d;strokeColor=#6D1F00;fontColor=#ffffff;strokeWidth=1;" vertex="1" parent="1">
          <mxGeometry x="692.4300000000001" y="4034.66" width="10" height="10" as="geometry" />
        </mxCell>
        <mxCell id="Q0ot5jj4FvukrQf4Q_Wv-138" style="edgeStyle=none;rounded=0;orthogonalLoop=1;jettySize=auto;html=1;exitX=0.5;exitY=0;exitDx=0;exitDy=0;entryX=0.5;entryY=1;entryDx=0;entryDy=0;endArrow=none;endFill=0;strokeWidth=1;fillColor=#a0522d;strokeColor=#6D1F00;" edge="1" parent="1" source="Q0ot5jj4FvukrQf4Q_Wv-145" target="Q0ot5jj4FvukrQf4Q_Wv-131">
          <mxGeometry relative="1" as="geometry" />
        </mxCell>
        <mxCell id="Q0ot5jj4FvukrQf4Q_Wv-139" style="edgeStyle=none;rounded=0;orthogonalLoop=1;jettySize=auto;html=1;exitX=1;exitY=0;exitDx=0;exitDy=0;entryX=0;entryY=1;entryDx=0;entryDy=0;endArrow=none;endFill=0;strokeWidth=1;fillColor=#a0522d;strokeColor=#6D1F00;" edge="1" parent="1" source="Q0ot5jj4FvukrQf4Q_Wv-145" target="Q0ot5jj4FvukrQf4Q_Wv-147">
          <mxGeometry relative="1" as="geometry" />
        </mxCell>
        <mxCell id="Q0ot5jj4FvukrQf4Q_Wv-140" style="edgeStyle=none;rounded=0;orthogonalLoop=1;jettySize=auto;html=1;exitX=1;exitY=0.5;exitDx=0;exitDy=0;entryX=0;entryY=0.5;entryDx=0;entryDy=0;endArrow=none;endFill=0;strokeWidth=1;fillColor=#a0522d;strokeColor=#6D1F00;" edge="1" parent="1" source="Q0ot5jj4FvukrQf4Q_Wv-145" target="Q0ot5jj4FvukrQf4Q_Wv-133">
          <mxGeometry relative="1" as="geometry" />
        </mxCell>
        <mxCell id="Q0ot5jj4FvukrQf4Q_Wv-141" style="edgeStyle=none;rounded=0;orthogonalLoop=1;jettySize=auto;html=1;exitX=1;exitY=1;exitDx=0;exitDy=0;entryX=0;entryY=0;entryDx=0;entryDy=0;endArrow=none;endFill=0;strokeWidth=1;fillColor=#a0522d;strokeColor=#6D1F00;" edge="1" parent="1" source="Q0ot5jj4FvukrQf4Q_Wv-145" target="Q0ot5jj4FvukrQf4Q_Wv-149">
          <mxGeometry relative="1" as="geometry" />
        </mxCell>
        <mxCell id="Q0ot5jj4FvukrQf4Q_Wv-142" style="edgeStyle=none;rounded=0;orthogonalLoop=1;jettySize=auto;html=1;exitX=0.5;exitY=1;exitDx=0;exitDy=0;entryX=0.5;entryY=0;entryDx=0;entryDy=0;endArrow=none;endFill=0;strokeWidth=1;fillColor=#a0522d;strokeColor=#6D1F00;" edge="1" parent="1" source="Q0ot5jj4FvukrQf4Q_Wv-145" target="Q0ot5jj4FvukrQf4Q_Wv-135">
          <mxGeometry relative="1" as="geometry" />
        </mxCell>
        <mxCell id="Q0ot5jj4FvukrQf4Q_Wv-143" style="edgeStyle=none;rounded=0;orthogonalLoop=1;jettySize=auto;html=1;exitX=0;exitY=1;exitDx=0;exitDy=0;entryX=1;entryY=0;entryDx=0;entryDy=0;endArrow=none;endFill=0;strokeWidth=1;fillColor=#a0522d;strokeColor=#6D1F00;" edge="1" parent="1" source="Q0ot5jj4FvukrQf4Q_Wv-145" target="Q0ot5jj4FvukrQf4Q_Wv-151">
          <mxGeometry relative="1" as="geometry" />
        </mxCell>
        <mxCell id="Q0ot5jj4FvukrQf4Q_Wv-144" style="edgeStyle=none;rounded=0;orthogonalLoop=1;jettySize=auto;html=1;exitX=0;exitY=0.5;exitDx=0;exitDy=0;entryX=1;entryY=0.5;entryDx=0;entryDy=0;endArrow=none;endFill=0;strokeWidth=1;fillColor=#a0522d;strokeColor=#6D1F00;" edge="1" parent="1" source="Q0ot5jj4FvukrQf4Q_Wv-145" target="Q0ot5jj4FvukrQf4Q_Wv-137">
          <mxGeometry relative="1" as="geometry" />
        </mxCell>
        <mxCell id="Q0ot5jj4FvukrQf4Q_Wv-145" value="" style="ellipse;whiteSpace=wrap;html=1;aspect=fixed;fillColor=#a0522d;strokeColor=#6D1F00;fontColor=#ffffff;strokeWidth=1;" vertex="1" parent="1">
          <mxGeometry x="722.4300000000001" y="4034.66" width="10" height="10" as="geometry" />
        </mxCell>
        <mxCell id="Q0ot5jj4FvukrQf4Q_Wv-146" style="edgeStyle=none;rounded=0;orthogonalLoop=1;jettySize=auto;html=1;exitX=1;exitY=1;exitDx=0;exitDy=0;entryX=0.5;entryY=0;entryDx=0;entryDy=0;endArrow=none;endFill=0;strokeWidth=1;fillColor=#a0522d;strokeColor=#6D1F00;" edge="1" parent="1" source="Q0ot5jj4FvukrQf4Q_Wv-147" target="Q0ot5jj4FvukrQf4Q_Wv-133">
          <mxGeometry relative="1" as="geometry" />
        </mxCell>
        <mxCell id="Q0ot5jj4FvukrQf4Q_Wv-147" value="" style="ellipse;whiteSpace=wrap;html=1;aspect=fixed;fillColor=#a0522d;strokeColor=#6D1F00;fontColor=#ffffff;strokeWidth=1;" vertex="1" parent="1">
          <mxGeometry x="744.4300000000001" y="4014.66" width="10" height="10" as="geometry" />
        </mxCell>
        <mxCell id="Q0ot5jj4FvukrQf4Q_Wv-148" style="edgeStyle=none;rounded=0;orthogonalLoop=1;jettySize=auto;html=1;exitX=1;exitY=0;exitDx=0;exitDy=0;entryX=0.5;entryY=1;entryDx=0;entryDy=0;endArrow=none;endFill=0;strokeWidth=1;fillColor=#a0522d;strokeColor=#6D1F00;" edge="1" parent="1" source="Q0ot5jj4FvukrQf4Q_Wv-149" target="Q0ot5jj4FvukrQf4Q_Wv-133">
          <mxGeometry relative="1" as="geometry" />
        </mxCell>
        <mxCell id="Q0ot5jj4FvukrQf4Q_Wv-149" value="" style="ellipse;whiteSpace=wrap;html=1;aspect=fixed;fillColor=#a0522d;strokeColor=#6D1F00;fontColor=#ffffff;strokeWidth=1;" vertex="1" parent="1">
          <mxGeometry x="744.4300000000001" y="4055.66" width="10" height="10" as="geometry" />
        </mxCell>
        <mxCell id="Q0ot5jj4FvukrQf4Q_Wv-150" style="edgeStyle=none;rounded=0;orthogonalLoop=1;jettySize=auto;html=1;exitX=1;exitY=1;exitDx=0;exitDy=0;entryX=0;entryY=0.5;entryDx=0;entryDy=0;endArrow=none;endFill=0;strokeWidth=1;fillColor=#a0522d;strokeColor=#6D1F00;" edge="1" parent="1" source="Q0ot5jj4FvukrQf4Q_Wv-151" target="Q0ot5jj4FvukrQf4Q_Wv-135">
          <mxGeometry relative="1" as="geometry" />
        </mxCell>
        <mxCell id="Q0ot5jj4FvukrQf4Q_Wv-151" value="" style="ellipse;whiteSpace=wrap;html=1;aspect=fixed;fillColor=#a0522d;strokeColor=#6D1F00;fontColor=#ffffff;strokeWidth=1;" vertex="1" parent="1">
          <mxGeometry x="700.4300000000001" y="4055.66" width="10" height="10" as="geometry" />
        </mxCell>
        <mxCell id="Q0ot5jj4FvukrQf4Q_Wv-152" style="edgeStyle=none;rounded=0;orthogonalLoop=1;jettySize=auto;html=1;exitX=0;exitY=1;exitDx=0;exitDy=0;entryX=0.5;entryY=0;entryDx=0;entryDy=0;endArrow=none;endFill=0;strokeWidth=1;fillColor=#a0522d;strokeColor=#6D1F00;" edge="1" parent="1" source="Q0ot5jj4FvukrQf4Q_Wv-154" target="Q0ot5jj4FvukrQf4Q_Wv-137">
          <mxGeometry relative="1" as="geometry" />
        </mxCell>
        <mxCell id="Q0ot5jj4FvukrQf4Q_Wv-153" style="edgeStyle=none;rounded=0;orthogonalLoop=1;jettySize=auto;html=1;exitX=1;exitY=1;exitDx=0;exitDy=0;entryX=0;entryY=0;entryDx=0;entryDy=0;endArrow=none;endFill=0;strokeWidth=1;fillColor=#a0522d;strokeColor=#6D1F00;" edge="1" parent="1" source="Q0ot5jj4FvukrQf4Q_Wv-154" target="Q0ot5jj4FvukrQf4Q_Wv-145">
          <mxGeometry relative="1" as="geometry" />
        </mxCell>
        <mxCell id="Q0ot5jj4FvukrQf4Q_Wv-154" value="" style="ellipse;whiteSpace=wrap;html=1;aspect=fixed;fillColor=#a0522d;strokeColor=#6D1F00;fontColor=#ffffff;strokeWidth=1;" vertex="1" parent="1">
          <mxGeometry x="700.4300000000001" y="4014.66" width="10" height="10" as="geometry" />
        </mxCell>
        <mxCell id="Q0ot5jj4FvukrQf4Q_Wv-155" style="edgeStyle=orthogonalEdgeStyle;rounded=0;orthogonalLoop=1;jettySize=auto;html=1;exitX=0.5;exitY=1;exitDx=0;exitDy=0;entryX=0.5;entryY=1;entryDx=0;entryDy=0;fontFamily=Verdana;fontSize=11;fontColor=#000000;endArrow=classic;endFill=1;strokeWidth=1;" edge="1" parent="1" source="Q0ot5jj4FvukrQf4Q_Wv-96" target="Q0ot5jj4FvukrQf4Q_Wv-109">
          <mxGeometry relative="1" as="geometry" />
        </mxCell>
        <mxCell id="Q0ot5jj4FvukrQf4Q_Wv-156" style="edgeStyle=orthogonalEdgeStyle;rounded=0;orthogonalLoop=1;jettySize=auto;html=1;exitX=0;exitY=0;exitDx=44.99438202247191;exitDy=79.47418660930359;exitPerimeter=0;fontFamily=Verdana;fontSize=11;fontColor=#000000;endArrow=classic;endFill=1;strokeWidth=1;curved=1;" edge="1" parent="1" source="Q0ot5jj4FvukrQf4Q_Wv-68">
          <mxGeometry relative="1" as="geometry">
            <mxPoint x="494.44448513454836" y="4009.555582682291" as="targetPoint" />
          </mxGeometry>
        </mxCell>
        <mxCell id="Q0ot5jj4FvukrQf4Q_Wv-157" style="edgeStyle=orthogonalEdgeStyle;curved=1;rounded=0;orthogonalLoop=1;jettySize=auto;html=1;exitX=0;exitY=0;exitDx=44.99438202247191;exitDy=79.47418660930359;exitPerimeter=0;fontFamily=Verdana;fontSize=11;fontColor=#000000;endArrow=classic;endFill=1;strokeWidth=1;" edge="1" parent="1" source="Q0ot5jj4FvukrQf4Q_Wv-68">
          <mxGeometry relative="1" as="geometry">
            <mxPoint x="656.2222357855908" y="4015.7777777777765" as="targetPoint" />
          </mxGeometry>
        </mxCell>
        <mxCell id="Q0ot5jj4FvukrQf4Q_Wv-158" style="edgeStyle=none;rounded=0;orthogonalLoop=1;jettySize=auto;html=1;entryX=0.5;entryY=0;entryDx=0;entryDy=0;fontFamily=Verdana;fontSize=11;fontColor=#000000;endArrow=classic;endFill=1;strokeWidth=1;" edge="1" parent="1" source="Q0ot5jj4FvukrQf4Q_Wv-193" target="Q0ot5jj4FvukrQf4Q_Wv-43">
          <mxGeometry relative="1" as="geometry" />
        </mxCell>
        <mxCell id="Q0ot5jj4FvukrQf4Q_Wv-159" value="" style="group" vertex="1" connectable="0" parent="1">
          <mxGeometry x="952.4" y="3973" width="155" height="166" as="geometry" />
        </mxCell>
        <mxCell id="Q0ot5jj4FvukrQf4Q_Wv-160" value="" style="whiteSpace=wrap;html=1;aspect=fixed;fontFamily=Verdana;fontSize=11;strokeColor=#36393d;strokeWidth=1;fillColor=#eeeeee;" vertex="1" parent="Q0ot5jj4FvukrQf4Q_Wv-159">
          <mxGeometry x="13" y="6.6599999999998545" width="130" height="130" as="geometry" />
        </mxCell>
        <mxCell id="Q0ot5jj4FvukrQf4Q_Wv-161" value="1" style="whiteSpace=wrap;html=1;aspect=fixed;fontFamily=Verdana;fontSize=11;strokeColor=#36393d;strokeWidth=1;fillColor=#eeeeee;" vertex="1" parent="Q0ot5jj4FvukrQf4Q_Wv-159">
          <mxGeometry x="7" y="1" width="132" height="132" as="geometry" />
        </mxCell>
        <mxCell id="Q0ot5jj4FvukrQf4Q_Wv-162" value="0" style="rounded=0;whiteSpace=wrap;html=1;fontFamily=Verdana;fontSize=11;strokeColor=#36393d;strokeWidth=1;fillColor=#cce5ff;" vertex="1" parent="Q0ot5jj4FvukrQf4Q_Wv-159">
          <mxGeometry x="24" y="29.659999999999854" width="24" height="18" as="geometry" />
        </mxCell>
        <mxCell id="Q0ot5jj4FvukrQf4Q_Wv-163" value="1" style="rounded=0;whiteSpace=wrap;html=1;fontFamily=Verdana;fontSize=11;strokeColor=#36393d;strokeWidth=1;fillColor=#cce5ff;" vertex="1" parent="Q0ot5jj4FvukrQf4Q_Wv-159">
          <mxGeometry x="47" y="29.659999999999854" width="24" height="18" as="geometry" />
        </mxCell>
        <mxCell id="Q0ot5jj4FvukrQf4Q_Wv-164" value="0" style="rounded=0;whiteSpace=wrap;html=1;fontFamily=Verdana;fontSize=11;strokeColor=#36393d;strokeWidth=1;fillColor=#cce5ff;" vertex="1" parent="Q0ot5jj4FvukrQf4Q_Wv-159">
          <mxGeometry x="71" y="29.659999999999854" width="24" height="18" as="geometry" />
        </mxCell>
        <mxCell id="Q0ot5jj4FvukrQf4Q_Wv-165" value="" style="rounded=0;whiteSpace=wrap;html=1;fontFamily=Verdana;fontSize=11;strokeColor=#36393d;strokeWidth=1;fillColor=#cce5ff;" vertex="1" parent="Q0ot5jj4FvukrQf4Q_Wv-159">
          <mxGeometry x="94" y="29.659999999999854" width="24" height="18" as="geometry" />
        </mxCell>
        <mxCell id="Q0ot5jj4FvukrQf4Q_Wv-166" value="" style="rounded=0;whiteSpace=wrap;html=1;fontFamily=Verdana;fontSize=11;strokeColor=#36393d;strokeWidth=1;fillColor=#cce5ff;" vertex="1" parent="Q0ot5jj4FvukrQf4Q_Wv-159">
          <mxGeometry x="24" y="47.659999999999854" width="24" height="18" as="geometry" />
        </mxCell>
        <mxCell id="Q0ot5jj4FvukrQf4Q_Wv-167" value="" style="rounded=0;whiteSpace=wrap;html=1;fontFamily=Verdana;fontSize=11;strokeColor=#36393d;strokeWidth=1;fillColor=#cce5ff;" vertex="1" parent="Q0ot5jj4FvukrQf4Q_Wv-159">
          <mxGeometry x="47" y="47.659999999999854" width="24" height="18" as="geometry" />
        </mxCell>
        <mxCell id="Q0ot5jj4FvukrQf4Q_Wv-168" value="" style="rounded=0;whiteSpace=wrap;html=1;fontFamily=Verdana;fontSize=11;strokeColor=#36393d;strokeWidth=1;fillColor=#cce5ff;" vertex="1" parent="Q0ot5jj4FvukrQf4Q_Wv-159">
          <mxGeometry x="71" y="47.659999999999854" width="24" height="18" as="geometry" />
        </mxCell>
        <mxCell id="Q0ot5jj4FvukrQf4Q_Wv-169" value="" style="rounded=0;whiteSpace=wrap;html=1;fontFamily=Verdana;fontSize=11;strokeColor=#36393d;strokeWidth=1;fillColor=#cce5ff;" vertex="1" parent="Q0ot5jj4FvukrQf4Q_Wv-159">
          <mxGeometry x="94" y="47.659999999999854" width="24" height="18" as="geometry" />
        </mxCell>
        <mxCell id="Q0ot5jj4FvukrQf4Q_Wv-170" value="" style="rounded=0;whiteSpace=wrap;html=1;fontFamily=Verdana;fontSize=11;strokeColor=#36393d;strokeWidth=1;fillColor=#cce5ff;" vertex="1" parent="Q0ot5jj4FvukrQf4Q_Wv-159">
          <mxGeometry x="24" y="62.659999999999854" width="24" height="18" as="geometry" />
        </mxCell>
        <mxCell id="Q0ot5jj4FvukrQf4Q_Wv-171" value="" style="rounded=0;whiteSpace=wrap;html=1;fontFamily=Verdana;fontSize=11;strokeColor=#36393d;strokeWidth=1;fillColor=#cce5ff;" vertex="1" parent="Q0ot5jj4FvukrQf4Q_Wv-159">
          <mxGeometry x="47" y="62.659999999999854" width="24" height="18" as="geometry" />
        </mxCell>
        <mxCell id="Q0ot5jj4FvukrQf4Q_Wv-172" value="1" style="rounded=0;whiteSpace=wrap;html=1;fontFamily=Verdana;fontSize=11;strokeColor=#36393d;strokeWidth=1;fillColor=#cce5ff;" vertex="1" parent="Q0ot5jj4FvukrQf4Q_Wv-159">
          <mxGeometry x="71" y="62.659999999999854" width="24" height="18" as="geometry" />
        </mxCell>
        <mxCell id="Q0ot5jj4FvukrQf4Q_Wv-173" value="" style="rounded=0;whiteSpace=wrap;html=1;fontFamily=Verdana;fontSize=11;strokeColor=#36393d;strokeWidth=1;fillColor=#cce5ff;" vertex="1" parent="Q0ot5jj4FvukrQf4Q_Wv-159">
          <mxGeometry x="94" y="62.659999999999854" width="24" height="18" as="geometry" />
        </mxCell>
        <mxCell id="Q0ot5jj4FvukrQf4Q_Wv-174" value="" style="rounded=0;whiteSpace=wrap;html=1;fontFamily=Verdana;fontSize=11;strokeColor=#36393d;strokeWidth=1;fillColor=#cce5ff;" vertex="1" parent="Q0ot5jj4FvukrQf4Q_Wv-159">
          <mxGeometry x="24" y="76.65999999999985" width="24" height="18" as="geometry" />
        </mxCell>
        <mxCell id="Q0ot5jj4FvukrQf4Q_Wv-175" value="" style="rounded=0;whiteSpace=wrap;html=1;fontFamily=Verdana;fontSize=11;strokeColor=#36393d;strokeWidth=1;fillColor=#cce5ff;" vertex="1" parent="Q0ot5jj4FvukrQf4Q_Wv-159">
          <mxGeometry x="47" y="76.65999999999985" width="24" height="18" as="geometry" />
        </mxCell>
        <mxCell id="Q0ot5jj4FvukrQf4Q_Wv-176" value="" style="rounded=0;whiteSpace=wrap;html=1;fontFamily=Verdana;fontSize=11;strokeColor=#36393d;strokeWidth=1;fillColor=#cce5ff;" vertex="1" parent="Q0ot5jj4FvukrQf4Q_Wv-159">
          <mxGeometry x="71" y="76.65999999999985" width="24" height="18" as="geometry" />
        </mxCell>
        <mxCell id="Q0ot5jj4FvukrQf4Q_Wv-177" value="" style="rounded=0;whiteSpace=wrap;html=1;fontFamily=Verdana;fontSize=11;strokeColor=#36393d;strokeWidth=1;fillColor=#cce5ff;" vertex="1" parent="Q0ot5jj4FvukrQf4Q_Wv-159">
          <mxGeometry x="94" y="76.65999999999985" width="24" height="18" as="geometry" />
        </mxCell>
        <mxCell id="Q0ot5jj4FvukrQf4Q_Wv-178" value="Spatial Dependency&amp;nbsp;" style="text;html=1;strokeColor=none;fillColor=none;align=center;verticalAlign=middle;whiteSpace=wrap;rounded=0;fontFamily=Verdana;fontSize=11;fontColor=#000000;" vertex="1" parent="Q0ot5jj4FvukrQf4Q_Wv-159">
          <mxGeometry x="16" y="140" width="139" height="26" as="geometry" />
        </mxCell>
        <mxCell id="Q0ot5jj4FvukrQf4Q_Wv-179" value="Relation Map" style="text;html=1;strokeColor=none;fillColor=none;align=center;verticalAlign=middle;whiteSpace=wrap;rounded=0;fontFamily=Verdana;fontSize=11;fontColor=#000000;" vertex="1" parent="Q0ot5jj4FvukrQf4Q_Wv-159">
          <mxGeometry x="-34.06" y="4.27" width="139" height="26" as="geometry" />
        </mxCell>
        <mxCell id="Q0ot5jj4FvukrQf4Q_Wv-180" style="edgeStyle=orthogonalEdgeStyle;rounded=0;orthogonalLoop=1;jettySize=auto;html=1;exitX=1;exitY=0.5;exitDx=0;exitDy=0;entryX=0;entryY=0.5;entryDx=0;entryDy=0;" edge="1" parent="1" source="Q0ot5jj4FvukrQf4Q_Wv-181" target="Q0ot5jj4FvukrQf4Q_Wv-41">
          <mxGeometry relative="1" as="geometry" />
        </mxCell>
        <mxCell id="Q0ot5jj4FvukrQf4Q_Wv-181" value="Feature Fusion" style="rounded=1;whiteSpace=wrap;html=1;fontSize=8;strokeColor=#ae4132;strokeWidth=1;horizontal=0;fillColor=#fad9d5;" vertex="1" parent="1">
          <mxGeometry x="808.4" y="3992.87" width="27" height="94.25" as="geometry" />
        </mxCell>
        <mxCell id="Q0ot5jj4FvukrQf4Q_Wv-182" value="" style="group" vertex="1" connectable="0" parent="1">
          <mxGeometry x="292" y="3828.48" width="63" height="98.28999999999996" as="geometry" />
        </mxCell>
        <mxCell id="Q0ot5jj4FvukrQf4Q_Wv-183" value="" style="group" vertex="1" connectable="0" parent="Q0ot5jj4FvukrQf4Q_Wv-182">
          <mxGeometry y="26.289999999999964" width="61" height="72" as="geometry" />
        </mxCell>
        <mxCell id="Q0ot5jj4FvukrQf4Q_Wv-184" value="" style="verticalLabelPosition=bottom;verticalAlign=top;html=1;shape=mxgraph.basic.rect;fillColor2=none;strokeWidth=1;size=20;indent=5;fontSize=8;fillColor=#b1ddf0;strokeColor=#000000;" vertex="1" parent="Q0ot5jj4FvukrQf4Q_Wv-183">
          <mxGeometry y="12" width="61" height="6" as="geometry" />
        </mxCell>
        <mxCell id="Q0ot5jj4FvukrQf4Q_Wv-185" value="" style="verticalLabelPosition=bottom;verticalAlign=top;html=1;shape=mxgraph.basic.rect;fillColor2=none;strokeWidth=1;size=20;indent=5;fontSize=8;fillColor=#b1ddf0;strokeColor=#000000;" vertex="1" parent="Q0ot5jj4FvukrQf4Q_Wv-183">
          <mxGeometry y="6" width="61" height="6" as="geometry" />
        </mxCell>
        <mxCell id="Q0ot5jj4FvukrQf4Q_Wv-186" value="" style="verticalLabelPosition=bottom;verticalAlign=top;html=1;shape=mxgraph.basic.rect;fillColor2=none;strokeWidth=1;size=20;indent=5;fontSize=8;fillColor=#b1ddf0;strokeColor=#000000;" vertex="1" parent="Q0ot5jj4FvukrQf4Q_Wv-183">
          <mxGeometry width="61" height="6" as="geometry" />
        </mxCell>
        <mxCell id="Q0ot5jj4FvukrQf4Q_Wv-187" value="" style="verticalLabelPosition=bottom;verticalAlign=top;html=1;shape=mxgraph.basic.rect;fillColor2=none;strokeWidth=1;size=20;indent=5;fontSize=8;fillColor=#b1ddf0;strokeColor=#000000;" vertex="1" parent="Q0ot5jj4FvukrQf4Q_Wv-183">
          <mxGeometry y="30" width="61" height="6" as="geometry" />
        </mxCell>
        <mxCell id="Q0ot5jj4FvukrQf4Q_Wv-188" value="" style="verticalLabelPosition=bottom;verticalAlign=top;html=1;shape=mxgraph.basic.rect;fillColor2=none;strokeWidth=1;size=20;indent=5;fontSize=8;fillColor=#b1ddf0;strokeColor=#000000;" vertex="1" parent="Q0ot5jj4FvukrQf4Q_Wv-183">
          <mxGeometry y="24" width="61" height="6" as="geometry" />
        </mxCell>
        <mxCell id="Q0ot5jj4FvukrQf4Q_Wv-189" value="" style="verticalLabelPosition=bottom;verticalAlign=top;html=1;shape=mxgraph.basic.rect;fillColor2=none;strokeWidth=1;size=20;indent=5;fontSize=8;fillColor=#b1ddf0;strokeColor=#000000;" vertex="1" parent="Q0ot5jj4FvukrQf4Q_Wv-183">
          <mxGeometry y="18" width="61" height="6" as="geometry" />
        </mxCell>
        <mxCell id="Q0ot5jj4FvukrQf4Q_Wv-190" value="" style="verticalLabelPosition=bottom;verticalAlign=top;html=1;shape=mxgraph.basic.rect;fillColor2=none;strokeWidth=1;size=20;indent=5;fontSize=8;fillColor=#b1ddf0;strokeColor=#000000;" vertex="1" parent="Q0ot5jj4FvukrQf4Q_Wv-183">
          <mxGeometry y="48" width="61" height="6" as="geometry" />
        </mxCell>
        <mxCell id="Q0ot5jj4FvukrQf4Q_Wv-191" value="" style="verticalLabelPosition=bottom;verticalAlign=top;html=1;shape=mxgraph.basic.rect;fillColor2=none;strokeWidth=1;size=20;indent=5;fontSize=8;fillColor=#b1ddf0;strokeColor=#000000;" vertex="1" parent="Q0ot5jj4FvukrQf4Q_Wv-183">
          <mxGeometry y="42" width="61" height="6" as="geometry" />
        </mxCell>
        <mxCell id="Q0ot5jj4FvukrQf4Q_Wv-192" value="" style="verticalLabelPosition=bottom;verticalAlign=top;html=1;shape=mxgraph.basic.rect;fillColor2=none;strokeWidth=1;size=20;indent=5;fontSize=8;fillColor=#b1ddf0;strokeColor=#000000;" vertex="1" parent="Q0ot5jj4FvukrQf4Q_Wv-183">
          <mxGeometry y="36" width="61" height="6" as="geometry" />
        </mxCell>
        <mxCell id="Q0ot5jj4FvukrQf4Q_Wv-193" value="" style="verticalLabelPosition=bottom;verticalAlign=top;html=1;shape=mxgraph.basic.rect;fillColor2=none;strokeWidth=1;size=20;indent=5;fontSize=8;fillColor=#b1ddf0;strokeColor=#000000;" vertex="1" parent="Q0ot5jj4FvukrQf4Q_Wv-183">
          <mxGeometry y="66" width="61" height="6" as="geometry" />
        </mxCell>
        <mxCell id="Q0ot5jj4FvukrQf4Q_Wv-194" value="" style="verticalLabelPosition=bottom;verticalAlign=top;html=1;shape=mxgraph.basic.rect;fillColor2=none;strokeWidth=1;size=20;indent=5;fontSize=8;fillColor=#b1ddf0;strokeColor=#000000;" vertex="1" parent="Q0ot5jj4FvukrQf4Q_Wv-183">
          <mxGeometry y="60" width="61" height="6" as="geometry" />
        </mxCell>
        <mxCell id="Q0ot5jj4FvukrQf4Q_Wv-195" value="" style="verticalLabelPosition=bottom;verticalAlign=top;html=1;shape=mxgraph.basic.rect;fillColor2=none;strokeWidth=1;size=20;indent=5;fontSize=8;fillColor=#b1ddf0;strokeColor=#000000;" vertex="1" parent="Q0ot5jj4FvukrQf4Q_Wv-183">
          <mxGeometry y="54" width="61" height="6" as="geometry" />
        </mxCell>
        <mxCell id="Q0ot5jj4FvukrQf4Q_Wv-196" value="$$V_{12\times10}$$" style="text;html=1;strokeColor=none;fillColor=none;align=center;verticalAlign=middle;whiteSpace=wrap;rounded=0;fontSize=8;fontColor=#000000;" vertex="1" parent="Q0ot5jj4FvukrQf4Q_Wv-182">
          <mxGeometry x="3" width="60" height="30" as="geometry" />
        </mxCell>
        <mxCell id="Q0ot5jj4FvukrQf4Q_Wv-197" style="edgeStyle=orthogonalEdgeStyle;rounded=0;orthogonalLoop=1;jettySize=auto;html=1;exitX=1;exitY=0.5;exitDx=0;exitDy=0;" edge="1" parent="1" source="Q0ot5jj4FvukrQf4Q_Wv-198">
          <mxGeometry relative="1" as="geometry">
            <mxPoint x="397.1765423943016" y="3783.0588235294117" as="targetPoint" />
          </mxGeometry>
        </mxCell>
        <mxCell id="Q0ot5jj4FvukrQf4Q_Wv-198" value="" style="shape=image;verticalLabelPosition=bottom;labelBackgroundColor=#ffffff;verticalAlign=top;aspect=fixed;imageAspect=0;image=data:image/png,iVBORw0KGgoAAAANSUhEUgAAAHoAAAC5CAYAAADnJSv+AAAfOElEQVR4Ae1da2xcx3X+1jGStEmZ1kpTkWriKK5rUWjVQCBbkCiadImCKgrVICmgiCjUzRrtD9po/UMwAe/2V5cGKPinTaBBtIUASShQSYyhPyICrlOgEH+QYRCmFoUiLuPafKCJ8qBj1w9JW5x5z9y5e/e9964uAWLvvTNz5sw5987rm3NOplKpVJD+9bwEHur5FqYNZBJ4WMrh3Z/8AHc/+Km8TX97QAKfOfQV1QqlaHqy9/o38dDHPq4S04vkSuChh38FoYqmZj3+hzPJbV3KOZPAz/e+jzs765Y0enaM3rvyPDJP3cCe1dwH96YHFH0Hl58awtSVOw+uFmtoeQ8ouoZWplmQGEWzrrhvCBn2/zwub3PtrcyPY3oRuJYb52lOd12el2WGkJnfsFW+WhL0eJ65VZm8gbm+Icyt8l+qM+k9RjIUvVpCf+4Ibu6voUL/y0cwPVjCCoCR2SVcmgAmS0s87cIJHJT6WixgKyvKbBYxOZeDUiYpeew2Lm1KmjMojOkXiEgUxtaQFXVePXVAUk3kbwIUfQeXX17AZOlJjEgRDz+JSxMLeClqXJ4o4ulhUejQMKYmgPU3+Vi+Uiaaszh9SKQzmmVs7chKgOJyTtcJ/XXzXoW/aDp3vK+sdXS8WW0ld3ewdQu4NjeOTM6mO3nyDiBfDivpGPL7a8hbz5Jz84AqmiuIunt/lywmAMnRYySnCei6D+D0szO4lnuVjcmsRauvYnpxBmfZuHkAh48C196oRzmS5rya1BFdmvCpMTxSdMnKkIwvejiH3dLz6O8bEtLN4tLmOTV+jpwpYnIwh8wcgIkidi+ciNbCcA6V5RIyg0OYVrlncHNf3fTURUbClARqvL1+Dk+MPNdTDXwQGyO3QB/7ysuq+QnouhWv6UUTElBd9933fwpUKvjpznebIJcWjYME7n7wDir3P7JYUYpmTzMZ/MxBPazc6U1CJFAJV/TDn3yENeKxob9NSGNSNsMkIMdoMz0do01p9PB15xTtAAi+bUQbuDDACAIqtm9gqs/ei1Z6YbRpS5JDlpy2Ud4AJVQdDsDBnitARIIaqgZ+YfEQXRdC+OkGQGKP0U67Wn9L61S9f7wyP4TRpwbYulcBEWIdrO4NJs7mC3hp5Q5OOwAD7VsjX2Lr6i1wgMO/4yWITcygeIsAjjXkvdudRqURl+G7a/QijGP6aAmVC8c0FXpZXljF3ikDfNGpbbvq3BftacJIdgZY3AEpp5Y/ym/tkLFCGyjPZXHpjCHMSGIDePrFItZfbucJlG1sLQLFrMPXoRO4aiJskby2JkMXFc1RKeSH1A5XZJOGh1DEAsoKNwawuobCRBZZiUJFEhEZDp3A2aMFnDdp1Vq2pnyHcHiCoM54oFwdVvQCRtXhgXFcPbmEyqzzxi8W2FanNc6qsfMYsnmgUJYHCASEeXJYY9AwDiGouvwHB2jrdL1JRagDD4G6DuD0BcLKzTbTvKE7iu/SGC3GLwZEOIB+lTGaPiS+r72GldljGNlexdXFLKZetGmEj5vOp0hfdX4IL115Eq84SbXeVq+LlL2G0xc0NTYv6YM1V9Gp7bvq8BctG0ICKKE4l6v/iA47QMAPHeytlHEtf0YfHpDk6/gdmS3heO5VlOso00xW9qLiNrbqAduaqVCU7ZKiqfZjyG8Wgdx4ndDgAWRPZnHt+qs4f70cnOzULZRjeLp0G9M5U9X0LOuMr3dw+YVC7S8Wza7VkKOZWrlYwLVG5hSaRENXXVQ0gEMn8AoTKB3EE/xXHaN5noOnzqC4uIDC4gyynuVR+LjplxGj5yQdPHUON/Pm+CqWSs6cIrQuMdkjaNWcb4yClludXVpR01KY0lFwL9zKLdAUpuwFbdbZBjXrJpiyUrmPn7xFh2jTvyRL4N5H7+H+vQ+tJihF09NM5iHs//i2lSG9SaIEKkDlrsW4UrSEKb90/OtWhvQmeRKQY7TJeXdn3SYn6XVbJdA6RTMIz1hKCBgwGhbkcJ8fujPgQi/M6WwpevPwLUfakTKXOe41Le/CeIWy0pDbl1EQpU5Xy0amRt1WVZez/JJ8+eXR+LvQOkUTKrNfQhFkyrJm72ErWNDHqDhjfX01aMtMgAXMtTLBnMJWSv0K2JOUbNpSiXRaCxMIMjJrlFsmY3+bloIrJ7KYnLvonPe+iPWJbIB52v5ktmCKlzXLIGAyPxO6l07rdFWW7MJAR5g1j1Vh1gAn0Q9ap+iqdUXAgoRKLQaRJG4fZdhcValj783bgGfHiRSslFilvE7K4mwJmL4ogZMNnM8dwdlnj+gstV499iReKd2OthGrlV4T+TqkaL4LFg4LuqgUtYjjzFMjNmAR1taDjx4BFgt4JsrwLoyA8fzwqVlcYgcTgJX5HNZNAz8jXy2XtOtGe+ndXrR2TtECeQqDBdkhhLk1JZC9Kxc9OLO5JSnHXDFuMssLOpgg7KTF2NfYWMeHk8LYEEZvFfGKc6JFKtiti8bXYH18L33UObokaXTqVy2vOlJhNViQma2Oo7yaw8jwHZSvlzF5ctbCmfm4qo8iBXgmZe8b5pE0QRwcxxTCjOkCFPQDYZq79Wz4vnQ4RGm72WB76X0XcfnMrKbf4avOKpoZrpdwvO9VlEtuSzkq1f/yDTz9InCVjOgu1NZtu5TUPXuxChj14d4qU9gFx5LDUut7fgz55SPIXFzFpfoKtix3R7tuzrUPFuQpB0eymFws4/xFwpnrOGIEGksNBEyKZ/sGXprznNuS6Z38pR7iVoG54ehktbKu1imaraNzKDCXEB5/IbJGAD5YkCWzL7CMwlwYzhw+RvNjQXLcFr+DZUxt1jvrNhiNuKxtjJZE+Lgv7zr9m8KUnZZ4B+qTW6ApTNkBYcetCjUZkzDl//7oO3HjMeWnTgncv/sh7t/7wCqlFE1PCaZ87xdvWxnSmyRKgGDKexbjStESpvziH5yxMqQ3yZOAHKNNzls36zapxu1aGeHFjbHO8dMVRTcH0RnQZUvkJCBF39FcgjbZc+FMLrCNKcrScwGR2rAkAAHfBp63hPfaiaiuu/YizedkEN0pQYdtU9J691xTB/Eb54obE2z15fDMyWENM66W2D43eTgiy046g74+mMNcVq/L967Mc2tJdgT4GHZLt9E/VkJWWYzys+DHl3WZxvlsrmRXvuholjVwz4B49bXRc2NThoAL9pU5+dXz6Jp4DmlMIPyO0ctH2PaLxj434e3L5C9UgCjSP6lxzludBRdfPnNIe7RUJ0xaK8/15evKFx3FohSQtCum7c3++QF2mIFMebYWc4DzlVg2TqyXsL++qDq5MUEZ/S+UsIUFoLQU7GGGc7iZH8LoPFCcW2AHLJR/UlEBmfgU+3KYwwwKc3S4wTEijGSkPRnip2i2P02nLbSAuGEdoT81du/CwetVcvA6XDswcpBw6OvjmEYRuyHQpFRkIV9CxWMlwkyNlmeQGfO/CO1RYzTVmHbd0YwHcljnxbgP70CeiAdszMUMigg/wEAHEQr5GWYg6J9gbWCOlJw3uvmIejuRHL8vupFWG+fFuFtmGrPHcbUeWts38AzzCZ7DyPYApgbncXnE6UHMCVoWyFgTL14ZP5HC8e8sqJsfss/P1cNTC/PG74sWCJY+swUwC0RlHss9CUi/2ySLwHkxZjddj5Q2MDdYwHHpn5sZ/0E5f2eU3AkaG68XMKomivwUqXkihXXzjZgG18N6jXlj+UUzr/pP0ZEg0QpmHC/HbA73TY8JX9s0Vs7ysbW/j0BScvw6gyI5YRfFq//wmfw6uXQ2xlw5XnNnOgM4z16ENWuCJsfr/qMDqGTXRJQAY6ZOpsFsvB7H3KPdXWKlMGX1tyCRqXILNIUpE6m+5phWXbeEKfd++O3mKKaluy6BSuUu7t993+JDKZqeEkz5IXn5Tf8SLQEeKfq+1QalaAlTfuH3/srKkN4kTwJyjDY57/7yKgz1MblMrwMS4AhgiG/UQG5Ui2TnAAXGelHSceHGgJWCtVvlOY5LVorCMM61j7JpSytGWbNh+cgsMpx0WvMKSw2/9YSmI6/s+lwBCpjSoMnAlgBsKanRr1vG4VEcUWZ0BF17p80tL062ijoJQNklG7EXanNzGfJF850l5rBUWiUeLaDfUDYJxoou57qSkhsM0kKQYD4nUhwzu1EbIVJI/AXrf+OMtjZUsB/liUqXmx/SMpH8iFV3cRVoC4uU5ypbWIkalpMBr4eyCYxH2iotqTYwD0eO/EYZ6CH4ZMhYfXWytT6CxomKDePCr2jhkc90pMqAhcUyysIR2tYbZVh+PN1IceRPy1QiSy/j6oo0VyGzGwSdtVKoIwIVDPjP4BeISOc2W0YEO/gM+EyKwvzHNKQTUe00r2b+Gq9P0kaO3OQBgg5us7b3QObn1I6kF10Tt27RLjPDS/gV7ct/aADHoRlhip/Lad+W7OWQsag4gcnHTE+sTnwqlv8IDptZqDujUIIo2/5AjS4yKp3VfHTAstk6/FgWuLUTtL/2tZM9c3gV+cjoTna1gWHKonUAp09pJVMS36YdwGGR7+CpE7az2+0drCOLwwMWIUTVyaxbamibX9FCqVXfaLYnTUwJ64nBAqC+Ch4S0GbZudvZ8ZjdiFCCR81um7uSlAcMWKjB0HSA9TROVdVvhVJ9hviqIA9XaBqu1+XxkB1SgH2QQdGmCz7cwIyVSdun5jDhDo2yPOmqBlfYfkUb7hvlG5zpo5Md+o1jzkvJC55iZglT18eF2SgXnuSl3l+7J+DuGs0vslo6+3rrrJDtrcP2Kjw6B9j1GETFS15Ll8nOkjFs2kHCFDmadPHxvKqXg6p1RvsWDVE0N1y/qpRIoXzJHYTsavmXZwtC+ujULirsMIK+Mqq14sLfZepcUekip9OVsa/c6c41TbrilpP6peUuOo4/Wv3Qgt1+myLdsZl8yKqC5WarAzK097izDpJjT/x1Sr2EFELV5ZVRiM2g6cSEtE0WArcs+ckFBNk0c9/ZfAw3fIGICZ7yYDAwgElHIVSjHPv1UsNH14gDDTudGfBZbjLIc4JtUcmXUsHlDm8xzer5FyaXfJRf80PO4EsYnctCtUUq1fDFzY4/MXw75EumpadAxHxfci11Mn5pbJ/QY7+hNfuSQhbS3y9/vFG5vXSmUtlf4//LMxUA4j9bubQpnsv0/bXKzbxM57+TpSVdnvJZNFApLps0liqXJvx03XJRdAPpm8XKpOIdFTud6nWflSrF0PzBdgAu3y5Nm56Wo5aBKzuVJ1/yyJ/k69bJZblbylYgywjd/Oy/zld++J1nhGb5T1dhSnpr2XrZWIbYr2Eb7qh3GtzBWWtt3mQ97aBZE0t8v2PrWRvrllugsYEpWTfruHqqqX1NZOLO3Oszso+qrh00o+qkdH7GzdwzCC+lvuhfvP3v2H39G+j77BPhuduR8tYGnvvG9/AXf/cU/uzz7aigN2m+s/Ea/vHfgL8++6c4/plgG9/9+f/g8bFvqgRL0Xu3volf/cwXVGJ6kVwJvP/LXTw+ph3FBGDKzx+dTG7rUs6ZBGiM/vD9X1jSCF9HW9naeJPClA0Jly8RgyBIGLEIRXOkSO2OGXvOmiDPY60zRSJnptr+sAemZJsIugzVHU3bWRM7NKrvS3Nmad2r2hlSp0TOfPxIa0pFwysrLTXrSvLrlqkC87YIppTmnuOgqbvaMbKWQfIl8FtFsKUT2zAQ5T17tV6YcmeH2T2pOgPwJq83HMZsDKasDhlWbyvf5rxtOG2tJ9QT8VsGJizVc3Nb04ltQA7k3WkWl5qCKQlFukggxVIVS0C5bci3Cx02Obhg+gpzYEz6Orww5XBOm64SUQc1az1MSZVEQYbV2xowIBDQqL0F7EqI7vk+N5bP4exRO902WiA5DGNqwoR5KX/TMCV3uIrrtl9Nb5dl86fu5FamCtHnwpghMKUiIC+YK2cDTImAMVkxZ187CqasFTKULLm/ctu1X4U9riUwqlSyvdlh0rb3tf37/M3BlAwbLeO42W2zExD+8dJkTl1XhTEBeGFKVVo7SbeQnygYsxGYUtfJr3yQoZvHvRcIG8qYHqSxnvbKq0XYi1Iyb6dbi/c+BKacfu5byGQy6r/KZEx/RawCduoCMG2evBWLh9VhzGoleRrzisDQsxIwZr9g9ptuw5iNwJSamxohQ12AXbH5yPUsdg207yZywkjfyUy37EOiSLR6AkiwKNRBDv71ekqGPArClH//N8N47bXX1L9f0e64GEI+/LEPkgzCmOHlzRR+FIi/YP7uy8zNrh1ULBqmlJPP+iBDWa+PvuuWWuZlvyxagTHJ3V/DzTz5zyB8XyKEgD3G+2QqqQZhyj/68iF89atfVf9+RYN/JcqNA9Gjs1oU2bUmR+nRMCZCYErqCay5gHDcKrFhOfbrPC2AKSMgQynOsF/Wi1h79sHY2Hyp6SwDwwgquLYKzCvLNg1TBmBIFybj0JyC1wTMZ0KRLhQXhAtdmj5IUEN7fgjVhRzXKpU6YUqXT9UmBf9Ft5XBhQbUaUOHLoxpwrX8mvGg6hPpVWHeFKaU77r/txuQYtvqpPU93+uQhySo0SlMSdAeizndWpjS/0bpp+2qswmY8p/x6Ud+R3PYiau3X8fsv2xg/OtfQ/a3O1Fhb9Txy//8D/zTIvC1f/hjfFk6DDCa9t7+Nn537Lx6EoApP/0bX1KJ6UVSJVABKfpxQ9EBmPLQkb9MautSvoUEaIx+/z3b/DlkeZXKrNck0FuKZrBe7WvVXlNmtfa0VdEuHq2wWmEmWh0npu1IZ/OkWkui0lZLKvjYynzYy8DhSL0ZYxCtgg1TLretoW0jOoZVpVFDWy/bqmi9X72GSgcCbVaT1N6bELt6GyjDXV7ViTczbNh4CaVtlWEiHLDNki/K2EI1NtuW1lZFR3MtBSw299WbTs9b4cWX9wrUk/TnFjSyxMADM7xgdbyZLDhholEBO6gBXDLdUAewdwAsyt4adkvBqLXRcmo+R1cVrbz4CtTnJhnbs+M0JHgjRDGls9MtUiH61MrknGme4wpEWCRSbyKM0m/mdfhenymMSyHs3sK4h09YjuaAbWwtAnJ/PoxGJ593T9HSi+8ZbUccsNeKkoTvy/GUoZ2p41mqZwPlW1lkHZtsTxHrEQctdIBUKzFwI3qjfDz8dEv21DpaPoj9L411zjg3edLHNQncPM82xKLsUc7CYoFDgtYZOB8N/ozmGjffGMJonzO+5s9YBvf88KBwA10j7fBaW5vSvS+6kXYwJZuH8JZwyT1Up+jKbr6Eoui2d0sz+gBfnYqwIsrv83rtAxA0HxjnoRdEeAbFSgwuuqdoNqEpG5HX2+TFd3UN68zFBj+M6LrSaEQHbG4BI640O67b2KGFRupvpEz3FM1CDC+xyOtyfU0ukLWTGu7FVwX6nN9Qx1v7pRuoF3ZwPPSLFuJQp0rpC9enN2xhydm/PdPX62mZzlcHo+TpwfhqGToFBIKUW+tlsbzqz5VZ5HrWBrXKsLlpx50CNd79yQ/w9vo5PDHyXDvqSWl2UAI+PFpNxrjT13t46/UrHWQprapdErj30XsWaaVoeprJfAwPf/xTVob0JpkSoKO+5p9StHT62v/4n5vp6XUCJUBd93vv7Fmcd3UyZnGS3rRVAr2vaDbbDUOr2irbWBHvvKKliahcIrm/VZccfJkTCgHWI1rGh/8FsCFHvw2ynceh47SxJfzW0zZP3s4r2rJSEDtM5FBNmrMY61MPv80/kkoYLOCahxop0PJaHPD0y1+2Vprtetho+aPOK7qGJthfi/6i2I7UorExIb5+14jd2qhw65MvGvOE6CbW4Om35d6FXR7acx8/RcsorvILZ18U7xqZz84JYFL2AOLrt/ehSyguhoccrF+Mtr1XZ7wL189lVImYKZrbLE0qL8EE2D+JSxMLeOmK9PMd1SRulGcbqEWVkelCqaGefjthtit5ae1vzBTdYOPkuCsmdswEtUFStXj6tVGrVprtNsh0DcWSr2hSsnCeKid0zAS1hsb7s0h4U5q1mp5+7W7cXx4BJ/A+s9rQsm1KiJmiJWL1KlZkg5m5rvTs7xE0eU7ADLIqriT35iuLN/dLM2zb028rzHab46mx0moLtLHibSg1nMNu6XkWaoFTpzNe51RYAibowRwy5CGABScVUdrV6Y8ZFMmoPOxP9AByacVPjVDkdglhCq8Hojyb+JlBw2nWvryDzJg+sUJ59PmzY8hvFjFFLi4MGmaA0zDW2vk8hSnbKd0u0Y6GKe/fw5s/+NcusZdW20oJ3PvoXYuc1XVnHvoYPvGp37QypDdJlEAFH/6fbWSnFC1hyoNfGktiy1KeDQlQ1/3uw28ZT2qNqWEVSW+SKIGYLa+SKMJk8NwTirZBEDqp6cCGTBf2SU4eME0qSdtoyROp7Nf1tiuzJ/BXjdEJ5F2xvPUG2MH808LUhkGNT93AroQ8zd2zC6pY4KK4HO6XM5A5YQ964osembVjSx189AhghPGL9lScMK01wG5PKNptNzNzVUG/avdUbPrmjMOpELddzdz3kKL1GMycrKtum6K4RnkqrjHgZzOS7nLZHlK0gTotA6PWhKxOT8UBQ/cua6kF1feQog1psKDbwrVxE56KbdzZoJ/Ayx5QNC2N7OUUi9WhIuNGeyqmWbo2qPMHGU2gbi2We2B5RUeHco6Rugk7UpAR15CdQ59yOUazdJqIFZRo7HT1OMEXKUyZYOWFsV4TTPmj718MK58+T5AEImHKNDZlgrRZhdWPPnjHSlVjtIQpP/fFP7EypDfJkwB13Q89/EmL8R6YdVvtSW9CJJAIRZPJjXdL0jnP7Zri1GWqIwXk0AzUK3yRSJTLWpZJGjH8jbWipaL8B/JlIDJpoLfE4jRyz4MkabKqoGWWPJ+9Bu2ZMEwTEXEtXfdXrk/QMLIxeB5rRXObqnBfYoetY7Y8rhZUzKugFyLLraNH+GyjZaKIp9UZcW7eUyhvsNzRPkE9RGPyKNaKri6jYzhtnreGCFfoxKXUNLilJELTRU4nPerliErX9Xf3KsGKtgVH25gMtQp4BJSnR6JdNzLTGZusdVefT1CraNdvekLR7ERJjk6ZSGsLU64agtw9WUZ/FY8KTJFmUeeabaXmFzBqeGlgDuKcXsApFovbxCuaJmzcQ4F9ysQnXRaC1zh54sujx3ie6hrI2bbYPp+gXqpdf5hgRfODBsytpLKbMuRJyyTn62XBt9XJExkeQSNfMg70+VVJhxvsFZkLaPlM/wZ8guqk2F2pnbHYcUZR6eeHoJZWi+PI5Li3A2bQxgKNE9cF9JNbZvUnkadhTGEc/X1GGjPKO+G4XlYFAUQZyNHLZbiGJq/BF7S/cZNS3K5T9CpuGmkBPz70KsFddwsk8gCRUF03OX1FpYKt71U5+PwACSbZTa2gqtNXZDL4tc8+nuw2ptwzCfxs9/uWJNQXLWHKz35+1MqQ3iRPAilMmTydtYzjhE7GxLams06mcEcU5lBCiLYhHclMH/JneQLlw+VKS70AZBmePXYpCVQ0KSuH9Qk3IhwpWQQwYdCkiNdhWESGB1QL10t1qDS8XNxSEqZovmFx9eQSXnFjXa2uoQDpporEzF1ZYU4EJvMFVMvOQKWHaCYKKg0pFrvHCVK0VrJ29RQhz4EBTEJYbLCsR2CFQwqkR9BLcHJCFF2DkpnSFlBW+9SOVpjjOefZA3SrllfxbjMP6nlN7HdrXsvoXyyLSK9BR2883wzOMgN5+rp3dNEH7CohX7TGlKW/Txael0CKfQOeFKF77TwDOKyUanbjANhX7nTnKm9vXSRE0Q0IXQbvflGgVb4QiSwutBE0nJ3w1I7gG6g1tkV6StF00kStoceAm+bXHhki0a8jvrzi0KQMn5jE9XQKU/r1m+inKUyZaPU1x7yadTOYEsB/r5eao5iWjoEECKZ83+JDKVo+/fXf+n15mf4mWAJ3tr9rca8ULWHKRw4pMwUrY3qTHAlwmPITFsM9Neu2WpbeWBJIiKI9sKRj9aiWVX1DhuMZB7Z0nNpYkpA3EdaS1hKuLznQZQIUHQJLyoh0hrVkZbOISRVIxYUt13CTrCyqYdBR1pJyE2ZTWGhuFoHcuPFiybclfr8xV7QGMwKwZECWd3D5hQIgg6Ntk8fALKZGDqicIwRLVrHUiLaWHBD76oLkoWFMTQDrb9YafE2x0vGLGCtaK7kmWNIKmwRAbnkO6u6VhRuUL0KNorasJYdPQLqs4sU52HL8Uf0y1Ui249liqug6lUxHhF5egBXqkLY8z1BXroOWkrXlWcfU1pR4fdaSfEgp5EvIJ2ChopZXZoO7f10LLKm53Lsyj2kUsWsqkSZrg2VMba7hqvDjDTbRKhkxrjQNugo6nhPp+TOOGQ9/EVmdATNdm2Zc7mL6RdcISzIpbuB8rozis45NlQ+CZD5CqxxOYMCHdoVR2fdZS9IkbxzTR8nuyqkzLlr18BFTRXs4DXkUdEchMooTJ2aUWu4jVIc35EslbU3pVhGwlmRLOnEAMSFfsmxTTLtuyV7E7/YNPENf8/I5p2vlk7Grm8DUILfC5JRsH6FB6qJLXhQpjrXk3kqZR5HPmTRl6MR4f90pTBnUduKfpDBl4lXYeAMCXffbm99qnFpaMrYSsBT96c8lYEEYW1HGi7FPftyOMarG6HixmXLTagn8P7RnVeZPTDhlAAAAAElFTkSuQmCC;" vertex="1" parent="1">
          <mxGeometry x="288.89" y="3731.86" width="67.88" height="102.94" as="geometry" />
        </mxCell>
        <mxCell id="Q0ot5jj4FvukrQf4Q_Wv-199" style="edgeStyle=orthogonalEdgeStyle;rounded=0;orthogonalLoop=1;jettySize=auto;html=1;exitX=1;exitY=0.5;exitDx=0;exitDy=0;" edge="1" parent="1" source="Q0ot5jj4FvukrQf4Q_Wv-200">
          <mxGeometry relative="1" as="geometry">
            <mxPoint x="489.411865234375" y="3781.8823529411766" as="targetPoint" />
          </mxGeometry>
        </mxCell>
        <mxCell id="Q0ot5jj4FvukrQf4Q_Wv-200" value="Emberding" style="rounded=1;whiteSpace=wrap;html=1;fontSize=8;strokeColor=#ae4132;strokeWidth=1;horizontal=0;fillColor=#fad9d5;" vertex="1" parent="1">
          <mxGeometry x="405.5" y="3734.2299999999996" width="27" height="94.25" as="geometry" />
        </mxCell>
        <mxCell id="Q0ot5jj4FvukrQf4Q_Wv-201" style="edgeStyle=orthogonalEdgeStyle;curved=1;rounded=0;orthogonalLoop=1;jettySize=auto;html=1;exitX=0.5;exitY=1;exitDx=0;exitDy=0;entryX=0;entryY=0.25;entryDx=0;entryDy=0;" edge="1" parent="1" source="Q0ot5jj4FvukrQf4Q_Wv-202" target="Q0ot5jj4FvukrQf4Q_Wv-181">
          <mxGeometry relative="1" as="geometry" />
        </mxCell>
        <mxCell id="Q0ot5jj4FvukrQf4Q_Wv-202" value="Semantic&lt;br&gt;Block" style="rounded=1;whiteSpace=wrap;html=1;fontSize=8;strokeColor=#82b366;strokeWidth=1;horizontal=1;fillColor=#d5e8d4;gradientColor=#97d077;" vertex="1" parent="1">
          <mxGeometry x="490.99999999999994" y="3760.35" width="53" height="42" as="geometry" />
        </mxCell>
      </root>
    </mxGraphModel>
  </diagram>
</mxfile>
